<svg width="965" height="683" viewBox="0 0 965 683" fill="none" xmlns="http://www.w3.org/2000/svg">
<rect x="173.5" y="503.5" width="615" height="178" rx="10.5" fill="#00317A" stroke="black" stroke-width="3"/>
<path d="M198.156 651V537.25H238C251.802 537.25 262.271 539.906 269.406 545.219C276.542 550.479 280.109 558.214 280.109 568.422C280.109 573.995 278.677 578.917 275.812 583.188C272.948 587.406 268.964 590.505 263.859 592.484C269.693 593.943 274.276 596.885 277.609 601.312C280.995 605.74 282.688 611.156 282.688 617.562C282.688 628.5 279.198 636.781 272.219 642.406C265.24 648.031 255.292 650.896 242.375 651H198.156ZM221.594 601.469V632.172H241.672C247.193 632.172 251.49 630.87 254.562 628.266C257.688 625.609 259.25 621.964 259.25 617.328C259.25 606.911 253.859 601.625 243.078 601.469H221.594ZM221.594 584.906H238.938C250.76 584.698 256.672 579.984 256.672 570.766C256.672 565.609 255.161 561.911 252.141 559.672C249.172 557.38 244.458 556.234 238 556.234H221.594V584.906ZM349.484 642.406C343.911 649.177 336.203 652.562 326.359 652.562C317.297 652.562 310.37 649.958 305.578 644.75C300.839 639.542 298.417 631.911 298.312 621.859V566.469H320.891V621.078C320.891 629.88 324.901 634.281 332.922 634.281C340.578 634.281 345.839 631.625 348.703 626.312V566.469H371.359V651H350.109L349.484 642.406ZM434.172 627.641C434.172 624.88 432.792 622.719 430.031 621.156C427.323 619.542 422.948 618.109 416.906 616.859C396.802 612.641 386.75 604.099 386.75 591.234C386.75 583.734 389.849 577.484 396.047 572.484C402.297 567.432 410.448 564.906 420.5 564.906C431.229 564.906 439.797 567.432 446.203 572.484C452.661 577.536 455.891 584.099 455.891 592.172H433.312C433.312 588.943 432.271 586.286 430.188 584.203C428.104 582.068 424.849 581 420.422 581C416.62 581 413.677 581.859 411.594 583.578C409.51 585.297 408.469 587.484 408.469 590.141C408.469 592.641 409.641 594.672 411.984 596.234C414.38 597.745 418.391 599.073 424.016 600.219C429.641 601.312 434.38 602.562 438.234 603.969C450.161 608.344 456.125 615.922 456.125 626.703C456.125 634.411 452.818 640.661 446.203 645.453C439.589 650.193 431.047 652.562 420.578 652.562C413.495 652.562 407.193 651.312 401.672 648.812C396.203 646.26 391.906 642.797 388.781 638.422C385.656 633.995 384.094 629.229 384.094 624.125H405.5C405.708 628.135 407.193 631.208 409.953 633.344C412.714 635.479 416.411 636.547 421.047 636.547C425.37 636.547 428.625 635.74 430.812 634.125C433.052 632.458 434.172 630.297 434.172 627.641ZM492.766 575.688C498.755 568.5 506.281 564.906 515.344 564.906C533.677 564.906 542.974 575.557 543.234 596.859V651H520.656V597.484C520.656 592.641 519.615 589.073 517.531 586.781C515.448 584.438 511.984 583.266 507.141 583.266C500.526 583.266 495.734 585.818 492.766 590.922V651H470.188V531H492.766V575.688Z" fill="#F1AA1F"/>
<path d="M625.969 627.562H584.875L577.062 651H552.141L594.484 537.25H616.203L658.781 651H633.859L625.969 627.562ZM591.203 608.578H619.641L605.344 566L591.203 608.578ZM715.422 587.641C712.349 587.224 709.641 587.016 707.297 587.016C698.755 587.016 693.156 589.906 690.5 595.688V651H667.922V566.469H689.25L689.875 576.547C694.406 568.786 700.682 564.906 708.703 564.906C711.203 564.906 713.547 565.245 715.734 565.922L715.422 587.641ZM757.297 545.688V566.469H771.75V583.031H757.297V625.219C757.297 628.344 757.896 630.583 759.094 631.938C760.292 633.292 762.583 633.969 765.969 633.969C768.469 633.969 770.682 633.786 772.609 633.422V650.531C768.182 651.885 763.625 652.562 758.938 652.562C743.104 652.562 735.031 644.568 734.719 628.578V583.031H722.375V566.469H734.719V545.688H757.297Z" fill="#F80202"/>
<path d="M383.082 390.27L383.192 390.285L383.303 390.284L383.285 388.784C383.303 390.284 383.303 390.284 383.303 390.284L383.304 390.284L383.307 390.284L383.319 390.284L383.364 390.283L383.539 390.28C383.693 390.278 383.919 390.273 384.212 390.267C384.797 390.254 385.649 390.232 386.721 390.196C388.863 390.123 391.884 389.994 395.401 389.767C402.423 389.313 411.469 388.464 419.461 386.882C426.941 385.401 436.885 387.652 445.163 390.411C449.261 391.777 452.874 393.24 455.464 394.363C456.758 394.924 457.794 395.398 458.505 395.732C458.789 395.866 459.022 395.977 459.198 396.061L478.971 429.555L459.526 481.054C458.837 480.598 457.94 480.011 456.873 479.326C454.24 477.638 450.562 475.355 446.386 472.974C438.088 468.244 427.625 463.016 419.456 461.438C411.651 459.93 405.678 458.012 399.63 456.07L399.61 456.063C393.567 454.122 387.447 452.156 379.456 450.613C371.574 449.09 365.426 447.901 359.282 446.713L359.235 446.704C353.075 445.513 346.915 444.322 339.013 442.795C331.088 441.264 323.68 440.07 316.296 438.88L316.287 438.879C308.895 437.687 301.528 436.499 293.652 434.978C277.82 431.92 262.506 429.445 246.489 427.917C238.482 427.154 233.657 427.537 228.904 427.915L228.902 427.915C224.21 428.289 219.588 428.656 211.841 427.917C203.753 427.146 198.981 427.403 194.249 427.723C193.996 427.74 193.743 427.757 193.49 427.774C189.062 428.077 184.536 428.386 177.075 427.913C172.917 427.65 166.884 428.564 162.018 429.5C159.558 429.973 157.348 430.462 155.754 430.832C154.956 431.017 154.312 431.173 153.866 431.283C153.642 431.338 153.469 431.381 153.351 431.411L153.232 431.441L135.788 434.32L154.569 411.518C154.573 411.516 154.576 411.514 154.579 411.512C154.692 411.432 154.859 411.315 155.076 411.165C155.509 410.865 156.139 410.435 156.92 409.917C158.484 408.88 160.647 407.495 163.051 406.1C165.458 404.703 168.083 403.31 170.574 402.247C173.096 401.17 175.349 400.49 177.05 400.409C185.225 400.016 191.666 397.98 197.955 395.813C198.543 395.611 199.129 395.407 199.714 395.204C205.409 393.226 211.081 391.256 218.093 390.269C230.287 388.553 238.369 388.08 248.514 387.486C251.45 387.314 254.56 387.132 257.992 386.907C259.329 386.819 260.636 386.735 261.916 386.653C275.205 385.798 285.748 385.12 300.257 382.247C307.968 380.72 317.509 380.712 325.193 381.101C329.02 381.295 332.358 381.586 334.739 381.828C335.929 381.95 336.879 382.058 337.529 382.137C337.854 382.176 338.105 382.208 338.273 382.229C338.312 382.234 338.346 382.239 338.376 382.243C338.407 382.247 338.434 382.25 338.456 382.253L358.194 386.871L358.263 386.887L358.333 386.897L383.082 390.27Z" fill="#3A5907" stroke="black" stroke-width="3"/>
<path d="M138.278 431.91C138.278 431.91 180.076 411.081 212.086 407.037C247.571 402.552 274.036 404.989 309.662 407.035C342.977 408.948 367.772 421.626 400.983 425.454C434.213 429.283 480.629 431.905 480.629 431.905" stroke="black" stroke-width="3"/>
<path d="M498.376 366.683L451.503 395.789C451.22 394.996 450.844 393.964 450.386 392.743C449.275 389.782 447.68 385.706 445.739 381.246C441.883 372.384 436.578 361.802 430.927 355.536C425.52 349.542 421.844 344.346 418.125 339.086L418.113 339.07C414.396 333.813 410.633 328.492 405.101 322.36C399.632 316.296 395.369 311.568 391.106 306.84L391.1 306.834C386.836 302.105 382.571 297.375 377.099 291.308C371.612 285.225 366.339 279.727 361.084 274.247L361.078 274.24C355.816 268.754 350.572 263.285 345.118 257.239C334.156 245.085 323.261 233.715 311.224 222.668C305.209 217.148 301.076 214.494 297.002 211.878L297.001 211.877C292.977 209.294 289.013 206.749 283.188 201.402C277.112 195.826 273.097 193.103 269.076 190.454C268.861 190.312 268.646 190.171 268.431 190.029C264.665 187.552 260.813 185.019 255.059 180.061C251.858 177.303 246.43 174.331 241.926 172.09C239.649 170.957 237.567 169.991 236.053 169.307C235.296 168.965 234.681 168.694 234.253 168.508C234.04 168.415 233.873 168.343 233.759 168.294L233.644 168.244L217.761 159.817L246.734 153.178C246.739 153.179 246.743 153.179 246.748 153.179C246.887 153.185 247.094 153.194 247.36 153.208C247.892 153.235 248.662 153.279 249.607 153.345C251.499 153.479 254.088 153.703 256.876 154.067C259.669 154.432 262.637 154.934 265.296 155.616C267.988 156.306 270.228 157.149 271.661 158.133C278.508 162.834 284.945 165.164 291.344 167.297C291.941 167.496 292.539 167.693 293.135 167.891C298.939 169.81 304.722 171.723 310.996 175.243C321.903 181.362 328.73 185.946 337.299 191.7C339.778 193.366 342.404 195.129 345.317 197.055C346.452 197.807 347.56 198.541 348.646 199.262C359.916 206.737 368.855 212.666 382.328 219.281C389.496 222.8 397.225 228.653 403.208 233.68C406.189 236.184 408.715 238.465 410.495 240.12C411.385 240.947 412.088 241.617 412.567 242.079C412.68 242.187 412.78 242.285 412.868 242.37C412.966 242.465 413.048 242.545 413.114 242.609C413.145 242.64 413.172 242.666 413.195 242.689C413.216 242.71 413.234 242.727 413.249 242.742L426.432 258.538L426.476 258.592L426.526 258.641L444.513 276.519L444.591 276.596L444.678 276.661L445.571 275.455C444.678 276.661 444.679 276.661 444.679 276.661L444.68 276.662L444.682 276.663L444.692 276.671L444.729 276.698L444.872 276.803C444.998 276.895 445.183 277.03 445.424 277.205C445.905 277.554 446.608 278.059 447.497 278.688C449.274 279.945 451.796 281.696 454.779 283.673C460.734 287.621 468.566 292.496 475.986 296.139C482.946 299.556 489.638 307.462 494.669 314.741C497.16 318.345 499.2 321.731 500.618 324.215C501.326 325.456 501.877 326.471 502.251 327.173C502.402 327.458 502.524 327.691 502.616 327.867L498.376 366.683Z" fill="#3A5907" stroke="black" stroke-width="3"/>
<path d="M221.252 159.435C221.252 159.435 267.662 168.495 296.008 184.919C327.433 203.127 347.374 221.311 374.966 244.808C400.768 266.78 413.17 292.1 437.731 315.534C462.306 338.981 498.281 369.559 498.281 369.559" stroke="black" stroke-width="3"/>
<path d="M582.858 390.423L582.752 390.437L582.646 390.436L582.665 388.936C582.646 390.436 582.645 390.436 582.645 390.436L582.644 390.436L582.641 390.436L582.629 390.435L582.582 390.435L582.4 390.432C582.332 390.43 582.251 390.429 582.156 390.427C582.028 390.424 581.875 390.421 581.7 390.417C581.09 390.403 580.202 390.38 579.087 390.342C576.855 390.267 573.709 390.133 570.047 389.9C562.733 389.435 553.314 388.573 544.997 386.979C537.17 385.48 526.779 387.725 518.149 390.472C513.874 391.832 510.103 393.291 507.402 394.41C506.052 394.97 504.97 395.443 504.229 395.776C503.923 395.913 503.675 396.027 503.49 396.112L482.843 429.562L503.043 481.134C503.774 480.671 504.744 480.063 505.908 479.349C508.654 477.665 512.488 475.388 516.842 473.015C525.496 468.297 536.394 463.093 544.889 461.531C553.031 460.034 559.263 458.124 565.568 456.191L565.587 456.185C571.888 454.253 578.263 452.298 586.584 450.768C594.8 449.258 601.209 448.078 607.613 446.9L607.66 446.891L607.695 446.885C614.104 445.705 620.516 444.525 628.737 443.014C636.995 441.496 644.715 440.313 652.411 439.135L652.42 439.133C660.123 437.953 667.803 436.777 676.014 435.267C692.514 432.234 708.47 429.784 725.157 428.282C733.491 427.531 738.51 427.922 743.459 428.307L743.461 428.307C748.352 428.688 753.175 429.063 761.259 428.336C769.679 427.578 774.644 427.842 779.571 428.169C779.834 428.186 780.098 428.204 780.361 428.222C784.976 428.531 789.699 428.847 797.481 428.386C801.797 428.13 808.067 429.051 813.138 429.994C815.698 430.471 817.999 430.963 819.658 431.335C820.488 431.522 821.159 431.679 821.624 431.789C821.856 431.844 822.036 431.888 822.159 431.918L822.287 431.949L840.541 434.868L821.014 412.047C821.009 412.043 821.004 412.04 820.999 412.036C820.881 411.957 820.707 411.839 820.481 411.689C820.03 411.388 819.374 410.956 818.56 410.437C816.932 409.397 814.678 408.007 812.174 406.608C809.666 405.207 806.929 403.808 804.331 402.739C801.703 401.657 799.341 400.967 797.546 400.882C789.047 400.477 782.352 398.436 775.803 396.26C775.191 396.056 774.581 395.852 773.971 395.647C768.041 393.661 762.124 391.679 754.807 390.68C742.098 388.944 733.672 388.458 723.101 387.848C720.042 387.672 716.804 387.485 713.23 387.254C711.836 387.165 710.475 387.079 709.141 386.994C695.295 386.119 684.318 385.425 669.212 382.531C661.165 380.989 651.211 380.966 643.201 381.344C639.211 381.532 635.729 381.818 633.247 382.056C632.006 382.176 631.016 382.283 630.337 382.361C629.998 382.399 629.736 382.431 629.561 382.452C629.526 382.456 629.495 382.46 629.467 382.464C629.425 382.469 629.391 382.473 629.364 382.476C629.364 382.476 629.363 382.477 629.362 382.477L608.784 387.065L608.718 387.08L608.65 387.088L582.858 390.423Z" fill="#3A5907" stroke="black" stroke-width="3"/>
<path d="M840.315 432.853C840.315 432.853 796.793 411.959 763.445 407.864C726.477 403.324 698.898 405.719 661.773 407.709C627.056 409.57 601.201 422.209 566.59 425.984C531.959 429.762 483.59 432.311 483.59 432.311" stroke="black" stroke-width="3"/>
<path d="M475.282 391.477L503.397 440.87C504.231 440.311 505.424 439.519 506.906 438.56C509.933 436.599 514.166 433.935 518.992 431.122C528.6 425.521 540.713 419.233 550.344 416.811C559.67 414.467 566.74 411.908 573.871 409.327L573.887 409.321C581.016 406.741 588.208 404.138 597.688 401.754C607.091 399.39 614.422 397.546 621.752 395.702L621.761 395.7C629.094 393.855 636.426 392.011 645.834 389.646C655.259 387.276 664.092 385.296 672.904 383.321L672.913 383.32C681.732 381.343 690.531 379.371 699.916 377.012C718.754 372.276 737.008 368.179 756.19 364.95C765.741 363.342 771.561 363.209 777.322 363.078L777.324 363.078C783.035 362.948 788.686 362.819 798.026 361.247C807.681 359.622 813.432 359.37 819.157 359.183C819.464 359.173 819.771 359.163 820.078 359.153C825.458 358.981 830.982 358.804 839.986 357.531C844.902 356.836 852.2 357.095 858.162 357.508C861.166 357.716 863.869 357.966 865.822 358.164C866.799 358.263 867.588 358.349 868.135 358.41C868.408 358.441 868.62 358.466 868.765 358.483L868.93 358.502L868.932 358.502L890.648 359.525L866.009 338.86C865.995 338.853 865.98 338.846 865.964 338.838C865.82 338.771 865.607 338.672 865.331 338.545C864.78 338.292 863.979 337.93 862.988 337.496C861.004 336.628 858.263 335.476 855.228 334.341C852.19 333.203 848.879 332.09 845.753 331.29C842.602 330.485 839.747 330.028 837.581 330.133C827.76 330.612 819.868 329.285 812.09 327.8C811.363 327.661 810.637 327.521 809.91 327.38C802.864 326.019 795.793 324.654 787.182 324.419C772.281 324.012 762.455 324.405 750.148 324.898C746.589 325.04 742.823 325.191 738.667 325.333C737.044 325.389 735.46 325.445 733.907 325.499C717.785 326.068 705.03 326.518 687.296 325.209C677.779 324.507 666.201 325.526 656.944 326.736C652.328 327.34 648.313 327.988 645.453 328.485C644.023 328.734 642.882 328.944 642.1 329.092C641.71 329.167 641.408 329.225 641.206 329.265C641.104 329.285 641.028 329.3 640.977 329.31L640.958 329.314L617.505 336.031L617.448 336.047L617.391 336.059L587.805 342.064L587.715 342.082L587.624 342.089L587.507 340.593C587.624 342.089 587.624 342.089 587.623 342.089L587.622 342.089L587.619 342.089L587.605 342.09L587.551 342.095L587.341 342.11C587.156 342.124 586.884 342.144 586.531 342.169C585.824 342.218 584.796 342.287 583.501 342.366C580.912 342.522 577.26 342.716 573 342.865C564.491 343.163 553.522 343.283 543.769 342.564C534.444 341.876 522.513 345.231 512.759 348.865C507.914 350.67 503.666 352.52 500.63 353.919C499.112 354.618 497.899 355.203 497.067 355.613C496.686 355.801 496.385 355.951 496.172 356.059L475.282 391.477Z" fill="#3A5907" stroke="black" stroke-width="3"/>
<path d="M889.99 357.527C889.99 357.527 837.683 341.245 798.676 340.636C755.433 339.961 723.693 345.216 680.856 351.06C640.797 356.525 611.976 371.804 572.212 379.165C532.424 386.53 476.609 394.101 476.609 394.101" stroke="black" stroke-width="3"/>
<path d="M572.253 285.497L572.14 285.535L572.023 285.556L571.768 284.077C572.023 285.556 572.023 285.556 572.022 285.556L572.021 285.556L572.018 285.556L572.007 285.558L571.966 285.565L571.805 285.592C571.664 285.616 571.456 285.65 571.187 285.693C570.649 285.779 569.866 285.902 568.88 286.048C566.908 286.339 564.124 286.723 560.868 287.094C554.368 287.835 545.94 288.531 538.34 288.326C531.3 288.136 522.671 292.002 515.612 296.115C512.124 298.147 509.094 300.194 506.936 301.734C505.857 302.503 504.999 303.144 504.412 303.591C504.188 303.762 504.004 303.904 503.862 304.014L491.888 340.318L518.974 387.593C519.5 387.051 520.162 386.375 520.94 385.594C523.038 383.488 525.983 380.62 529.367 377.571C536.082 371.52 544.705 364.591 551.912 361.645C558.754 358.848 563.851 355.958 569.021 353.025L569.041 353.014C574.207 350.084 579.447 347.111 586.475 344.238C593.415 341.401 598.824 339.189 604.233 336.976C609.642 334.764 615.052 332.551 621.991 329.714C628.954 326.868 635.505 324.441 642.032 322.022L642.041 322.019C648.576 319.597 655.085 317.185 661.998 314.359C675.906 308.674 689.449 303.649 703.809 299.436C711.002 297.327 715.493 296.887 719.907 296.454L719.91 296.454C724.259 296.028 728.531 295.61 735.454 293.579C742.716 291.449 747.135 290.893 751.521 290.407C751.755 290.381 751.989 290.355 752.224 290.329C756.32 289.878 760.499 289.418 767.213 287.696C770.994 286.727 776.695 286.607 781.309 286.705C783.645 286.754 785.755 286.861 787.28 286.956C788.043 287.003 788.661 287.048 789.09 287.08C789.304 287.096 789.471 287.11 789.584 287.119L789.689 287.128L806.001 287.011L784.682 267.751C784.682 267.751 784.682 267.751 784.681 267.75C784.564 267.692 784.39 267.605 784.166 267.494C783.716 267.273 783.063 266.956 782.256 266.579C780.64 265.824 778.415 264.829 775.969 263.866C773.518 262.9 770.873 261.976 768.414 261.354C765.918 260.723 763.765 260.443 762.235 260.645C754.665 261.645 748.388 260.728 742.247 259.659C741.674 259.559 741.102 259.458 740.531 259.358C734.967 258.375 729.447 257.4 722.885 257.615C711.444 257.989 703.987 258.889 694.615 260.019C691.901 260.347 689.026 260.694 685.848 261.053C684.61 261.193 683.401 261.331 682.216 261.466C669.924 262.872 660.158 263.989 646.37 263.617C639.076 263.42 630.381 265.019 623.439 266.7C619.983 267.536 616.991 268.386 614.863 269.026C613.8 269.346 612.954 269.613 612.375 269.8C612.086 269.893 611.863 269.966 611.714 270.016L611.647 270.038C611.613 270.049 611.585 270.059 611.562 270.066L594.384 277.94L594.315 277.971L594.243 277.996L572.253 285.497Z" fill="#3A5907" stroke="black" stroke-width="3"/>
<path d="M805.586 285.071C805.586 285.071 763.62 271.655 733.648 273.088C700.422 274.677 676.694 281.546 644.528 289.58C614.448 297.092 594.109 313.75 564.473 323.127C534.819 332.51 492.902 342.934 492.902 342.934" stroke="black" stroke-width="3"/>
<path d="M615.266 415.679L615.156 415.673L615.049 415.651L615.08 415.502C615.049 415.651 615.049 415.651 615.049 415.651L615.048 415.651L615.044 415.65L615.028 415.647L614.966 415.634C614.912 415.623 614.832 415.606 614.727 415.584C614.517 415.54 614.207 415.474 613.806 415.388C613.004 415.215 611.836 414.959 610.37 414.626C607.439 413.959 603.312 412.983 598.528 411.741C588.97 409.261 576.744 405.712 566.171 401.454C556.074 397.388 541.623 397.827 529.473 399.375C523.441 400.144 518.054 401.175 514.176 402.014C512.237 402.433 510.678 402.804 509.605 403.069C509.072 403.201 508.659 403.307 508.38 403.38L472.041 443.945L485.566 520.057C485.572 520.054 485.578 520.052 485.584 520.049C486.714 519.584 488.351 518.921 490.385 518.126C494.452 516.536 500.113 514.415 506.485 512.296C519.169 508.078 534.884 503.79 546.453 503.817C557.655 503.844 566.43 502.823 575.281 501.792L575.301 501.789C584.149 500.759 593.075 499.719 604.464 499.746C615.741 499.773 624.537 499.792 633.328 499.812L633.382 499.812L633.42 499.812C642.216 499.831 651.016 499.851 662.3 499.878C673.623 499.905 684.147 500.252 694.646 500.597L694.655 500.598C705.163 500.944 715.645 501.289 726.919 501.316C749.548 501.37 771.299 502.079 793.768 504.258C804.959 505.344 811.473 507.136 817.918 508.909L817.92 508.91C824.308 510.667 830.628 512.406 841.563 513.466C852.875 514.564 859.355 516.173 865.781 517.86C866.126 517.95 866.47 518.041 866.815 518.132C872.85 519.721 879.046 521.352 889.503 522.699C895.219 523.435 903.233 526.25 909.705 528.815C912.965 530.108 915.878 531.356 917.975 532.28C919.024 532.742 919.87 533.124 920.454 533.391C920.747 533.524 920.974 533.629 921.128 533.7L921.305 533.782L921.306 533.783L946.128 542.884L925.404 505.513C925.384 505.492 925.361 505.469 925.336 505.444C925.2 505.305 924.999 505.1 924.738 504.838C924.216 504.313 923.457 503.558 922.512 502.644C920.621 500.814 917.989 498.349 915.027 495.806C912.061 493.26 908.783 490.653 905.597 488.528C902.383 486.385 899.378 484.812 896.941 484.222C885.858 481.538 877.57 477.099 869.471 472.49C868.714 472.059 867.958 471.626 867.202 471.194C859.868 466.996 852.509 462.784 843.033 459.56C826.634 453.979 815.581 451.182 801.736 447.678C797.733 446.665 793.496 445.592 788.829 444.376C787.007 443.902 785.227 443.441 783.483 442.989C765.374 438.295 751.045 434.582 731.822 426.841C721.511 422.688 708.289 420.132 697.574 418.617C692.231 417.861 687.539 417.368 684.183 417.064C682.506 416.912 681.164 416.807 680.242 416.74C679.782 416.707 679.426 416.683 679.187 416.668L679.081 416.661C679.012 416.656 678.957 416.653 678.916 416.651L678.895 416.649L650.427 417.676L650.357 417.679L650.288 417.675L615.266 415.679Z" fill="#3A5907" stroke="black" stroke-width="3"/>
<path d="M945.146 539.036C945.146 539.036 892.936 499.639 849.839 485.638C802.061 470.116 764.917 466.392 715.236 459.702C668.779 453.445 631.257 464.074 584.442 460.445C537.6 456.814 472.884 448.038 472.884 448.038" stroke="black" stroke-width="3"/>
<path d="M345.31 422.414L345.421 422.415L345.531 422.399L345.319 420.914C345.531 422.399 345.532 422.399 345.532 422.399L345.533 422.399L345.537 422.398L345.553 422.396L345.614 422.387C345.668 422.379 345.747 422.368 345.852 422.352C346.06 422.321 346.367 422.275 346.766 422.213C347.562 422.091 348.721 421.908 350.177 421.666C353.089 421.183 357.189 420.465 361.95 419.522C371.459 417.64 383.647 414.858 394.253 411.264C404.365 407.838 418.494 409.17 430.317 411.468C436.186 412.609 441.406 413.972 445.16 415.049C447.037 415.588 448.544 416.055 449.581 416.386C450.091 416.549 450.487 416.679 450.757 416.769L484.102 459.503L466.569 534.585C465.489 534.052 463.932 533.294 462 532.382C458.102 530.543 452.672 528.076 446.544 525.566C434.348 520.571 419.178 515.314 407.827 514.624C396.848 513.956 388.306 512.393 379.688 510.815L379.667 510.811C371.053 509.234 362.359 507.642 351.19 506.962C340.117 506.289 331.484 505.762 322.852 505.235L322.839 505.234L322.806 505.232C314.181 504.706 305.552 504.179 294.487 503.506C283.385 502.83 273.049 502.523 262.737 502.217L262.728 502.217C252.409 501.91 242.114 501.604 231.062 500.932C208.876 499.582 187.512 498.939 165.362 499.72C154.326 500.109 147.836 501.493 141.417 502.863L141.415 502.863C135.056 504.22 128.766 505.562 117.992 505.942C106.837 506.335 100.391 507.539 93.9956 508.824C93.6527 508.893 93.31 508.962 92.9669 509.031C86.9619 510.242 80.7991 511.485 70.4772 512.18C64.8242 512.56 56.8039 514.874 50.3164 517.032C47.0466 518.12 44.1208 519.184 42.0126 519.977C40.9581 520.373 40.1072 520.701 39.519 520.931C39.2249 521.046 38.9963 521.136 38.8408 521.198L38.6632 521.269L13.855 528.799L36.2739 492.793C36.2946 492.774 36.3175 492.753 36.3425 492.73C36.4832 492.6 36.6922 492.408 36.9626 492.162C37.5035 491.671 38.2899 490.965 39.2677 490.111C41.2244 488.403 43.9418 486.108 46.988 483.755C50.0379 481.399 53.3963 479.002 56.637 477.081C59.9075 475.142 62.9352 473.763 65.3476 473.327C76.3714 471.335 84.7507 467.418 92.949 463.321C93.7159 462.938 94.4808 462.554 95.2459 462.169C102.672 458.435 110.119 454.692 119.584 452.064C135.971 447.514 146.96 445.409 160.728 442.772C164.71 442.009 168.924 441.202 173.568 440.278C175.381 439.918 177.151 439.568 178.887 439.225C196.902 435.666 211.16 432.849 230.443 426.317C240.778 422.815 253.877 421.086 264.464 420.239C269.744 419.816 274.37 419.615 277.676 419.52C279.328 419.472 280.65 419.451 281.556 419.442C282.01 419.437 282.359 419.435 282.595 419.435C282.712 419.434 282.802 419.435 282.861 419.435L282.878 419.435L310.725 422.225L310.795 422.232L310.866 422.233L345.31 422.414Z" fill="#3A5907" stroke="black" stroke-width="3"/>
<path d="M15.0099 525.029C15.0099 525.029 68.4041 488.959 111.439 477.663C159.147 465.14 195.767 463.729 244.844 460.136C290.737 456.775 326.92 469.708 373.016 468.992C419.138 468.275 483.07 463.534 483.07 463.534" stroke="black" stroke-width="3"/>
<path d="M490.422 398.115L467.382 446.33C466.99 445.886 466.53 445.368 466.009 444.791C464.209 442.798 461.684 440.086 458.781 437.217C453.038 431.538 445.614 425.028 439.372 422.427C433.543 419.997 429.199 417.389 424.771 414.728L424.748 414.714C420.328 412.058 415.822 409.35 409.78 406.832C403.839 404.355 399.209 402.424 394.578 400.493L394.575 400.491C389.945 398.56 385.315 396.629 379.375 394.154C373.408 391.666 367.794 389.576 362.209 387.496L362.198 387.492C356.603 385.409 351.037 383.337 345.127 380.873C333.212 375.907 321.603 371.577 309.291 368.098C303.091 366.346 299.212 366.131 295.424 365.921L295.421 365.921C291.71 365.716 288.089 365.515 282.207 363.853C275.954 362.086 272.142 361.751 268.372 361.486C268.172 361.472 267.972 361.458 267.771 361.444C264.271 361.201 260.722 360.954 255.009 359.584C251.701 358.791 246.761 358.965 242.818 359.293C240.811 359.46 239 359.674 237.69 359.845C237.035 359.93 236.504 360.006 236.136 360.06C235.952 360.087 235.809 360.109 235.71 360.124L235.64 360.135L222.005 360.82L240.257 340.55C240.356 340.486 240.5 340.394 240.683 340.278C241.067 340.036 241.625 339.689 242.313 339.274C243.693 338.443 245.592 337.344 247.679 336.265C249.77 335.183 252.021 334.137 254.107 333.401C256.239 332.649 258.017 332.287 259.235 332.403C265.788 333.027 271.214 331.782 276.471 330.41C276.961 330.282 277.45 330.153 277.938 330.025C282.703 328.767 287.384 327.531 292.952 327.417C302.72 327.216 309.079 327.736 317.095 328.392C319.419 328.582 321.883 328.784 324.61 328.982C325.67 329.059 326.705 329.137 327.72 329.212C338.239 329.996 346.627 330.621 358.459 329.556C364.638 329 372.029 330.145 377.96 331.468C380.907 332.125 383.46 332.818 385.275 333.347C386.182 333.611 386.903 333.834 387.396 333.99C387.642 334.068 387.832 334.129 387.958 334.17C388 334.184 388.036 334.196 388.064 334.205L402.75 341.172L402.829 341.21L402.912 341.238L421.736 347.603L421.868 347.647L422.007 347.667L422.218 346.182C422.007 347.667 422.007 347.667 422.007 347.667L422.008 347.667L422.011 347.667L422.02 347.669L422.057 347.674L422.195 347.693C422.317 347.709 422.496 347.733 422.727 347.762C423.189 347.822 423.861 347.905 424.707 348.001C426.399 348.192 428.788 348.435 431.581 348.642C437.152 349.055 444.39 349.327 450.924 348.739C453.821 348.479 457.1 349.159 460.467 350.416C463.819 351.668 467.158 353.454 470.137 355.298C473.112 357.138 475.697 359.018 477.54 360.438C478.46 361.147 479.193 361.74 479.694 362.154C479.865 362.296 480.01 362.417 480.125 362.515L490.422 398.115Z" fill="#3A5907" stroke="black" stroke-width="3"/>
<path d="M224.016 358.771C224.016 358.771 259.916 343.314 285.564 343.24C313.998 343.157 334.308 348.807 361.84 355.193C387.587 361.164 405.006 376.728 430.375 384.578C455.758 392.432 491.636 400.709 491.636 400.709" stroke="black" stroke-width="3"/>
<path d="M498.898 376.21L458.414 416.101C457.764 415.336 456.831 414.25 455.666 412.924C453.286 410.214 449.936 406.5 446.056 402.481C438.333 394.479 428.385 385.136 419.774 380.188C411.436 375.396 405.328 371.013 399.167 366.59L399.153 366.58C392.994 362.159 386.78 357.699 378.304 352.829C369.894 347.996 363.339 344.228 356.783 340.459L356.669 340.394C350.152 336.647 343.623 332.894 335.262 328.09C326.835 323.248 318.873 318.942 310.929 314.646L310.922 314.642C302.972 310.342 295.04 306.053 286.649 301.231C269.808 291.554 253.354 282.649 235.772 274.328C227.017 270.184 221.452 268.475 215.943 266.783L215.942 266.782C210.481 265.105 205.077 263.445 196.517 259.394C187.666 255.205 182.2 253.399 176.742 251.663C176.449 251.57 176.156 251.477 175.863 251.384C170.733 249.757 165.465 248.085 157.146 244.412C152.603 242.407 145.51 240.673 139.66 239.45C136.713 238.833 134.043 238.339 132.11 237.999C131.143 237.828 130.36 237.697 129.817 237.607C129.546 237.563 129.335 237.529 129.191 237.506L129.027 237.479L129.024 237.479L107.848 232.561L137.177 219.37C137.192 219.368 137.209 219.365 137.226 219.362C137.383 219.337 137.615 219.299 137.915 219.252C138.514 219.158 139.383 219.027 140.455 218.879C142.6 218.583 145.552 218.22 148.781 217.952C152.013 217.683 155.502 217.511 158.728 217.592C161.98 217.673 164.852 218.01 166.908 218.7C176.229 221.829 184.185 222.698 192.073 223.383C192.811 223.447 193.548 223.509 194.285 223.572C201.436 224.177 208.612 224.785 216.963 226.899C231.414 230.558 240.763 233.607 252.473 237.427C255.859 238.531 259.443 239.7 263.404 240.966C264.951 241.461 266.46 241.945 267.939 242.42C283.3 247.349 295.453 251.249 312.875 254.81C322.225 256.721 333.091 260.848 341.67 264.529C345.948 266.365 349.636 268.08 352.253 269.336C353.562 269.964 354.602 270.476 355.314 270.831C355.67 271.009 355.944 271.147 356.129 271.241C356.221 271.287 356.29 271.323 356.337 271.346L356.353 271.355L377.098 284.194L377.148 284.225L377.201 284.252L404.041 298.072L404.122 298.114L404.208 298.146L404.727 296.738C404.208 298.146 404.208 298.146 404.209 298.146L404.21 298.146L404.213 298.148L404.226 298.152L404.277 298.171L404.475 298.243C404.649 298.307 404.906 298.4 405.239 298.52C405.905 298.759 406.876 299.105 408.101 299.533C410.549 300.387 414.012 301.566 418.07 302.867C426.178 305.467 436.702 308.564 446.284 310.523C455.445 312.395 466.014 318.867 474.414 325.016C478.586 328.069 482.171 331.004 484.713 333.176C485.983 334.261 486.992 335.154 487.681 335.775C487.997 336.059 488.245 336.286 488.421 336.448L498.898 376.21Z" fill="#3A5907" stroke="black" stroke-width="3"/>
<path d="M111.803 231.44C111.803 231.44 166.566 229.988 204.27 240.005C246.07 251.109 275.187 264.794 314.823 282.062C351.888 298.21 375.472 320.748 411.739 338.64C448.027 356.543 499.684 379 499.684 379" stroke="black" stroke-width="3"/>
<path d="M463.7 388.773L517.764 399.605C517.749 398.767 517.735 397.677 517.732 396.383C517.724 393.23 517.775 388.867 518.013 384.025C518.486 374.405 519.705 362.671 522.773 354.846C525.707 347.364 527.306 341.23 528.924 335.021L528.929 335.001C530.546 328.796 532.182 322.514 535.185 314.858C538.154 307.284 540.468 301.38 542.782 295.476C545.096 289.572 547.41 283.667 550.38 276.094C553.358 268.499 556.342 261.525 559.316 254.575L559.32 254.566C562.298 247.608 565.266 240.672 568.226 233.123C574.176 217.95 580.34 203.532 587.683 189.017C591.354 181.763 594.279 177.842 597.161 173.978L597.162 173.977C600.008 170.162 602.813 166.403 606.366 159.379C610.074 152.052 612.864 148.108 615.685 144.232C615.836 144.024 615.987 143.817 616.138 143.61C618.782 139.984 621.485 136.275 625.109 129.639C627.127 125.946 631.15 121.276 634.566 117.612C636.293 115.76 637.897 114.131 639.07 112.965C639.656 112.382 640.136 111.914 640.469 111.59C640.636 111.429 640.766 111.304 640.855 111.218L640.945 111.132L652.802 97.7294L623.388 101.635C623.384 101.637 623.38 101.638 623.376 101.64C623.248 101.694 623.059 101.775 622.815 101.88C622.327 102.091 621.624 102.401 620.764 102.792C619.043 103.577 616.705 104.689 614.228 106.002C611.748 107.316 609.153 108.82 606.91 110.384C604.639 111.968 602.845 113.535 601.855 114.951C597.117 121.731 591.925 126.152 586.701 130.376C586.213 130.771 585.725 131.163 585.237 131.556C580.493 135.373 575.766 139.175 571.148 144.65C563.12 154.167 558.361 160.829 552.388 169.191C550.659 171.611 548.829 174.173 546.788 176.988C545.993 178.086 545.217 179.158 544.457 180.21C536.568 191.121 530.311 199.777 520.058 210.654C514.606 216.439 509.452 224.599 505.638 231.38C503.738 234.758 502.184 237.769 501.105 239.935C500.566 241.017 500.145 241.888 499.861 242.487C499.719 242.786 499.61 243.017 499.538 243.172C499.503 243.247 499.477 243.304 499.459 243.343L492.721 262.692L492.698 262.758L492.669 262.821L482.178 285.79L482.132 285.89L482.073 285.982L480.813 285.168C482.073 285.982 482.073 285.982 482.073 285.982L482.072 285.983L482.07 285.986L482.064 285.996L482.039 286.034L481.942 286.182C481.916 286.223 481.885 286.269 481.851 286.321C481.775 286.437 481.681 286.58 481.569 286.75C481.242 287.244 480.764 287.961 480.156 288.858C478.939 290.652 477.201 293.167 475.113 296.054C470.943 301.818 465.348 309.102 459.701 315.093C454.408 320.709 450.949 330.423 448.819 338.975C447.765 343.209 447.054 347.082 446.607 349.896C446.384 351.302 446.227 352.442 446.126 353.228C446.085 353.546 446.054 353.805 446.03 354.001L463.7 388.773Z" fill="#3A5907" stroke="black" stroke-width="3"/>
<path d="M649.41 98.5854C649.41 98.5854 609.251 123.232 588.569 148.456C565.641 176.42 553.432 200.357 535.952 231.923C519.606 261.44 516.962 289.411 502.291 319.861C487.612 350.328 464.801 391.431 464.801 391.431" stroke="black" stroke-width="3"/>
<path d="M495.504 422.716L519.933 469.181C519.531 469.163 519.091 469.145 518.616 469.128C516.178 469.04 512.82 468.973 509.147 469.056C505.478 469.139 501.472 469.372 497.742 469.889C494.037 470.403 490.494 471.212 487.815 472.5C483.002 474.814 478.814 476.026 474.515 477.267L474.484 477.276C470.198 478.513 465.799 479.783 460.747 482.212C455.809 484.586 451.958 486.436 448.107 488.286L448.077 488.3C444.236 490.146 440.392 491.992 435.466 494.361C430.497 496.75 426.011 499.16 421.557 501.552L421.545 501.558C417.081 503.957 412.649 506.337 407.745 508.695C397.829 513.462 388.544 518.442 379.536 524.45C374.964 527.5 372.769 529.993 370.647 532.406L370.644 532.408C368.582 534.752 366.591 537.015 362.345 539.847C357.741 542.918 355.493 545.283 353.334 547.651C353.22 547.776 353.106 547.901 352.993 548.026C351.006 550.209 349.011 552.402 345.061 555.316C342.679 557.074 340.223 560.566 338.44 563.415C337.525 564.876 336.748 566.235 336.199 567.227C335.924 567.724 335.706 568.131 335.556 568.415C335.481 568.557 335.423 568.668 335.383 568.744L335.366 568.779L329.059 578.047L323.146 552.634C323.148 552.527 323.153 552.374 323.16 552.182C323.175 551.769 323.2 551.171 323.242 550.441C323.325 548.98 323.474 546.998 323.734 544.905C323.995 542.805 324.364 540.631 324.88 538.774C325.412 536.854 326.038 535.511 326.676 534.851C330.595 530.797 332.477 526.285 334.153 521.872C334.309 521.461 334.463 521.051 334.617 520.642C336.129 516.625 337.593 512.734 340.347 508.974C345.221 502.319 348.877 498.416 353.506 493.474C354.852 492.038 356.279 490.514 357.842 488.809C358.448 488.149 359.041 487.505 359.623 486.873C365.645 480.332 370.473 475.088 375.797 466.432C378.525 461.997 383.155 457.826 387.204 454.719C389.212 453.178 391.045 451.923 392.374 451.055C393.039 450.621 393.576 450.284 393.946 450.056C394.13 449.943 394.273 449.857 394.368 449.8C394.388 449.788 394.407 449.777 394.423 449.767L407.245 444.457L407.339 444.418L407.427 444.367L421.957 435.882L422.1 435.798L422.222 435.685L421.203 434.584C422.222 435.685 422.222 435.685 422.222 435.685L422.223 435.684L422.224 435.683L422.231 435.677L422.254 435.655L422.341 435.573C422.417 435.502 422.528 435.397 422.67 435.26C422.955 434.987 423.367 434.589 423.878 434.082C424.9 433.069 426.322 431.621 427.925 429.878C431.121 426.403 435.084 421.706 438.032 416.912C439.275 414.891 441.409 413.18 444.064 411.758C446.705 410.343 449.75 409.273 452.669 408.476C455.581 407.682 458.325 407.171 460.343 406.858C461.351 406.702 462.174 406.597 462.743 406.53C462.92 406.509 463.073 406.492 463.198 406.479L495.504 422.716Z" fill="#3A5907" stroke="black" stroke-width="3"/>
<path d="M328.415 575.586C328.415 575.586 335.257 541.496 348.44 524.259C363.054 505.149 377.811 495.204 396.851 480.896C414.657 467.517 435.418 465.943 454.449 454.035C473.491 442.121 498.27 423.447 498.27 423.447" stroke="black" stroke-width="3"/>
<path d="M548.174 512.346H523.796H473.226H422.655H398.668L373.818 340.872H572.638L548.174 512.346Z" fill="#0E0D0D" stroke="black" stroke-width="3"/>
<path d="M370.948 332.038C370.948 332.038 429.716 325.017 474.073 325.017C518.431 325.017 575.503 332.038 575.503 332.038L571.548 363.634C571.548 363.634 526.342 356.613 473.791 356.613C421.24 356.613 374.339 363.634 374.339 363.634L370.948 332.038Z" fill="black"/>
<path d="M516.574 152.276L516.48 152.574L516.513 152.885L518.488 171.665L512.559 190.458L512.465 190.756L512.498 191.067L514.473 209.847L508.545 228.64L508.451 228.938L508.483 229.248L510.458 248.029L504.53 266.822L504.436 267.12L504.469 267.43L506.459 286.365L504.538 304.634L473.842 326.925L443.146 304.634L441.225 286.365L443.216 267.43L443.248 267.12L443.154 266.822L437.226 248.029L439.201 229.248L439.233 228.938L439.14 228.64L433.211 209.847L435.186 191.067L435.219 190.756L435.125 190.458L429.196 171.665L431.171 152.885L431.204 152.574L431.11 152.276L425.182 133.483L427.156 114.703L427.189 114.392L427.095 114.095L421.167 95.3013L423.142 76.5207L423.174 76.2103L423.08 75.9126L417.152 57.1193L419.127 38.3388L419.16 38.0284L419.066 37.7307L413.174 19.0524L416.827 5.10443L441.831 1.49999H473.842H505.86L532.726 5.09603L534.541 18.9564L528.618 37.7307L528.525 38.0284L528.557 38.3388L530.532 57.1193L524.604 75.9126L524.51 76.2103L524.542 76.5207L526.517 95.3013L520.589 114.095L520.495 114.392L520.528 114.703L522.502 133.483L516.574 152.276Z" fill="#F80202" stroke="black" stroke-width="3"/>
<path d="M508.694 360.496C508.694 379.205 492.873 394.476 473.226 394.476C453.579 394.476 437.758 379.205 437.758 360.496C437.758 341.787 453.579 326.517 473.226 326.517C492.873 326.517 508.694 341.787 508.694 360.496Z" fill="#FCFCFC" stroke="black" stroke-width="3"/>
<path d="M496.371 360.496C496.371 372.674 486.067 382.65 473.226 382.65C460.384 382.65 450.081 372.674 450.081 360.496C450.081 348.319 460.384 338.343 473.226 338.343C486.067 338.343 496.371 348.319 496.371 360.496Z" fill="#F80202" stroke="black" stroke-width="3"/>
<path d="M484.049 360.496C484.049 366.142 479.262 370.823 473.226 370.823C467.19 370.823 462.403 366.142 462.403 360.496C462.403 354.851 467.19 350.17 473.226 350.17C479.262 350.17 484.049 354.851 484.049 360.496Z" fill="#0042A6" stroke="black" stroke-width="3"/>
<path d="M489.508 450.672L503.382 453.772L506.46 461.412L474.001 455.368L473.726 455.317L473.451 455.368L440.757 461.456L443.166 453.766L457.757 450.675L458.654 450.485L458.894 449.6L461.994 438.147L462.109 437.723L461.977 437.303L458.877 427.487L458.392 425.953L456.896 426.543L445.839 430.906L445.56 431.016L445.345 431.226L426.306 449.722L432.731 416.223L432.741 416.167L432.748 416.111L435.088 395.715L448.874 389.939L456.292 398.877L457.457 400.281L458.609 398.867L466.59 389.074L467.05 388.51L466.891 387.799L463.117 370.93L467.498 363.588L473.726 359.877L480.011 363.622L485.185 370.848L483.584 374.425L483.009 375.71L484.255 376.365L489.886 379.326L483.338 382.406L482.637 382.736L482.5 383.499L481.524 388.953L481.423 389.517L481.724 390.005L487.094 398.707L487.876 399.975L489.149 399.201L504.575 389.823L517.391 395.748L523.422 415.962L514.391 449.595L505.876 430.117L502.479 420.356L501.755 418.276L500.084 419.711L493.738 425.165L493.473 425.393L493.336 425.714L488.455 437.167L488.335 437.449V437.755V449.208V450.41L489.508 450.672Z" fill="#F1AA1F" stroke="black" stroke-width="3"/>
<path d="M578.314 354.9C578.261 372.445 577.225 389.64 572.03 405.664C566.661 422.227 558.798 437.256 548.903 449.901C539.008 462.545 527.28 472.55 514.402 479.367C501.527 486.182 487.746 489.68 473.842 489.68C459.938 489.68 446.157 486.182 433.282 479.367C420.404 472.55 408.676 462.545 398.781 449.901C388.886 437.256 381.023 422.227 375.654 405.664C370.465 389.658 370.006 372.489 369.985 354.9H381.796C382.029 361.932 383.837 370.021 386.076 377.873C387.788 383.88 389.78 389.837 391.553 395.137C392.265 397.267 392.942 399.291 393.551 401.169C397.212 412.466 402.45 418.947 408.634 426.599C409.856 428.111 411.115 429.669 412.407 431.32C412.623 431.596 412.841 431.874 413.059 432.154C416.816 436.958 420.827 442.086 425.117 446.696C429.655 451.573 434.579 455.951 439.961 458.8C449.652 463.93 460.451 463.863 470.569 463.801C471.669 463.794 472.76 463.787 473.842 463.787C474.932 463.787 476.021 463.794 477.11 463.801C487.048 463.863 496.901 463.925 506.582 458.8C517.239 453.16 527.379 441.413 535.277 431.32C536.392 429.895 537.477 428.539 538.53 427.223C544.888 419.278 550.095 412.77 553.856 401.17C554.312 399.763 554.801 398.276 555.312 396.726C557.186 391.036 559.343 384.486 561.165 377.86C563.325 370.006 565.051 361.923 565.273 354.9L578.314 354.9Z" fill="#FEF9F9" stroke="black" stroke-width="3"/>
<path d="M384.236 484.084C384.236 493.864 382.269 502.645 379.158 508.924C376.001 515.298 371.92 518.655 367.868 518.655C363.815 518.655 359.735 515.298 356.577 508.924C353.467 502.645 351.5 493.864 351.5 484.084C351.5 474.304 353.467 465.523 356.577 459.244C359.735 452.87 363.815 449.513 367.868 449.513C371.92 449.513 376.001 452.87 379.158 459.244C382.269 465.523 384.236 474.304 384.236 484.084Z" fill="white" stroke="black" stroke-width="3"/>
<line y1="-1.5" x2="55.5991" y2="-1.5" transform="matrix(-0.0221635 -0.999754 0.999792 -0.0204159 372.181 408.985)" stroke="black" stroke-width="3"/>
<line x1="580.165" y1="408.985" x2="580.165" y2="353.4" stroke="black" stroke-width="3"/>
<path d="M392.727 435.864C392.727 435.864 389.531 435.812 389.824 427.005C390.117 418.198 391.41 417.729 391.41 417.729C391.41 417.729 391.51 420.215 399.884 423.826C408.258 427.438 408.159 424.953 408.159 424.953" stroke="black" stroke-width="3"/>
<path d="M569.225 408.798C569.225 408.798 570.866 411.431 562.915 415.838C554.965 420.244 553.868 419.438 553.868 419.438C553.868 419.438 556.016 418.046 554.795 409.312C553.575 400.579 551.427 401.971 551.427 401.971" stroke="black" stroke-width="3"/>
<path d="M551.765 445.73C551.765 445.73 552.456 448.931 542.925 450.373C533.394 451.815 532.588 450.616 532.588 450.616C532.588 450.616 535.235 450.027 537.16 440.953C539.084 431.879 536.437 432.468 536.437 432.468" stroke="black" stroke-width="3"/>
<path d="M516.706 474.558C516.706 474.558 516.062 477.563 507.098 475.659C498.134 473.755 497.893 472.449 497.893 472.449C497.893 472.449 500.456 472.815 505.703 465.584C510.949 458.353 508.385 457.987 508.385 457.987" stroke="black" stroke-width="3"/>
<path d="M409.979 458.334C409.979 458.334 406.783 458.282 407.076 449.476C407.369 440.669 408.662 440.2 408.662 440.2C408.662 440.2 408.761 442.685 417.135 446.297C425.51 449.909 425.41 447.423 425.41 447.423" stroke="black" stroke-width="3"/>
<path d="M438.237 478.093C438.237 478.093 435.302 479.307 431.794 471.165C428.286 463.022 429.263 462.084 429.263 462.084C429.263 462.084 430.419 464.31 439.6 464.296C448.781 464.281 447.625 462.055 447.625 462.055" stroke="black" stroke-width="3"/>
<path d="M479.735 486.611C479.735 486.611 477.749 489.496 469.219 483.887C460.689 478.278 461.008 476.814 461.008 476.814C461.008 476.814 463.525 478.231 472.165 472.779C480.805 467.327 478.288 465.91 478.288 465.91" stroke="black" stroke-width="3"/>
<path d="M380.982 408.992C380.982 408.992 378.306 408.204 379.614 400.039C380.922 391.873 382.064 391.733 382.064 391.733C382.064 391.733 381.847 394.08 388.439 399.393C395.031 404.707 395.247 402.36 395.247 402.36" stroke="black" stroke-width="3"/>
<line y1="-1.5" x2="43.0158" y2="-1.5" transform="matrix(-0.350381 -0.935161 0.770672 -0.640144 375.547 502.444)" stroke="black" stroke-width="3"/>
<line y1="-1.5" x2="41.5084" y2="-1.5" transform="matrix(-0.450653 0.894256 -0.690739 -0.720519 377.343 464.586)" stroke="black" stroke-width="3"/>
<line y1="-1.5" x2="21.5092" y2="-1.5" transform="matrix(-0.436651 0.901132 -0.705936 -0.705645 376.484 482.692)" stroke="black" stroke-width="3"/>
<line y1="-1.5" x2="20.7542" y2="-1.5" transform="matrix(-0.450653 0.894256 -0.690739 -0.720519 368.889 464.216)" stroke="black" stroke-width="3"/>
<path d="M377.607 535.655L386.284 560.195H368.142H350L359.74 535.655" stroke="black" stroke-width="3"/>
<path d="M378.946 539.515C380.099 537.741 380.74 535.705 380.805 533.616C380.87 531.527 380.355 529.46 379.313 527.624C378.272 525.789 376.741 524.251 374.877 523.168C373.013 522.085 370.882 521.496 368.701 521.46C366.521 521.424 364.369 521.943 362.466 522.964C360.562 523.984 358.975 525.47 357.865 527.27C356.756 529.07 356.164 531.119 356.151 533.209C356.137 535.299 356.702 537.354 357.788 539.166" stroke="black" stroke-width="3"/>
<path d="M377.607 535.655L386.284 560.195H368.142H350L359.74 535.655" stroke="black" stroke-width="3"/>
<path d="M378.946 539.515C380.099 537.741 380.74 535.705 380.805 533.616C380.87 531.527 380.355 529.46 379.313 527.624C378.272 525.789 376.741 524.251 374.877 523.168C373.013 522.085 370.882 521.496 368.701 521.46C366.521 521.424 364.369 521.943 362.466 522.964C360.562 523.984 358.975 525.47 357.865 527.27C356.756 529.07 356.164 531.119 356.151 533.209C356.137 535.299 356.702 537.354 357.788 539.166" stroke="black" stroke-width="3"/>
<path d="M368.291 525.667L378.316 539.444L385 559H368.291H352L359.101 539.444L368.291 525.667Z" fill="white"/>
<ellipse cx="368.709" cy="533.667" rx="10.443" ry="10.6667" fill="white"/>
<line y1="-1.5" x2="21.851" y2="-1.5" transform="matrix(-0.225575 0.974226 -0.978004 -0.208586 362.929 540)" stroke="black" stroke-width="3"/>
<line x1="371.804" y1="539.768" x2="375.14" y2="561.043" stroke="black" stroke-width="3"/>
<path d="M378.607 424.655L387.284 449.195H369.142H351L360.74 424.655" stroke="black" stroke-width="3"/>
<path d="M379.946 428.515C381.099 426.741 381.74 424.705 381.805 422.616C381.87 420.527 381.355 418.46 380.313 416.624C379.272 414.789 377.741 413.251 375.877 412.168C374.013 411.085 371.882 410.496 369.701 410.46C367.521 410.424 365.369 410.943 363.466 411.964C361.562 412.984 359.975 414.47 358.865 416.27C357.756 418.07 357.164 420.119 357.151 422.209C357.137 424.299 357.702 426.354 358.788 428.166" stroke="black" stroke-width="3"/>
<path d="M378.607 424.655L387.284 449.195H369.142H351L360.74 424.655" stroke="black" stroke-width="3"/>
<path d="M379.946 428.515C381.099 426.741 381.74 424.705 381.805 422.616C381.87 420.527 381.355 418.46 380.313 416.624C379.272 414.789 377.741 413.251 375.877 412.168C374.013 411.085 371.882 410.496 369.701 410.46C367.521 410.424 365.369 410.943 363.466 411.964C361.562 412.984 359.975 414.47 358.865 416.27C357.756 418.07 357.164 420.119 357.151 422.209C357.137 424.299 357.702 426.354 358.788 428.166" stroke="black" stroke-width="3"/>
<path d="M369.291 414.667L379.316 428.444L386 448H369.291H353L360.101 428.444L369.291 414.667Z" fill="white"/>
<ellipse cx="369.709" cy="422.667" rx="10.443" ry="10.6667" fill="white"/>
<line y1="-1.5" x2="21.851" y2="-1.5" transform="matrix(-0.225575 0.974226 -0.978004 -0.208586 363.929 429)" stroke="black" stroke-width="3"/>
<line x1="372.804" y1="428.768" x2="376.14" y2="450.043" stroke="black" stroke-width="3"/>
<path d="M589.607 421.655L598.284 446.195H580.142H562L571.74 421.655" stroke="black" stroke-width="3"/>
<path d="M590.946 425.515C592.099 423.741 592.74 421.705 592.805 419.616C592.87 417.527 592.355 415.46 591.313 413.624C590.272 411.789 588.741 410.251 586.877 409.168C585.013 408.085 582.882 407.496 580.701 407.46C578.521 407.424 576.369 407.943 574.466 408.964C572.562 409.984 570.975 411.47 569.865 413.27C568.756 415.07 568.164 417.119 568.151 419.209C568.137 421.299 568.702 423.354 569.788 425.166" stroke="black" stroke-width="3"/>
<path d="M589.607 421.655L598.284 446.195H580.142H562L571.74 421.655" stroke="black" stroke-width="3"/>
<path d="M590.946 425.515C592.099 423.741 592.74 421.705 592.805 419.616C592.87 417.527 592.355 415.46 591.313 413.624C590.272 411.789 588.741 410.251 586.877 409.168C585.013 408.085 582.882 407.496 580.701 407.46C578.521 407.424 576.369 407.943 574.466 408.964C572.562 409.984 570.975 411.47 569.865 413.27C568.756 415.07 568.164 417.119 568.151 419.209C568.137 421.299 568.702 423.354 569.788 425.166" stroke="black" stroke-width="3"/>
<path d="M580.291 411.667L590.316 425.444L597 445H580.291H564L571.101 425.444L580.291 411.667Z" fill="white"/>
<ellipse cx="580.709" cy="419.667" rx="10.443" ry="10.6667" fill="white"/>
<line y1="-1.5" x2="21.851" y2="-1.5" transform="matrix(-0.225575 0.974226 -0.978004 -0.208586 574.929 426)" stroke="black" stroke-width="3"/>
<line x1="583.804" y1="425.768" x2="587.14" y2="447.043" stroke="black" stroke-width="3"/>
</svg>
