<svg width="1413" height="666" viewBox="0 0 1413 666" fill="none" xmlns="http://www.w3.org/2000/svg">
<path d="M383.082 438.27L383.192 438.285L383.303 438.284L383.285 436.784C383.303 438.284 383.303 438.284 383.303 438.284L383.304 438.284L383.307 438.284L383.319 438.284L383.364 438.283L383.539 438.28C383.693 438.278 383.919 438.273 384.212 438.267C384.797 438.254 385.649 438.232 386.721 438.196C388.863 438.123 391.884 437.994 395.401 437.767C402.423 437.313 411.469 436.464 419.461 434.882C426.941 433.401 436.885 435.652 445.163 438.411C449.261 439.776 452.874 441.24 455.464 442.363C456.758 442.923 457.794 443.398 458.505 443.732C458.789 443.866 459.022 443.977 459.198 444.061L478.971 477.555L459.526 529.054C458.837 528.598 457.94 528.011 456.873 527.326C454.24 525.638 450.562 523.355 446.386 520.974C438.088 516.244 427.625 511.016 419.456 509.438C411.651 507.93 405.678 506.012 399.63 504.07L399.61 504.063C393.567 502.122 387.447 500.156 379.456 498.613C371.574 497.09 365.426 495.901 359.282 494.713L359.235 494.704C353.075 493.513 346.915 492.322 339.013 490.795C331.088 489.264 323.68 488.07 316.296 486.88L316.287 486.878C308.895 485.687 301.528 484.499 293.652 482.978C277.82 479.92 262.506 477.445 246.489 475.917C238.482 475.153 233.657 475.537 228.904 475.915L228.902 475.915C224.21 476.288 219.588 476.656 211.841 475.917C203.753 475.146 198.981 475.403 194.249 475.723C193.996 475.74 193.743 475.757 193.49 475.774C189.062 476.077 184.536 476.386 177.075 475.913C172.917 475.65 166.884 476.564 162.018 477.5C159.558 477.973 157.348 478.462 155.754 478.832C154.956 479.017 154.312 479.173 153.866 479.283C153.642 479.338 153.469 479.381 153.351 479.411L153.232 479.441L135.788 482.32L154.569 459.518C154.573 459.516 154.576 459.514 154.579 459.512C154.692 459.432 154.859 459.315 155.076 459.165C155.509 458.865 156.139 458.435 156.92 457.917C158.484 456.88 160.647 455.495 163.051 454.1C165.458 452.703 168.083 451.31 170.574 450.247C173.096 449.17 175.349 448.49 177.05 448.409C185.225 448.016 191.666 445.98 197.955 443.813C198.543 443.61 199.129 443.407 199.714 443.204C205.409 441.226 211.081 439.256 218.093 438.269C230.287 436.553 238.369 436.08 248.514 435.486C251.45 435.314 254.56 435.132 257.992 434.907C259.329 434.819 260.636 434.735 261.916 434.653C275.205 433.798 285.748 433.12 300.257 430.247C307.968 428.72 317.509 428.712 325.193 429.101C329.02 429.295 332.358 429.586 334.739 429.828C335.929 429.949 336.879 430.058 337.529 430.137C337.854 430.176 338.105 430.208 338.273 430.229C338.312 430.234 338.346 430.239 338.376 430.242C338.407 430.247 338.434 430.25 338.456 430.253L358.194 434.871L358.263 434.887L358.333 434.897L383.082 438.27Z" fill="#3A5907" stroke="black" stroke-width="3"/>
<path d="M138.278 479.91C138.278 479.91 180.076 459.081 212.086 455.037C247.571 450.552 274.036 452.989 309.662 455.035C342.977 456.948 367.772 469.626 400.983 473.454C434.213 477.283 480.629 479.905 480.629 479.905" stroke="black" stroke-width="3"/>
<path d="M444.513 324.519L444.591 324.596L444.679 324.661L445.571 323.455C444.679 324.661 444.679 324.661 444.679 324.661L444.68 324.661L444.682 324.663L444.692 324.671L444.729 324.698L444.872 324.803C444.998 324.895 445.183 325.03 445.424 325.205C445.905 325.554 446.608 326.059 447.497 326.688C449.274 327.945 451.796 329.696 454.779 331.673C460.734 335.621 468.566 340.496 475.986 344.139C482.946 347.556 489.638 355.462 494.669 362.741C497.16 366.345 499.2 369.73 500.618 372.215C501.326 373.456 501.877 374.471 502.251 375.173C502.402 375.458 502.524 375.691 502.616 375.867L498.376 414.683L451.503 443.789C451.22 442.996 450.844 441.964 450.386 440.743C449.275 437.782 447.68 433.705 445.739 429.246C441.883 420.384 436.578 409.801 430.927 403.536C425.52 397.542 421.844 392.346 418.125 387.086L418.113 387.07C414.396 381.813 410.633 376.492 405.101 370.36C399.632 364.296 395.369 359.568 391.106 354.84L391.1 354.834L391.075 354.806C386.819 350.086 382.56 345.363 377.099 339.308C371.612 333.225 366.34 327.727 361.084 322.247L361.078 322.24C355.816 316.754 350.573 311.285 345.118 305.239C334.156 293.085 323.261 281.715 311.224 270.668C305.209 265.148 301.076 262.494 297.002 259.878L297.001 259.877C292.977 257.294 289.013 254.748 283.188 249.402C277.112 243.826 273.097 241.103 269.076 238.454C268.861 238.312 268.646 238.171 268.431 238.029C264.665 235.552 260.813 233.019 255.059 228.061C251.858 225.303 246.43 222.331 241.926 220.09C239.649 218.957 237.567 217.991 236.053 217.307C235.296 216.965 234.681 216.694 234.253 216.508C234.04 216.414 233.873 216.343 233.759 216.294L233.644 216.244L217.761 207.817L246.734 201.178C246.739 201.179 246.743 201.179 246.748 201.179C246.887 201.185 247.094 201.194 247.36 201.208C247.892 201.235 248.662 201.279 249.607 201.345C251.499 201.479 254.088 201.703 256.876 202.067C259.669 202.432 262.637 202.934 265.296 203.616C267.988 204.306 270.228 205.149 271.661 206.133C278.508 210.834 284.945 213.163 291.344 215.297C291.941 215.496 292.539 215.693 293.136 215.891C298.939 217.81 304.722 219.723 310.996 223.243C321.903 229.362 328.73 233.946 337.299 239.7C339.779 241.366 342.404 243.129 345.317 245.055C346.452 245.807 347.56 246.541 348.646 247.262C359.916 254.737 368.855 260.666 382.328 267.281C389.496 270.8 397.225 276.653 403.208 281.68C406.189 284.184 408.715 286.465 410.495 288.12C411.385 288.947 412.088 289.617 412.567 290.079C412.807 290.31 412.991 290.489 413.114 290.609C413.145 290.64 413.173 290.667 413.196 290.69C413.217 290.711 413.234 290.728 413.249 290.742L426.432 306.538L426.476 306.592L426.526 306.641L444.513 324.519Z" fill="#3A5907" stroke="black" stroke-width="3"/>
<path d="M221.252 207.435C221.252 207.435 267.662 216.495 296.008 232.919C327.433 251.126 347.374 269.311 374.966 292.808C400.768 314.78 413.17 340.1 437.731 363.534C462.306 386.981 498.281 417.559 498.281 417.559" stroke="black" stroke-width="3"/>
<path d="M582.858 438.423L582.752 438.437L582.646 438.436L582.665 436.936C582.646 438.436 582.645 438.436 582.645 438.436L582.644 438.436L582.641 438.436L582.629 438.435L582.582 438.435L582.4 438.432C582.332 438.43 582.251 438.429 582.156 438.427C582.028 438.425 581.875 438.421 581.7 438.417C581.09 438.403 580.203 438.38 579.087 438.342C576.855 438.267 573.709 438.133 570.047 437.9C562.733 437.435 553.314 436.573 544.997 434.98C537.17 433.48 526.779 435.726 518.149 438.472C513.874 439.832 510.103 441.291 507.402 442.411C506.052 442.97 504.97 443.443 504.229 443.776C503.923 443.913 503.675 444.027 503.49 444.112L482.843 477.562L503.043 529.134C503.774 528.671 504.744 528.063 505.908 527.349C508.654 525.665 512.488 523.388 516.842 521.015C525.496 516.297 536.394 511.093 544.889 509.531C553.031 508.034 559.263 506.124 565.568 504.191L565.587 504.185C571.888 502.253 578.263 500.298 586.584 498.768C594.8 497.258 601.209 496.078 607.613 494.9L607.66 494.891L607.695 494.885C614.104 493.705 620.516 492.525 628.737 491.014C636.995 489.496 644.715 488.313 652.411 487.135L652.42 487.133C660.123 485.953 667.803 484.777 676.014 483.267C692.514 480.234 708.47 477.784 725.157 476.282C733.491 475.531 738.51 475.922 743.459 476.307L743.461 476.307C748.352 476.688 753.175 477.063 761.259 476.336C769.679 475.578 774.644 475.842 779.571 476.169C779.834 476.186 780.098 476.204 780.361 476.222C784.976 476.531 789.699 476.848 797.481 476.386C801.797 476.131 808.067 477.051 813.138 477.995C815.698 478.471 817.999 478.963 819.658 479.336C820.488 479.522 821.159 479.679 821.624 479.789C821.856 479.844 822.036 479.888 822.159 479.918L822.287 479.949L840.541 482.869L821.014 460.047C821.009 460.043 821.004 460.04 820.999 460.036C820.881 459.957 820.707 459.839 820.481 459.689C820.03 459.388 819.374 458.956 818.56 458.437C816.932 457.397 814.678 456.008 812.174 454.608C809.666 453.207 806.929 451.808 804.331 450.739C801.703 449.658 799.341 448.968 797.546 448.882C789.047 448.477 782.352 446.437 775.803 444.26C775.191 444.056 774.581 443.852 773.971 443.647C768.041 441.661 762.124 439.679 754.807 438.68C742.098 436.944 733.672 436.458 723.101 435.848C720.042 435.672 716.804 435.485 713.23 435.255C711.836 435.165 710.475 435.079 709.141 434.994C695.295 434.119 684.318 433.425 669.212 430.531C661.165 428.989 651.211 428.966 643.201 429.344C639.211 429.532 635.729 429.818 633.247 430.056C632.006 430.176 631.016 430.283 630.337 430.361C629.998 430.4 629.736 430.431 629.561 430.452C629.526 430.456 629.495 430.46 629.467 430.464C629.425 430.469 629.391 430.473 629.364 430.476C629.364 430.477 629.363 430.477 629.363 430.477L608.784 435.065L608.718 435.08L608.65 435.088L582.858 438.423Z" fill="#3A5907" stroke="black" stroke-width="3"/>
<path d="M840.315 480.854C840.315 480.854 796.793 459.959 763.445 455.864C726.477 451.324 698.898 453.719 661.773 455.709C627.056 457.57 601.201 470.209 566.59 473.984C531.959 477.762 483.59 480.311 483.59 480.311" stroke="black" stroke-width="3"/>
<path d="M475.282 439.477L503.397 488.87C504.231 488.311 505.424 487.519 506.906 486.56C509.933 484.599 514.166 481.935 518.992 479.122C528.6 473.521 540.713 467.233 550.344 464.811C559.67 462.467 566.74 459.908 573.871 457.327L573.887 457.321C581.016 454.741 588.208 452.138 597.688 449.754C607.091 447.39 614.422 445.546 621.752 443.702L621.761 443.7C629.094 441.855 636.427 440.011 645.834 437.646C655.259 435.276 664.092 433.297 672.904 431.322L672.913 431.32C681.732 429.343 690.531 427.371 699.916 425.012C718.754 420.276 737.008 416.179 756.19 412.95C765.741 411.342 771.561 411.209 777.323 411.078L777.324 411.078C783.035 410.948 788.686 410.82 798.026 409.247C807.681 407.622 813.432 407.37 819.157 407.183C819.464 407.173 819.771 407.163 820.078 407.153C825.458 406.981 830.982 406.804 839.986 405.531C844.902 404.836 852.2 405.095 858.162 405.508C861.166 405.716 863.869 405.966 865.822 406.164C866.799 406.263 867.588 406.349 868.135 406.41C868.408 406.441 868.62 406.466 868.765 406.483L868.93 406.502L868.932 406.502L890.648 407.525L866.009 386.86C865.995 386.853 865.98 386.846 865.964 386.838C865.82 386.771 865.607 386.672 865.331 386.545C864.78 386.292 863.979 385.93 862.988 385.496C861.004 384.628 858.263 383.477 855.228 382.341C852.19 381.203 848.879 380.09 845.753 379.291C842.602 378.485 839.747 378.028 837.581 378.133C827.76 378.612 819.868 377.285 812.09 375.8C811.363 375.661 810.637 375.521 809.91 375.381C802.864 374.02 795.793 372.654 787.182 372.419C772.281 372.012 762.455 372.405 750.148 372.898C746.589 373.04 742.823 373.191 738.667 373.333C737.044 373.389 735.46 373.445 733.907 373.499C717.785 374.068 705.03 374.518 687.296 373.209C677.779 372.507 666.201 373.526 656.944 374.736C652.328 375.34 648.313 375.988 645.453 376.485C644.023 376.734 642.882 376.944 642.1 377.092C641.71 377.167 641.408 377.225 641.206 377.265C641.104 377.285 641.028 377.3 640.977 377.31L640.958 377.314L617.505 384.031L617.448 384.047L617.391 384.059L587.805 390.064L587.715 390.082L587.624 390.089L587.507 388.594C587.624 390.089 587.624 390.089 587.623 390.089L587.622 390.089L587.619 390.089L587.605 390.09L587.551 390.095L587.341 390.11C587.156 390.124 586.884 390.144 586.531 390.169C585.824 390.218 584.796 390.287 583.501 390.366C580.912 390.522 577.26 390.716 573 390.865C564.491 391.163 553.522 391.283 543.769 390.564C534.444 389.876 522.513 393.231 512.759 396.865C507.914 398.67 503.666 400.52 500.63 401.919C499.112 402.618 497.899 403.203 497.067 403.613C496.686 403.801 496.385 403.952 496.172 404.059L475.282 439.477Z" fill="#3A5907" stroke="black" stroke-width="3"/>
<path d="M889.99 405.527C889.99 405.527 837.683 389.245 798.676 388.636C755.433 387.961 723.693 393.216 680.856 399.06C640.797 404.526 611.976 419.804 572.212 427.165C532.424 434.53 476.609 442.101 476.609 442.101" stroke="black" stroke-width="3"/>
<path d="M572.253 333.497L572.14 333.535L572.023 333.555L571.768 332.077C572.023 333.555 572.023 333.555 572.022 333.556L572.021 333.556L572.018 333.556L572.007 333.558L571.966 333.565L571.805 333.592C571.664 333.615 571.456 333.65 571.187 333.693C570.649 333.779 569.866 333.902 568.88 334.047C566.908 334.339 564.124 334.723 560.868 335.094C554.368 335.835 545.94 336.531 538.34 336.326C531.3 336.136 522.671 340.002 515.612 344.114C512.124 346.147 509.094 348.194 506.936 349.733C505.857 350.503 504.999 351.144 504.412 351.591C504.188 351.762 504.004 351.904 503.862 352.014L491.888 388.318L518.974 435.593C519.5 435.051 520.162 434.375 520.94 433.594C523.038 431.488 525.983 428.619 529.367 425.57C536.082 419.52 544.705 412.591 551.912 409.644C558.754 406.848 563.851 403.958 569.021 401.025L569.041 401.014C574.206 398.084 579.447 395.111 586.475 392.238C593.415 389.401 598.824 387.189 604.233 384.976C609.642 382.764 615.052 380.551 621.991 377.714C628.954 374.868 635.505 372.44 642.032 370.022L642.041 370.019C648.576 367.597 655.085 365.185 661.998 362.359C675.906 356.674 689.449 351.649 703.809 347.436C711.002 345.326 715.493 344.886 719.907 344.454L719.91 344.454C724.259 344.028 728.531 343.61 735.454 341.579C742.716 339.449 747.135 338.893 751.521 338.407C751.755 338.381 751.989 338.355 752.224 338.329C756.32 337.878 760.499 337.418 767.213 335.696C770.994 334.727 776.695 334.607 781.309 334.705C783.645 334.754 785.755 334.861 787.28 334.956C788.043 335.003 788.661 335.048 789.09 335.08C789.304 335.096 789.471 335.11 789.584 335.119L789.689 335.128L806.001 335.011L784.682 315.751C784.682 315.751 784.682 315.75 784.681 315.75C784.564 315.691 784.39 315.605 784.166 315.494C783.716 315.273 783.063 314.956 782.256 314.579C780.64 313.824 778.415 312.829 775.969 311.865C773.518 310.9 770.873 309.976 768.414 309.354C765.918 308.723 763.765 308.443 762.235 308.645C754.665 309.645 748.388 308.728 742.247 307.659C741.674 307.559 741.102 307.458 740.531 307.357C734.967 306.375 729.447 305.4 722.885 305.615C711.444 305.989 703.987 306.889 694.615 308.019C691.901 308.347 689.026 308.694 685.848 309.053C684.61 309.193 683.401 309.331 682.216 309.466C669.924 310.872 660.158 311.989 646.37 311.617C639.076 311.42 630.381 313.019 623.439 314.7C619.983 315.536 616.991 316.386 614.863 317.026C613.8 317.345 612.954 317.613 612.375 317.799C612.086 317.893 611.863 317.966 611.714 318.016L611.647 318.038C611.613 318.049 611.585 318.059 611.562 318.066L594.384 325.94L594.315 325.971L594.243 325.996L572.253 333.497Z" fill="#3A5907" stroke="black" stroke-width="3"/>
<path d="M805.586 333.071C805.586 333.071 763.62 319.655 733.648 321.088C700.422 322.677 676.694 329.546 644.528 337.58C614.448 345.092 594.109 361.75 564.473 371.127C534.819 380.51 492.902 390.933 492.902 390.933" stroke="black" stroke-width="3"/>
<path d="M615.266 463.679L615.156 463.673L615.049 463.651L615.08 463.502C615.049 463.651 615.049 463.651 615.049 463.651L615.048 463.651L615.044 463.65L615.028 463.647L614.966 463.634C614.912 463.623 614.832 463.606 614.727 463.584C614.517 463.54 614.207 463.474 613.806 463.388C613.004 463.215 611.836 462.959 610.37 462.626C607.439 461.959 603.312 460.983 598.528 459.741C588.97 457.261 576.744 453.712 566.171 449.454C556.074 445.388 541.623 445.827 529.473 447.375C523.441 448.144 518.054 449.175 514.176 450.014C512.237 450.433 510.678 450.804 509.605 451.069C509.072 451.201 508.659 451.307 508.38 451.38L472.041 491.945L485.566 568.057C485.572 568.054 485.578 568.052 485.584 568.049C486.714 567.584 488.351 566.921 490.385 566.126C494.452 564.536 500.113 562.415 506.485 560.296C519.169 556.078 534.884 551.79 546.453 551.817C557.655 551.844 566.43 550.823 575.281 549.792L575.301 549.789C584.149 548.759 593.075 547.719 604.464 547.746C615.741 547.773 624.537 547.792 633.328 547.812L633.382 547.812L633.42 547.812C642.216 547.831 651.016 547.851 662.3 547.878C673.623 547.905 684.147 548.252 694.646 548.597L694.655 548.598C705.163 548.944 715.645 549.289 726.919 549.316C749.548 549.37 771.299 550.079 793.768 552.258C804.959 553.344 811.473 555.136 817.918 556.909L817.92 556.909C824.308 558.667 830.628 560.406 841.563 561.466C852.875 562.564 859.355 564.173 865.781 565.86C866.126 565.95 866.47 566.041 866.815 566.132C872.85 567.721 879.046 569.352 889.503 570.699C895.219 571.435 903.233 574.25 909.705 576.815C912.965 578.108 915.878 579.356 917.975 580.28C919.024 580.742 919.87 581.124 920.454 581.391C920.747 581.524 920.974 581.629 921.128 581.7L921.305 581.782L921.306 581.783L946.128 590.884L925.404 553.513C925.384 553.492 925.361 553.469 925.336 553.444C925.2 553.305 924.999 553.1 924.738 552.837C924.216 552.313 923.457 551.558 922.512 550.643C920.621 548.814 917.989 546.349 915.027 543.806C912.061 541.26 908.783 538.653 905.597 536.528C902.383 534.385 899.378 532.812 896.941 532.222C885.858 529.538 877.57 525.099 869.471 520.49C868.714 520.059 867.958 519.626 867.202 519.194C859.868 514.996 852.509 510.784 843.033 507.56C826.634 501.979 815.581 499.182 801.736 495.678C797.733 494.664 793.496 493.592 788.829 492.376C787.007 491.902 785.227 491.44 783.483 490.988C765.374 486.295 751.045 482.582 731.822 474.84C721.511 470.688 708.289 468.132 697.574 466.617C692.231 465.861 687.539 465.368 684.183 465.064C682.506 464.912 681.164 464.807 680.242 464.74C679.782 464.707 679.426 464.683 679.187 464.668L679.081 464.661C679.012 464.656 678.957 464.653 678.916 464.651L678.895 464.649L650.427 465.676L650.357 465.679L650.288 465.675L615.266 463.679Z" fill="#3A5907" stroke="black" stroke-width="3"/>
<path d="M945.146 587.036C945.146 587.036 892.936 547.639 849.839 533.638C802.061 518.116 764.917 514.392 715.236 507.702C668.779 501.445 631.257 512.074 584.442 508.445C537.6 504.814 472.884 496.038 472.884 496.038" stroke="black" stroke-width="3"/>
<path d="M345.31 470.414L345.421 470.415L345.531 470.399L345.319 468.914C345.531 470.399 345.532 470.399 345.532 470.399L345.533 470.399L345.537 470.398L345.553 470.396L345.614 470.387C345.668 470.379 345.747 470.367 345.852 470.352C346.06 470.321 346.367 470.275 346.766 470.213C347.562 470.091 348.721 469.908 350.177 469.666C353.089 469.183 357.189 468.464 361.95 467.522C371.459 465.64 383.647 462.858 394.253 459.264C404.365 455.838 418.494 457.17 430.317 459.468C436.185 460.609 441.406 461.972 445.16 463.049C447.037 463.588 448.544 464.054 449.581 464.386C450.091 464.549 450.487 464.679 450.757 464.769L484.102 507.503L466.569 582.585C465.489 582.052 463.932 581.294 462 580.382C458.102 578.543 452.672 576.076 446.544 573.566C434.348 568.571 419.178 563.314 407.827 562.624C396.848 561.955 388.306 560.393 379.688 558.815L379.667 558.811C371.053 557.234 362.359 555.642 351.19 554.962C340.117 554.289 331.484 553.762 322.852 553.235L322.839 553.234L322.806 553.232C314.181 552.705 305.552 552.179 294.487 551.505C283.385 550.83 273.049 550.523 262.737 550.217L262.728 550.216C252.409 549.91 242.114 549.604 231.062 548.932C208.876 547.582 187.512 546.939 165.362 547.72C154.326 548.109 147.836 549.493 141.417 550.863L141.415 550.863C135.056 552.22 128.766 553.562 117.992 553.942C106.837 554.335 100.391 555.539 93.9955 556.824C93.6527 556.893 93.31 556.962 92.9669 557.031C86.9618 558.242 80.7991 559.485 70.4772 560.18C64.8242 560.56 56.8038 562.873 50.3164 565.032C47.0466 566.12 44.1208 567.184 42.0125 567.976C40.9581 568.373 40.1072 568.701 39.519 568.931C39.2248 569.046 38.9963 569.136 38.8408 569.198L38.6631 569.269L13.8549 576.799L36.2739 540.793C36.2946 540.774 36.3174 540.753 36.3424 540.729C36.4832 540.6 36.6921 540.408 36.9626 540.162C37.5035 539.671 38.2898 538.965 39.2676 538.111C41.2243 536.403 43.9417 534.108 46.988 531.755C50.0378 529.399 53.3962 527.002 56.637 525.081C59.9074 523.142 62.9352 521.763 65.3476 521.327C76.3714 519.335 84.7507 515.418 92.949 511.321C93.7159 510.938 94.4808 510.554 95.2459 510.169C102.672 506.435 110.119 502.691 119.584 500.064C135.971 495.514 146.96 493.409 160.728 490.772C164.71 490.009 168.924 489.202 173.568 488.278C175.381 487.918 177.151 487.568 178.887 487.225C196.902 483.666 211.16 480.849 230.443 474.316C240.778 470.815 253.877 469.086 264.464 468.239C269.744 467.816 274.37 467.615 277.676 467.52C279.328 467.472 280.65 467.451 281.556 467.442C282.01 467.437 282.359 467.435 282.595 467.435C282.712 467.434 282.802 467.434 282.861 467.435L282.878 467.435L310.725 470.225L310.795 470.232L310.866 470.233L345.31 470.414Z" fill="#3A5907" stroke="black" stroke-width="3"/>
<path d="M15.0099 573.029C15.0099 573.029 68.4041 536.958 111.439 525.663C159.147 513.14 195.767 511.729 244.844 508.135C290.737 504.775 326.92 517.708 373.016 516.992C419.138 516.275 483.07 511.534 483.07 511.534" stroke="black" stroke-width="3"/>
<path d="M490.422 446.115L467.382 494.33C466.99 493.886 466.53 493.368 466.009 492.791C464.209 490.798 461.683 488.086 458.781 485.217C453.038 479.538 445.614 473.028 439.372 470.427C433.543 467.997 429.199 465.389 424.771 462.728L424.748 462.714C420.328 460.058 415.822 457.35 409.78 454.832C403.839 452.355 399.209 450.424 394.578 448.493L394.574 448.491C389.945 446.56 385.315 444.629 379.375 442.154C373.408 439.666 367.794 437.576 362.209 435.496L362.198 435.492C356.603 433.409 351.037 431.337 345.127 428.873C333.212 423.907 321.603 419.577 309.291 416.098C303.091 414.346 299.212 414.131 295.424 413.921L295.421 413.921C291.71 413.716 288.089 413.515 282.207 411.853C275.954 410.086 272.142 409.751 268.372 409.486C268.172 409.472 267.972 409.458 267.771 409.444C264.271 409.201 260.722 408.954 255.009 407.584C251.701 406.791 246.761 406.965 242.818 407.293C240.811 407.46 239 407.673 237.69 407.845C237.035 407.93 236.504 408.006 236.136 408.06C235.952 408.087 235.809 408.109 235.71 408.124L235.64 408.135L222.005 408.82L240.257 388.55C240.356 388.486 240.5 388.394 240.683 388.278C241.067 388.036 241.625 387.689 242.313 387.274C243.693 386.443 245.592 385.344 247.679 384.265C249.77 383.183 252.021 382.137 254.107 381.401C256.239 380.649 258.017 380.287 259.235 380.403C265.788 381.026 271.214 379.782 276.471 378.41C276.961 378.282 277.45 378.153 277.938 378.025C282.703 376.767 287.384 375.531 292.952 375.417C302.72 375.216 309.079 375.736 317.095 376.392C319.419 376.582 321.883 376.784 324.61 376.982C325.67 377.059 326.705 377.137 327.72 377.212C338.239 377.996 346.627 378.621 358.459 377.556C364.638 377 372.029 378.145 377.96 379.468C380.907 380.125 383.46 380.818 385.275 381.347C386.182 381.611 386.903 381.834 387.396 381.99C387.642 382.068 387.832 382.129 387.958 382.17C388 382.184 388.036 382.196 388.064 382.205L402.75 389.172L402.829 389.21L402.912 389.238L421.735 395.602L421.868 395.647L422.007 395.667L422.218 394.182C422.007 395.667 422.007 395.667 422.007 395.667L422.008 395.667L422.011 395.667L422.02 395.669L422.056 395.674L422.195 395.693C422.317 395.709 422.496 395.733 422.727 395.762C423.189 395.822 423.861 395.905 424.707 396.001C426.399 396.192 428.788 396.435 431.581 396.642C437.152 397.055 444.39 397.327 450.924 396.739C453.821 396.479 457.1 397.159 460.467 398.416C463.819 399.668 467.158 401.454 470.137 403.298C473.112 405.138 475.697 407.018 477.54 408.438C478.46 409.147 479.193 409.74 479.694 410.154C479.865 410.296 480.01 410.417 480.125 410.515L490.422 446.115Z" fill="#3A5907" stroke="black" stroke-width="3"/>
<path d="M224.016 406.771C224.016 406.771 259.916 391.314 285.564 391.24C313.998 391.157 334.308 396.807 361.84 403.193C387.587 409.164 405.006 424.728 430.375 432.578C455.758 440.432 491.636 448.709 491.636 448.709" stroke="black" stroke-width="3"/>
<path d="M498.898 424.21L458.414 464.101C457.764 463.336 456.831 462.25 455.666 460.924C453.286 458.214 449.936 454.5 446.056 450.481C438.333 442.479 428.385 433.135 419.774 428.188C411.436 423.396 405.328 419.013 399.167 414.59L399.153 414.58C392.994 410.159 386.78 405.699 378.304 400.829C369.894 395.996 363.339 392.228 356.783 388.459L356.669 388.394C350.152 384.647 343.623 380.894 335.262 376.09C326.835 371.248 318.873 366.942 310.929 362.646L310.922 362.642C302.972 358.342 295.04 354.053 286.649 349.231C269.808 339.554 253.354 330.649 235.772 322.328C227.017 318.184 221.452 316.475 215.943 314.783L215.942 314.782C210.481 313.105 205.077 311.445 196.517 307.394C187.666 303.205 182.2 301.399 176.742 299.663C176.449 299.57 176.156 299.477 175.863 299.384C170.733 297.757 165.465 296.085 157.146 292.412C152.603 290.407 145.51 288.673 139.66 287.45C136.713 286.833 134.043 286.339 132.11 285.999C131.143 285.828 130.36 285.697 129.817 285.607C129.546 285.563 129.335 285.528 129.191 285.505L129.027 285.479L129.024 285.479L107.848 280.561L137.177 267.37C137.192 267.368 137.209 267.365 137.226 267.362C137.383 267.337 137.615 267.299 137.915 267.252C138.514 267.158 139.383 267.027 140.455 266.879C142.6 266.583 145.552 266.22 148.781 265.952C152.013 265.683 155.502 265.511 158.728 265.592C161.98 265.673 164.852 266.01 166.908 266.7C176.229 269.829 184.185 270.698 192.073 271.383C192.811 271.447 193.548 271.509 194.285 271.572C201.436 272.177 208.612 272.785 216.963 274.899C231.414 278.558 240.763 281.607 252.473 285.427C255.859 286.531 259.443 287.7 263.404 288.966C264.951 289.461 266.46 289.945 267.939 290.42C283.3 295.349 295.453 299.249 312.875 302.81C322.225 304.721 333.091 308.848 341.67 312.529C345.948 314.365 349.636 316.08 352.253 317.336C353.562 317.964 354.602 318.476 355.314 318.831C355.67 319.009 355.944 319.147 356.129 319.241C356.221 319.287 356.29 319.323 356.337 319.346L356.353 319.355L377.098 332.194L377.148 332.225L377.201 332.252L404.041 346.072L404.122 346.114L404.208 346.146L404.727 344.738C404.208 346.146 404.208 346.146 404.209 346.146L404.21 346.146L404.213 346.148L404.226 346.152L404.277 346.171L404.475 346.243C404.649 346.307 404.906 346.4 405.239 346.52C405.905 346.759 406.876 347.105 408.101 347.533C410.549 348.387 414.012 349.566 418.07 350.867C426.178 353.467 436.702 356.564 446.284 358.523C455.445 360.395 466.014 366.867 474.414 373.016C478.586 376.069 482.171 379.004 484.713 381.176C485.983 382.261 486.992 383.154 487.681 383.775C487.997 384.059 488.245 384.286 488.421 384.448L498.898 424.21Z" fill="#3A5907" stroke="black" stroke-width="3"/>
<path d="M111.803 279.44C111.803 279.44 166.566 277.988 204.27 288.005C246.07 299.109 275.187 312.794 314.823 330.062C351.888 346.21 375.472 368.748 411.739 386.64C448.027 404.543 499.684 427 499.684 427" stroke="black" stroke-width="3"/>
<path d="M463.7 436.773L517.764 447.605C517.749 446.767 517.735 445.677 517.732 444.383C517.724 441.23 517.775 436.867 518.013 432.025C518.486 422.405 519.705 410.671 522.773 402.846C525.707 395.364 527.306 389.231 528.924 383.021L528.929 383.001C530.546 376.796 532.182 370.514 535.185 362.858C538.147 355.302 540.457 349.408 542.766 343.517L542.782 343.476L542.795 343.442C545.105 337.549 547.416 331.652 550.38 324.094C553.358 316.499 556.342 309.525 559.317 302.574L559.32 302.566C562.298 295.608 565.266 288.672 568.226 281.123C574.176 265.95 580.34 251.532 587.683 237.017C591.354 229.763 594.279 225.842 597.161 221.978L597.162 221.977C600.008 218.162 602.813 214.403 606.366 207.379C610.074 200.052 612.864 196.108 615.685 192.232C615.836 192.024 615.987 191.817 616.138 191.61C618.781 187.984 621.485 184.275 625.109 177.639C627.127 173.946 631.15 169.276 634.566 165.612C636.292 163.76 637.897 162.131 639.07 160.965C639.656 160.382 640.136 159.914 640.469 159.591C640.636 159.429 640.766 159.304 640.855 159.218L640.945 159.132L652.802 145.729L623.388 149.635C623.384 149.637 623.38 149.638 623.376 149.64C623.248 149.694 623.059 149.775 622.815 149.88C622.327 150.091 621.624 150.401 620.764 150.792C619.043 151.577 616.705 152.689 614.228 154.002C611.748 155.316 609.153 156.82 606.91 158.384C604.639 159.968 602.845 161.535 601.855 162.951C597.117 169.731 591.925 174.152 586.701 178.376C586.213 178.771 585.725 179.163 585.237 179.556C580.493 183.373 575.766 187.175 571.148 192.65C563.12 202.167 558.361 208.829 552.388 217.191C550.659 219.611 548.829 222.173 546.788 224.988C545.993 226.086 545.217 227.158 544.457 228.21C536.568 239.121 530.311 247.777 520.058 258.654C514.606 264.439 509.452 272.599 505.638 279.38C503.738 282.758 502.184 285.769 501.105 287.935C500.565 289.018 500.145 289.888 499.861 290.487C499.719 290.786 499.61 291.017 499.538 291.172C499.503 291.247 499.477 291.304 499.459 291.343L492.721 310.692L492.698 310.758L492.669 310.821L482.178 333.79L482.132 333.89L482.073 333.982L480.813 333.168C482.073 333.982 482.073 333.982 482.073 333.982L482.072 333.983L482.07 333.986L482.064 333.996L482.039 334.034L481.942 334.182C481.857 334.312 481.732 334.503 481.569 334.75C481.242 335.244 480.764 335.961 480.155 336.859C478.939 338.652 477.201 341.167 475.113 344.054C470.943 349.818 465.348 357.102 459.701 363.093C454.408 368.709 450.949 378.423 448.819 386.975C447.765 391.209 447.054 395.082 446.607 397.896C446.384 399.302 446.227 400.442 446.126 401.228C446.085 401.546 446.054 401.805 446.03 402.001L463.7 436.773Z" fill="#3A5907" stroke="black" stroke-width="3"/>
<path d="M649.41 146.585C649.41 146.585 609.251 171.232 588.569 196.456C565.641 224.42 553.432 248.357 535.952 279.923C519.606 309.44 516.962 337.411 502.291 367.861C487.612 398.328 464.801 439.431 464.801 439.431" stroke="black" stroke-width="3"/>
<path d="M495.504 470.716L519.933 517.181C519.531 517.163 519.091 517.145 518.616 517.128C516.178 517.04 512.82 516.973 509.147 517.056C505.478 517.139 501.472 517.372 497.742 517.889C494.037 518.403 490.494 519.212 487.816 520.5C483.002 522.814 478.814 524.026 474.515 525.267L474.484 525.276C470.198 526.513 465.799 527.783 460.747 530.212C455.809 532.586 451.958 534.436 448.107 536.286L448.077 536.3C444.236 538.146 440.392 539.992 435.466 542.361C430.497 544.75 426.011 547.159 421.557 549.552L421.545 549.558C417.081 551.956 412.649 554.337 407.745 556.695C397.829 561.462 388.544 566.442 379.536 572.45C374.964 575.5 372.769 577.993 370.647 580.406L370.644 580.408C368.582 582.752 366.591 585.015 362.345 587.847C357.741 590.918 355.493 593.283 353.334 595.651C353.22 595.776 353.106 595.901 352.993 596.026C351.006 598.209 349.011 600.402 345.061 603.316C342.679 605.074 340.223 608.566 338.44 611.415C337.525 612.876 336.748 614.235 336.199 615.227C335.924 615.724 335.706 616.131 335.556 616.415C335.481 616.557 335.423 616.668 335.383 616.744L335.366 616.779L329.059 626.047L323.146 600.634C323.148 600.527 323.153 600.374 323.16 600.182C323.175 599.769 323.2 599.171 323.242 598.441C323.325 596.98 323.474 594.998 323.734 592.905C323.995 590.805 324.364 588.631 324.88 586.774C325.412 584.854 326.038 583.511 326.676 582.851C330.595 578.796 332.477 574.285 334.153 569.872C334.309 569.461 334.463 569.051 334.617 568.642C336.129 564.625 337.593 560.734 340.347 556.974C345.221 550.319 348.877 546.416 353.506 541.474C354.852 540.038 356.279 538.514 357.842 536.809C358.448 536.149 359.041 535.505 359.623 534.873C365.645 528.332 370.473 523.088 375.797 514.432C378.525 509.997 383.155 505.826 387.204 502.719C389.212 501.178 391.045 499.923 392.374 499.055C393.039 498.621 393.576 498.284 393.946 498.056C394.13 497.943 394.273 497.857 394.368 497.8C394.388 497.787 394.407 497.777 394.423 497.767L407.245 492.457L407.339 492.418L407.427 492.366L421.957 483.882L422.1 483.798L422.222 483.685L421.203 482.584C422.222 483.685 422.222 483.685 422.222 483.685L422.223 483.684L422.224 483.683L422.231 483.677L422.254 483.655L422.341 483.573C422.417 483.502 422.528 483.397 422.67 483.26C422.955 482.987 423.367 482.589 423.878 482.082C424.9 481.069 426.322 479.621 427.925 477.878C431.121 474.403 435.084 469.706 438.032 464.912C439.275 462.891 441.409 461.18 444.064 459.758C446.705 458.343 449.75 457.273 452.669 456.476C455.581 455.682 458.325 455.171 460.343 454.858C461.351 454.702 462.174 454.597 462.743 454.53C462.92 454.509 463.073 454.492 463.198 454.479L495.504 470.716Z" fill="#3A5907" stroke="black" stroke-width="3"/>
<path d="M328.415 623.586C328.415 623.586 335.257 589.496 348.44 572.259C363.054 553.149 377.81 543.204 396.851 528.896C414.657 515.517 435.418 513.943 454.449 502.035C473.491 490.121 498.27 471.447 498.27 471.447" stroke="black" stroke-width="3"/>
<rect x="609.5" y="311.5" width="802" height="242" rx="10.5" fill="#022252" stroke="black" stroke-width="3"/>
<path d="M659.695 504V361.812H709.5C726.753 361.812 739.839 365.133 748.758 371.773C757.677 378.349 762.137 388.017 762.137 400.777C762.137 407.743 760.346 413.896 756.766 419.234C753.185 424.508 748.204 428.382 741.824 430.855C749.116 432.678 754.845 436.357 759.012 441.891C763.243 447.424 765.359 454.195 765.359 462.203C765.359 475.875 760.997 486.227 752.273 493.258C743.549 500.289 731.115 503.87 714.969 504H659.695ZM688.992 442.086V480.465H714.09C720.991 480.465 726.362 478.837 730.203 475.582C734.109 472.262 736.062 467.704 736.062 461.91C736.062 448.889 729.324 442.281 715.848 442.086H688.992ZM688.992 421.383H710.672C725.451 421.122 732.84 415.23 732.84 403.707C732.84 397.262 730.952 392.639 727.176 389.84C723.465 386.975 717.573 385.543 709.5 385.543H688.992V421.383ZM848.855 493.258C841.889 501.721 832.254 505.953 819.949 505.953C808.621 505.953 799.962 502.698 793.973 496.188C788.048 489.677 785.021 480.139 784.891 467.574V398.336H813.113V466.598C813.113 477.6 818.126 483.102 828.152 483.102C837.723 483.102 844.298 479.781 847.879 473.141V398.336H876.199V504H849.637L848.855 493.258ZM954.715 474.801C954.715 471.35 952.99 468.648 949.539 466.695C946.154 464.677 940.685 462.887 933.133 461.324C908.003 456.051 895.438 445.374 895.438 429.293C895.438 419.918 899.311 412.105 907.059 405.855C914.871 399.54 925.06 396.383 937.625 396.383C951.036 396.383 961.746 399.54 969.754 405.855C977.827 412.171 981.863 420.374 981.863 430.465H953.641C953.641 426.428 952.339 423.108 949.734 420.504C947.13 417.835 943.061 416.5 937.527 416.5C932.775 416.5 929.096 417.574 926.492 419.723C923.888 421.871 922.586 424.605 922.586 427.926C922.586 431.051 924.051 433.59 926.98 435.543C929.975 437.431 934.988 439.091 942.02 440.523C949.051 441.891 954.975 443.453 959.793 445.211C974.702 450.68 982.156 460.152 982.156 473.629C982.156 483.264 978.022 491.077 969.754 497.066C961.486 502.991 950.809 505.953 937.723 505.953C928.868 505.953 920.991 504.391 914.09 501.266C907.254 498.076 901.883 493.746 897.977 488.277C894.07 482.743 892.117 476.786 892.117 470.406H918.875C919.135 475.419 920.991 479.26 924.441 481.93C927.892 484.599 932.514 485.934 938.309 485.934C943.712 485.934 947.781 484.924 950.516 482.906C953.315 480.823 954.715 478.121 954.715 474.801ZM1027.96 409.859C1035.44 400.875 1044.85 396.383 1056.18 396.383C1079.1 396.383 1090.72 409.697 1091.04 436.324V504H1062.82V437.105C1062.82 431.051 1061.52 426.591 1058.91 423.727C1056.31 420.797 1051.98 419.332 1045.93 419.332C1037.66 419.332 1031.67 422.522 1027.96 428.902V504H999.734V354H1027.96V409.859Z" fill="#F1AA1F"/>
<path d="M1194.46 474.703H1143.09L1133.33 504H1102.18L1155.11 361.812H1182.25L1235.48 504H1204.32L1194.46 474.703ZM1151 450.973H1186.55L1168.68 397.75L1151 450.973ZM1306.28 424.801C1302.44 424.28 1299.05 424.02 1296.12 424.02C1285.44 424.02 1278.45 427.633 1275.12 434.859V504H1246.9V398.336H1273.56L1274.34 410.934C1280.01 401.233 1287.85 396.383 1297.88 396.383C1301 396.383 1303.93 396.806 1306.67 397.652L1306.28 424.801ZM1358.62 372.359V398.336H1376.69V419.039H1358.62V471.773C1358.62 475.68 1359.37 478.479 1360.87 480.172C1362.36 481.865 1365.23 482.711 1369.46 482.711C1372.59 482.711 1375.35 482.483 1377.76 482.027V503.414C1372.23 505.107 1366.53 505.953 1360.67 505.953C1340.88 505.953 1330.79 495.96 1330.4 475.973V419.039H1314.97V398.336H1330.4V372.359H1358.62Z" fill="#F80202"/>
<path d="M558.174 512.346H533.796H483.226H432.655H408.668L383.818 340.872H582.638L558.174 512.346Z" fill="#0E0D0D" stroke="black" stroke-width="3"/>
<path d="M380.948 332.038C380.948 332.038 439.716 325.017 484.073 325.017C528.431 325.017 585.503 332.038 585.503 332.038L581.548 363.635C581.548 363.635 536.342 356.613 483.791 356.613C431.24 356.613 384.339 363.635 384.339 363.635L380.948 332.038Z" fill="black"/>
<path d="M526.574 152.276L526.48 152.574L526.513 152.885L528.488 171.665L522.559 190.458L522.465 190.756L522.498 191.067L524.473 209.847L518.545 228.64L518.451 228.938L518.483 229.248L520.458 248.029L514.53 266.822L514.436 267.12L514.469 267.43L516.459 286.365L514.538 304.634L483.842 326.925L453.146 304.634L451.225 286.365L453.216 267.43L453.248 267.12L453.154 266.822L447.226 248.029L449.201 229.248L449.233 228.938L449.14 228.64L443.211 209.847L445.186 191.067L445.219 190.756L445.125 190.458L439.196 171.665L441.171 152.885L441.204 152.574L441.11 152.276L435.182 133.483L437.156 114.703L437.189 114.392L437.095 114.095L431.167 95.3013L433.142 76.5207L433.174 76.2103L433.08 75.9126L427.152 57.1193L429.127 38.3388L429.16 38.0284L429.066 37.7307L423.174 19.0524L426.827 5.10443L451.831 1.49999H483.842H515.86L542.726 5.09603L544.541 18.9564L538.618 37.7307L538.525 38.0284L538.557 38.3388L540.532 57.1193L534.604 75.9126L534.51 76.2103L534.542 76.5207L536.517 95.3013L530.589 114.095L530.495 114.392L530.528 114.703L532.502 133.483L526.574 152.276Z" fill="#F80202" stroke="black" stroke-width="3"/>
<path d="M518.694 360.496C518.694 379.205 502.873 394.476 483.226 394.476C463.579 394.476 447.758 379.205 447.758 360.496C447.758 341.787 463.579 326.517 483.226 326.517C502.873 326.517 518.694 341.787 518.694 360.496Z" fill="#FCFCFC" stroke="black" stroke-width="3"/>
<path d="M506.371 360.496C506.371 372.674 496.067 382.65 483.226 382.65C470.384 382.65 460.081 372.674 460.081 360.496C460.081 348.319 470.384 338.343 483.226 338.343C496.067 338.343 506.371 348.319 506.371 360.496Z" fill="#F80202" stroke="black" stroke-width="3"/>
<path d="M494.049 360.496C494.049 366.142 489.262 370.823 483.226 370.823C477.19 370.823 472.403 366.142 472.403 360.496C472.403 354.851 477.19 350.17 483.226 350.17C489.262 350.17 494.049 354.851 494.049 360.496Z" fill="#0042A6" stroke="black" stroke-width="3"/>
<path d="M499.508 450.672L513.382 453.772L516.46 461.412L484.001 455.368L483.726 455.317L483.451 455.368L450.757 461.456L453.166 453.766L467.757 450.675L468.654 450.485L468.894 449.6L471.994 438.147L472.109 437.723L471.977 437.303L468.877 427.487L468.392 425.953L466.896 426.543L455.839 430.906L455.56 431.016L455.345 431.226L436.306 449.722L442.731 416.223L442.741 416.167L442.748 416.111L445.088 395.715L458.874 389.939L466.292 398.877L467.457 400.281L468.609 398.867L476.59 389.074L477.05 388.51L476.891 387.799L473.117 370.93L477.498 363.588L483.726 359.877L490.011 363.622L495.185 370.848L493.584 374.425L493.009 375.71L494.255 376.365L499.886 379.326L493.338 382.406L492.637 382.736L492.5 383.499L491.524 388.953L491.423 389.517L491.724 390.005L497.094 398.707L497.876 399.975L499.149 399.201L514.575 389.823L527.391 395.748L533.422 415.962L524.391 449.595L515.876 430.118L512.479 420.356L511.755 418.276L510.084 419.711L503.738 425.165L503.473 425.393L503.336 425.714L498.455 437.167L498.335 437.449V437.755V449.208V450.41L499.508 450.672Z" fill="#F1AA1F" stroke="black" stroke-width="3"/>
<path d="M588.314 354.901C588.261 372.445 587.225 389.64 582.03 405.664C576.661 422.227 568.798 437.256 558.903 449.901C549.008 462.546 537.28 472.55 524.402 479.367C511.527 486.182 497.746 489.68 483.842 489.68C469.938 489.68 456.157 486.182 443.282 479.367C430.404 472.55 418.676 462.545 408.781 449.901C398.886 437.256 391.023 422.227 385.654 405.664C380.465 389.658 380.006 372.489 379.985 354.901H391.796C392.029 361.932 393.837 370.021 396.076 377.873C397.788 383.88 399.78 389.838 401.553 395.137C402.265 397.268 402.942 399.291 403.551 401.17C407.212 412.466 412.45 418.947 418.634 426.599C419.856 428.111 421.115 429.67 422.407 431.32C422.623 431.596 422.841 431.874 423.059 432.154C426.816 436.958 430.827 442.086 435.117 446.696C439.655 451.573 444.579 455.952 449.961 458.8C459.652 463.93 470.451 463.863 480.569 463.801C481.669 463.794 482.76 463.787 483.842 463.787C484.932 463.787 486.021 463.794 487.11 463.801C497.048 463.863 506.901 463.925 516.582 458.8C527.239 453.16 537.379 441.413 545.277 431.32C546.392 429.895 547.477 428.54 548.53 427.223C554.888 419.278 560.095 412.77 563.856 401.17C564.312 399.763 564.801 398.276 565.312 396.726C567.186 391.036 569.343 384.486 571.165 377.86C573.325 370.006 575.051 361.923 575.273 354.901L588.314 354.901Z" fill="#FEF9F9" stroke="black" stroke-width="3"/>
<path d="M394.236 484.084C394.236 493.864 392.269 502.645 389.158 508.924C386.001 515.298 381.92 518.655 377.868 518.655C373.815 518.655 369.735 515.298 366.577 508.924C363.467 502.645 361.5 493.864 361.5 484.084C361.5 474.304 363.467 465.523 366.577 459.244C369.735 452.87 373.815 449.513 377.868 449.513C381.92 449.513 386.001 452.87 389.158 459.244C392.269 465.523 394.236 474.304 394.236 484.084Z" fill="white" stroke="black" stroke-width="3"/>
<line y1="-1.5" x2="55.5991" y2="-1.5" transform="matrix(-0.0221635 -0.999754 0.999792 -0.0204159 382.181 408.985)" stroke="black" stroke-width="3"/>
<line x1="590.165" y1="408.985" x2="590.165" y2="353.401" stroke="black" stroke-width="3"/>
<path d="M402.727 435.864C402.727 435.864 399.531 435.812 399.824 427.005C400.117 418.198 401.41 417.729 401.41 417.729C401.41 417.729 401.51 420.215 409.884 423.826C418.258 427.438 418.159 424.953 418.159 424.953" stroke="black" stroke-width="3"/>
<path d="M579.225 408.798C579.225 408.798 580.866 411.431 572.915 415.838C564.965 420.244 563.868 419.438 563.868 419.438C563.868 419.438 566.016 418.046 564.795 409.312C563.575 400.579 561.427 401.971 561.427 401.971" stroke="black" stroke-width="3"/>
<path d="M561.765 445.73C561.765 445.73 562.456 448.932 552.925 450.373C543.394 451.815 542.588 450.616 542.588 450.616C542.588 450.616 545.235 450.028 547.16 440.953C549.084 431.879 546.437 432.468 546.437 432.468" stroke="black" stroke-width="3"/>
<path d="M526.706 474.558C526.706 474.558 526.062 477.563 517.098 475.659C508.134 473.755 507.893 472.449 507.893 472.449C507.893 472.449 510.456 472.815 515.703 465.584C520.949 458.353 518.385 457.987 518.385 457.987" stroke="black" stroke-width="3"/>
<path d="M419.979 458.334C419.979 458.334 416.783 458.282 417.076 449.476C417.369 440.669 418.662 440.2 418.662 440.2C418.662 440.2 418.761 442.685 427.135 446.297C435.51 449.909 435.41 447.423 435.41 447.423" stroke="black" stroke-width="3"/>
<path d="M448.237 478.093C448.237 478.093 445.302 479.307 441.794 471.165C438.286 463.022 439.263 462.084 439.263 462.084C439.263 462.084 440.419 464.31 449.6 464.296C458.781 464.281 457.625 462.055 457.625 462.055" stroke="black" stroke-width="3"/>
<path d="M489.735 486.611C489.735 486.611 487.749 489.496 479.219 483.887C470.689 478.278 471.008 476.814 471.008 476.814C471.008 476.814 473.525 478.231 482.165 472.779C490.805 467.327 488.288 465.91 488.288 465.91" stroke="black" stroke-width="3"/>
<path d="M390.982 408.992C390.982 408.992 388.306 408.204 389.614 400.039C390.922 391.873 392.064 391.733 392.064 391.733C392.064 391.733 391.847 394.08 398.439 399.393C405.031 404.707 405.247 402.36 405.247 402.36" stroke="black" stroke-width="3"/>
<line y1="-1.5" x2="43.0158" y2="-1.5" transform="matrix(-0.350381 -0.935161 0.770672 -0.640144 385.547 502.444)" stroke="black" stroke-width="3"/>
<line y1="-1.5" x2="41.5084" y2="-1.5" transform="matrix(-0.450653 0.894256 -0.690739 -0.720519 387.343 464.586)" stroke="black" stroke-width="3"/>
<line y1="-1.5" x2="21.5092" y2="-1.5" transform="matrix(-0.436651 0.901132 -0.705936 -0.705645 386.484 482.692)" stroke="black" stroke-width="3"/>
<line y1="-1.5" x2="20.7542" y2="-1.5" transform="matrix(-0.450653 0.894256 -0.690739 -0.720519 378.889 464.216)" stroke="black" stroke-width="3"/>
<path d="M387.607 535.655L396.284 560.195H378.142H360L369.74 535.655" stroke="black" stroke-width="3"/>
<path d="M388.946 539.515C390.099 537.741 390.74 535.705 390.805 533.616C390.87 531.527 390.355 529.46 389.313 527.624C388.272 525.789 386.741 524.251 384.877 523.168C383.013 522.085 380.882 521.496 378.701 521.46C376.521 521.424 374.369 521.943 372.466 522.964C370.562 523.984 368.975 525.47 367.865 527.27C366.756 529.07 366.164 531.119 366.151 533.209C366.137 535.299 366.702 537.354 367.788 539.166" stroke="black" stroke-width="3"/>
<path d="M387.607 535.655L396.284 560.195H378.142H360L369.74 535.655" stroke="black" stroke-width="3"/>
<path d="M388.946 539.515C390.099 537.741 390.74 535.705 390.805 533.616C390.87 531.527 390.355 529.46 389.313 527.624C388.272 525.789 386.741 524.251 384.877 523.168C383.013 522.085 380.882 521.496 378.701 521.46C376.521 521.424 374.369 521.943 372.466 522.964C370.562 523.984 368.975 525.47 367.865 527.27C366.756 529.07 366.164 531.119 366.151 533.209C366.137 535.299 366.702 537.354 367.788 539.166" stroke="black" stroke-width="3"/>
<path d="M378.291 525.667L388.316 539.444L395 559H378.291H362L369.101 539.444L378.291 525.667Z" fill="white"/>
<ellipse cx="378.709" cy="533.667" rx="10.443" ry="10.6667" fill="white"/>
<line y1="-1.5" x2="21.851" y2="-1.5" transform="matrix(-0.225575 0.974226 -0.978004 -0.208586 372.929 540)" stroke="black" stroke-width="3"/>
<line x1="381.804" y1="539.768" x2="385.14" y2="561.043" stroke="black" stroke-width="3"/>
<path d="M388.607 424.655L397.284 449.195H379.142H361L370.74 424.655" stroke="black" stroke-width="3"/>
<path d="M389.946 428.515C391.099 426.741 391.74 424.705 391.805 422.616C391.87 420.527 391.355 418.46 390.313 416.624C389.272 414.789 387.741 413.251 385.877 412.168C384.013 411.085 381.882 410.496 379.701 410.46C377.521 410.424 375.369 410.943 373.466 411.964C371.562 412.984 369.975 414.47 368.865 416.27C367.756 418.07 367.164 420.119 367.151 422.209C367.137 424.299 367.702 426.354 368.788 428.166" stroke="black" stroke-width="3"/>
<path d="M388.607 424.655L397.284 449.195H379.142H361L370.74 424.655" stroke="black" stroke-width="3"/>
<path d="M389.946 428.515C391.099 426.741 391.74 424.705 391.805 422.616C391.87 420.527 391.355 418.46 390.313 416.624C389.272 414.789 387.741 413.251 385.877 412.168C384.013 411.085 381.882 410.496 379.701 410.46C377.521 410.424 375.369 410.943 373.466 411.964C371.562 412.984 369.975 414.47 368.865 416.27C367.756 418.07 367.164 420.119 367.151 422.209C367.137 424.299 367.702 426.354 368.788 428.166" stroke="black" stroke-width="3"/>
<path d="M379.291 414.667L389.316 428.444L396 448H379.291H363L370.101 428.444L379.291 414.667Z" fill="white"/>
<ellipse cx="379.709" cy="422.667" rx="10.443" ry="10.6667" fill="white"/>
<line y1="-1.5" x2="21.851" y2="-1.5" transform="matrix(-0.225575 0.974226 -0.978004 -0.208586 373.929 429)" stroke="black" stroke-width="3"/>
<line x1="382.804" y1="428.768" x2="386.14" y2="450.043" stroke="black" stroke-width="3"/>
<path d="M599.607 421.655L608.284 446.195H590.142H572L581.74 421.655" stroke="black" stroke-width="3"/>
<path d="M600.946 425.515C602.099 423.741 602.74 421.705 602.805 419.616C602.87 417.527 602.355 415.46 601.313 413.624C600.272 411.789 598.741 410.251 596.877 409.168C595.013 408.085 592.882 407.496 590.701 407.46C588.521 407.424 586.369 407.943 584.466 408.964C582.562 409.984 580.975 411.47 579.865 413.27C578.756 415.07 578.164 417.119 578.151 419.209C578.137 421.299 578.702 423.354 579.788 425.166" stroke="black" stroke-width="3"/>
<path d="M599.607 421.655L608.284 446.195H590.142H572L581.74 421.655" stroke="black" stroke-width="3"/>
<path d="M600.946 425.515C602.099 423.741 602.74 421.705 602.805 419.616C602.87 417.527 602.355 415.46 601.313 413.624C600.272 411.789 598.741 410.251 596.877 409.168C595.013 408.085 592.882 407.496 590.701 407.46C588.521 407.424 586.369 407.943 584.466 408.964C582.562 409.984 580.975 411.47 579.865 413.27C578.756 415.07 578.164 417.119 578.151 419.209C578.137 421.299 578.702 423.354 579.788 425.166" stroke="black" stroke-width="3"/>
<path d="M590.291 411.667L600.316 425.444L607 445H590.291H574L581.101 425.444L590.291 411.667Z" fill="white"/>
<ellipse cx="590.709" cy="419.667" rx="10.443" ry="10.6667" fill="white"/>
<line y1="-1.5" x2="21.851" y2="-1.5" transform="matrix(-0.225575 0.974226 -0.978004 -0.208586 584.929 426)" stroke="black" stroke-width="3"/>
<line x1="593.804" y1="425.768" x2="597.14" y2="447.043" stroke="black" stroke-width="3"/>
</svg>
