<svg width="2277" height="988" viewBox="0 0 2277 988" fill="none" xmlns="http://www.w3.org/2000/svg">
<path d="M1610.28 493.196L1610.37 493.265L1610.46 493.321L1611.22 492.027C1610.46 493.321 1610.46 493.322 1610.46 493.322L1610.46 493.322L1610.46 493.324L1610.48 493.33L1610.51 493.352L1610.67 493.44C1610.8 493.517 1610.99 493.63 1611.25 493.775C1611.76 494.066 1612.5 494.487 1613.44 495.008C1615.31 496.05 1617.96 497.497 1621.09 499.115C1627.35 502.345 1635.53 506.282 1643.2 509.045C1650.37 511.632 1657.73 518.687 1663.4 525.318C1666.21 528.601 1668.55 531.718 1670.19 534.014C1671.01 535.162 1671.66 536.103 1672.09 536.755C1672.27 537.017 1672.41 537.231 1672.52 537.395L1672.2 576.288L1628.99 610.394C1628.63 609.648 1628.17 608.683 1627.6 607.546C1626.22 604.742 1624.24 600.89 1621.89 596.697C1617.22 588.367 1610.95 578.493 1604.76 572.93C1598.85 567.614 1594.72 562.892 1590.54 558.11L1590.53 558.094C1586.35 553.315 1582.12 548.476 1576.07 543.034C1570.1 537.667 1565.44 533.479 1560.79 529.293L1560.75 529.261C1556.09 525.065 1551.42 520.869 1545.44 515.488C1539.44 510.091 1533.71 505.249 1527.99 500.423L1527.99 500.417C1522.27 495.586 1516.57 490.77 1510.6 485.407C1498.61 474.624 1486.76 464.61 1473.83 455.044C1467.36 450.262 1463.03 448.104 1458.76 445.978L1458.76 445.977C1454.54 443.878 1450.39 441.811 1444.14 437.184C1437.6 432.354 1433.38 430.114 1429.16 427.949C1428.94 427.833 1428.71 427.718 1428.48 427.602C1424.53 425.579 1420.5 423.51 1414.35 419.26C1410.92 416.89 1405.28 414.564 1400.63 412.857C1398.27 411.995 1396.13 411.275 1394.57 410.77C1393.79 410.518 1393.16 410.319 1392.72 410.183C1392.5 410.115 1392.33 410.063 1392.21 410.027L1392.1 409.992L1375.67 403.467L1403.51 393.609C1403.52 393.609 1403.52 393.609 1403.52 393.608C1403.66 393.599 1403.87 393.584 1404.13 393.568C1404.66 393.534 1405.42 393.49 1406.35 393.449C1408.23 393.366 1410.8 393.294 1413.57 393.338C1416.36 393.382 1419.32 393.542 1422.01 393.915C1424.72 394.292 1427 394.871 1428.5 395.678C1435.71 399.555 1442.28 401.131 1448.79 402.516C1449.39 402.645 1450 402.773 1450.61 402.901C1456.51 404.141 1462.38 405.377 1468.9 408.146C1480.23 412.962 1487.4 416.722 1496.4 421.443C1499.01 422.809 1501.77 424.256 1504.82 425.832C1506.01 426.447 1507.18 427.048 1508.32 427.638C1520.14 433.755 1529.53 438.609 1543.44 443.626C1550.84 446.293 1559.02 451.204 1565.4 455.498C1568.58 457.637 1571.29 459.607 1573.21 461.042C1574.16 461.759 1574.92 462.342 1575.44 462.745C1575.7 462.946 1575.89 463.102 1576.03 463.207C1576.06 463.232 1576.08 463.253 1576.11 463.272C1576.13 463.292 1576.15 463.308 1576.17 463.322L1590.7 477.454L1590.76 477.503L1590.81 477.548L1610.28 493.196Z" fill="#3A5907" stroke="black" stroke-width="3"/>
<path d="M1379.04 402.685C1379.04 402.685 1425.6 406.383 1455.11 419.417C1487.83 433.867 1509.25 449.597 1538.72 469.715C1566.28 488.527 1581 512.173 1607.48 532.572C1633.98 552.983 1672.4 579.157 1672.4 579.157" stroke="black" stroke-width="3"/>
<path d="M1721.56 427.389L1721.58 427.495L1721.62 427.596L1723.01 427.023C1721.62 427.596 1721.62 427.596 1721.63 427.596L1721.63 427.597L1721.63 427.6L1721.63 427.611L1721.65 427.654L1721.72 427.818C1721.78 427.961 1721.87 428.173 1721.98 428.446C1722.22 428.994 1722.56 429.789 1722.99 430.786C1723.87 432.779 1725.13 435.58 1726.66 438.811C1729.73 445.264 1733.93 453.479 1738.41 460.425C1742.61 466.941 1744.27 477.165 1744.83 485.996C1745.11 490.369 1745.11 494.321 1745.05 497.181C1745.01 498.61 1744.96 499.763 1744.92 500.558C1744.9 500.879 1744.89 501.142 1744.88 501.34L1721.23 532.416L1666.06 533.195C1666.23 532.37 1666.44 531.291 1666.68 530.009C1667.25 526.899 1667.99 522.584 1668.62 517.762C1669.89 508.18 1670.8 496.378 1669.18 488.095C1667.64 480.172 1667.17 473.825 1666.69 467.401L1666.69 467.38C1666.21 460.96 1665.73 454.46 1664.15 446.354C1662.59 438.339 1661.38 432.09 1660.16 425.841L1660.16 425.833L1660.15 425.796C1658.94 419.557 1657.72 413.314 1656.17 405.312C1654.6 397.27 1652.92 389.841 1651.24 382.436L1651.24 382.427C1649.55 375.014 1647.88 367.625 1646.32 359.632C1643.19 343.566 1639.72 328.207 1635.1 312.536C1632.79 304.705 1630.62 300.3 1628.48 295.959L1628.47 295.957C1626.36 291.67 1624.27 287.445 1622.04 279.861C1619.71 271.951 1617.67 267.548 1615.59 263.205C1615.48 262.973 1615.37 262.741 1615.25 262.509C1613.3 258.445 1611.31 254.288 1608.94 247.074C1607.61 243.061 1604.49 237.716 1601.79 233.474C1600.42 231.33 1599.14 229.428 1598.19 228.062C1597.72 227.379 1597.33 226.829 1597.06 226.449C1596.93 226.259 1596.82 226.112 1596.75 226.011L1596.68 225.91L1587.41 210.501L1615.66 219.747C1615.66 219.75 1615.67 219.752 1615.67 219.755C1615.79 219.832 1615.96 219.946 1616.18 220.095C1616.62 220.392 1617.26 220.827 1618.04 221.371C1619.59 222.461 1621.69 223.987 1623.89 225.737C1626.1 227.489 1628.38 229.449 1630.31 231.404C1632.26 233.384 1633.74 235.26 1634.47 236.842C1637.91 244.4 1642.22 249.714 1646.61 254.84C1647.02 255.319 1647.43 255.796 1647.84 256.273C1651.82 260.91 1655.79 265.53 1659.35 271.781C1665.54 282.646 1669.03 290.094 1673.41 299.441C1674.67 302.146 1676.01 305.011 1677.52 308.163C1678.1 309.392 1678.67 310.593 1679.23 311.77C1685.04 323.985 1689.64 333.673 1697.78 346.287C1702.1 352.998 1705.71 361.997 1708.25 369.388C1709.51 373.071 1710.5 376.328 1711.17 378.663C1711.51 379.831 1711.76 380.767 1711.94 381.41C1712.02 381.731 1712.09 381.979 1712.13 382.146C1712.14 382.189 1712.15 382.226 1712.16 382.258C1712.17 382.286 1712.17 382.31 1712.18 382.329L1715.33 402.661L1715.34 402.73L1715.36 402.797L1721.56 427.389Z" fill="#3A5907" stroke="black" stroke-width="3"/>
<path d="M1590.6 211.972C1590.6 211.972 1625.7 243.659 1641.52 272.345C1659.06 304.146 1666.78 330.008 1678.31 364.366C1689.09 396.494 1686.67 424.584 1695.63 457.325C1704.6 490.085 1719.67 534.832 1719.67 534.832" stroke="black" stroke-width="3"/>
<path d="M1781.39 596.308L1781.29 596.266L1781.2 596.209L1781.99 594.934C1781.2 596.209 1781.2 596.209 1781.2 596.209L1781.2 596.209L1781.2 596.207L1781.19 596.201L1781.15 596.176L1780.99 596.079C1780.93 596.043 1780.86 596 1780.78 595.95C1780.68 595.881 1780.55 595.8 1780.4 595.706C1779.88 595.38 1779.13 594.903 1778.2 594.295C1776.33 593.08 1773.7 591.343 1770.68 589.256C1764.65 585.087 1757.03 579.493 1750.72 573.841C1744.79 568.521 1734.72 565.089 1725.91 562.994C1721.55 561.956 1717.57 561.262 1714.67 560.829C1713.23 560.612 1712.06 560.46 1711.25 560.363C1710.92 560.323 1710.65 560.292 1710.44 560.27L1675.51 578.29L1666.23 632.896C1667.1 632.875 1668.24 632.854 1669.61 632.842C1672.83 632.815 1677.29 632.84 1682.24 633.051C1692.09 633.47 1704.11 634.627 1712.2 637.668C1719.95 640.583 1726.27 642.159 1732.67 643.752L1732.69 643.757C1739.08 645.349 1745.56 646.96 1753.47 649.939C1761.29 652.88 1767.39 655.173 1773.49 657.464L1773.53 657.481L1773.57 657.493C1779.67 659.786 1785.77 662.08 1793.59 665.023C1801.45 667.979 1808.68 670.945 1815.88 673.902L1815.89 673.906C1823.1 676.866 1830.28 679.816 1838.1 682.756C1853.8 688.662 1868.74 694.787 1883.81 702.102C1891.34 705.755 1895.44 708.676 1899.48 711.558L1899.48 711.559C1903.48 714.407 1907.41 717.215 1914.72 720.758C1922.32 724.449 1926.44 727.235 1930.49 730.054C1930.71 730.205 1930.93 730.356 1931.14 730.507C1934.94 733.151 1938.82 735.857 1945.73 739.473C1949.56 741.479 1954.46 745.5 1958.32 748.922C1960.27 750.651 1961.98 752.258 1963.21 753.432C1963.83 754.02 1964.32 754.5 1964.66 754.834C1964.83 755.001 1964.97 755.132 1965.06 755.221L1965.15 755.313L1979.29 767.224L1974.32 737.603C1974.32 737.597 1974.31 737.592 1974.31 737.586C1974.25 737.457 1974.16 737.266 1974.05 737.021C1973.81 736.531 1973.47 735.823 1973.04 734.958C1972.19 733.227 1970.97 730.875 1969.55 728.386C1968.12 725.892 1966.5 723.282 1964.82 721.027C1963.13 718.746 1961.46 716.937 1959.96 715.939C1952.89 711.21 1948.2 706.011 1943.71 700.77C1943.3 700.28 1942.88 699.79 1942.46 699.3C1938.4 694.541 1934.35 689.793 1928.6 685.165C1918.6 677.126 1911.63 672.366 1902.89 666.395C1900.36 664.667 1897.68 662.837 1894.74 660.797C1893.59 660.002 1892.47 659.227 1891.37 658.466C1879.95 650.579 1870.91 644.326 1859.45 634.059C1853.35 628.59 1844.83 623.439 1837.78 619.634C1834.26 617.738 1831.13 616.188 1828.88 615.113C1827.75 614.576 1826.85 614.158 1826.23 613.874C1825.92 613.733 1825.68 613.625 1825.52 613.552C1825.49 613.538 1825.46 613.525 1825.43 613.514C1825.39 613.497 1825.36 613.483 1825.34 613.472C1825.34 613.472 1825.33 613.471 1825.33 613.471L1805.34 606.795L1805.27 606.773L1805.21 606.746L1781.39 596.308Z" fill="#3A5907" stroke="black" stroke-width="3"/>
<path d="M1980.13 765.381C1980.13 765.381 1953.61 725.042 1927.14 704.343C1897.8 681.396 1872.94 669.232 1840.1 651.8C1809.39 635.498 1780.72 633.001 1749.12 618.395C1717.49 603.78 1674.73 581.03 1674.73 581.03" stroke="black" stroke-width="3"/>
<path d="M1688.66 541.758L1687.29 598.575C1688.3 598.526 1689.73 598.463 1691.49 598.404C1695.1 598.285 1700.1 598.184 1705.68 598.261C1716.8 598.414 1730.42 599.27 1739.92 602.16C1749.12 604.958 1756.5 606.41 1763.94 607.874L1763.96 607.878C1771.4 609.341 1778.9 610.818 1788.26 613.662C1797.53 616.484 1804.76 618.682 1811.99 620.881L1812 620.883C1819.24 623.083 1826.47 625.282 1835.75 628.105C1845.05 630.933 1853.64 633.79 1862.21 636.64L1862.22 636.643C1870.79 639.495 1879.35 642.341 1888.61 645.157C1907.19 650.81 1924.95 656.708 1943.05 663.829C1952.06 667.375 1957.12 670.262 1962.12 673.119L1962.12 673.12C1967.08 675.952 1971.99 678.755 1980.81 682.222C1989.92 685.807 1994.97 688.555 1999.98 691.346C2000.24 691.496 2000.51 691.646 2000.78 691.796C2005.48 694.421 2010.3 697.117 2018.68 700.668C2023.25 702.607 2029.37 706.59 2034.26 710.018C2036.73 711.744 2038.92 713.352 2040.49 714.528C2041.28 715.116 2041.91 715.597 2042.34 715.932C2042.56 716.099 2042.73 716.229 2042.85 716.318L2042.98 716.42L2042.98 716.422L2061.06 728.492L2050.6 698.083C2050.59 698.07 2050.58 698.056 2050.57 698.041C2050.48 697.91 2050.35 697.715 2050.18 697.464C2049.84 696.963 2049.34 696.239 2048.71 695.357C2047.46 693.59 2045.71 691.191 2043.69 688.653C2041.67 686.113 2039.41 683.451 2037.15 681.155C2034.86 678.84 2032.65 676.977 2030.74 675.951C2022.08 671.298 2016 666.094 2010.1 660.811C2009.55 660.317 2009 659.823 2008.45 659.328C2003.11 654.53 1997.76 649.715 1990.5 645.074C1977.94 637.045 1969.32 632.316 1958.52 626.394C1955.39 624.682 1952.09 622.87 1948.45 620.849C1947.03 620.06 1945.65 619.292 1944.29 618.538C1930.18 610.715 1919.02 604.525 1904.5 594.262C1896.7 588.755 1886.26 583.659 1877.7 579.925C1873.44 578.063 1869.66 576.548 1866.95 575.5C1865.6 574.976 1864.51 574.568 1863.77 574.292C1863.39 574.154 1863.11 574.049 1862.91 573.979C1862.82 573.944 1862.74 573.917 1862.69 573.9L1862.68 573.893L1839.12 567.559L1839.06 567.544L1839 567.524L1810.56 557.419L1810.47 557.388L1810.39 557.347L1811.06 556.005C1810.39 557.347 1810.39 557.347 1810.39 557.347L1810.39 557.347L1810.38 557.345L1810.37 557.339L1810.32 557.314L1810.13 557.22C1809.97 557.136 1809.72 557.013 1809.41 556.852C1808.78 556.531 1807.86 556.059 1806.71 555.459C1804.41 554.259 1801.18 552.542 1797.46 550.474C1790.01 546.343 1780.55 540.792 1772.56 535.148C1764.93 529.751 1752.97 526.477 1742.74 524.562C1737.66 523.611 1733.07 523.007 1729.74 522.64C1728.08 522.457 1726.74 522.333 1725.82 522.256C1725.39 522.22 1725.06 522.194 1724.82 522.177L1688.66 541.758Z" fill="#3A5907" stroke="black" stroke-width="3"/>
<path d="M2061.53 726.44C2061.53 726.44 2025.1 685.525 1991.99 664.896C1955.28 642.026 1925.37 630.168 1885.65 613.094C1848.51 597.128 1815.94 595.363 1778.07 581.173C1740.18 566.974 1688.45 544.69 1688.45 544.69" stroke="black" stroke-width="3"/>
<path d="M1826.39 500.93L1826.27 500.905L1826.16 500.862L1826.7 499.464C1826.16 500.862 1826.16 500.862 1826.16 500.862L1826.16 500.861L1826.16 500.86L1826.15 500.856L1826.11 500.841L1825.96 500.781C1825.82 500.728 1825.63 500.65 1825.37 500.549C1824.87 500.346 1824.13 500.047 1823.21 499.663C1821.37 498.897 1818.79 497.79 1815.81 496.43C1809.86 493.714 1802.28 489.966 1795.87 485.873C1789.94 482.081 1780.55 480.946 1772.38 480.831C1768.34 480.774 1764.69 480.967 1762.05 481.174C1760.73 481.277 1759.66 481.384 1758.93 481.464C1758.65 481.495 1758.42 481.522 1758.24 481.543L1729.26 506.479L1728.11 560.952C1728.84 560.759 1729.75 560.52 1730.82 560.253C1733.7 559.53 1737.71 558.59 1742.18 557.721C1751.05 555.998 1762.01 554.505 1769.71 555.696C1777.01 556.826 1782.87 556.977 1788.81 557.129L1788.83 557.13C1794.77 557.282 1800.79 557.436 1808.3 558.597C1815.7 559.743 1821.48 560.636 1827.26 561.528C1833.03 562.421 1838.81 563.313 1846.22 564.459C1853.65 565.61 1860.51 566.907 1867.35 568.199L1867.36 568.2C1874.21 569.494 1881.03 570.783 1888.41 571.924C1903.26 574.222 1917.46 576.897 1931.93 580.69C1939.18 582.59 1943.26 584.528 1947.27 586.433L1947.27 586.434C1951.21 588.311 1955.09 590.155 1962.07 591.983C1969.39 593.901 1973.46 595.703 1977.47 597.547C1977.69 597.646 1977.9 597.744 1978.11 597.843C1981.86 599.568 1985.68 601.328 1992.32 603.313C1996.06 604.431 2001 607.268 2004.91 609.73C2006.88 610.977 2008.64 612.156 2009.89 613.023C2010.52 613.457 2011.03 613.814 2011.38 614.062C2011.55 614.187 2011.69 614.284 2011.78 614.351L2011.87 614.412L2025.91 622.721L2017.57 595.227C2017.57 595.227 2017.57 595.227 2017.57 595.226C2017.5 595.116 2017.39 594.952 2017.26 594.741C2016.99 594.319 2016.59 593.712 2016.09 592.972C2015.1 591.493 2013.7 589.493 2012.1 587.406C2010.5 585.316 2008.71 583.161 2006.92 581.36C2005.11 579.532 2003.41 578.183 2001.99 577.567C1994.99 574.522 1990.09 570.5 1985.38 566.419C1984.94 566.038 1984.5 565.657 1984.06 565.276C1979.8 561.566 1975.57 557.885 1969.84 554.686C1959.84 549.109 1952.99 546.036 1944.37 542.174C1941.88 541.056 1939.24 539.871 1936.33 538.54C1935.2 538.022 1934.09 537.517 1933 537.023C1921.75 531.891 1912.8 527.814 1901.18 520.387C1895.03 516.458 1886.75 513.347 1879.94 511.209C1876.55 510.144 1873.54 509.329 1871.39 508.781C1870.32 508.507 1869.45 508.3 1868.86 508.161C1868.56 508.092 1868.34 508.04 1868.18 508.006L1868.11 507.99C1868.08 507.983 1868.05 507.976 1868.03 507.971L1849.25 505.863L1849.17 505.854L1849.1 505.838L1826.39 500.93Z" fill="#3A5907" stroke="black" stroke-width="3"/>
<path d="M2026.55 620.844C2026.55 620.844 1997.51 587.715 1971.08 573.493C1941.79 557.727 1917.92 551.383 1886.22 541.685C1856.57 532.617 1830.55 536.407 1800.32 529.165C1770.08 521.919 1728.79 509.244 1728.79 509.244" stroke="black" stroke-width="3"/>
<path d="M1796.14 634.656L1796.05 634.594L1795.97 634.52L1796.07 634.408C1795.97 634.52 1795.97 634.52 1795.97 634.52L1795.97 634.519L1795.96 634.516L1795.95 634.505L1795.91 634.462C1795.87 634.425 1795.81 634.369 1795.73 634.296C1795.57 634.15 1795.34 633.934 1795.04 633.654C1794.44 633.092 1793.57 632.271 1792.49 631.23C1790.32 629.147 1787.29 626.183 1783.83 622.653C1776.92 615.601 1768.27 606.258 1761.4 597.159C1754.85 588.47 1742.24 581.396 1731.03 576.46C1725.46 574.009 1720.32 572.116 1716.56 570.836C1714.68 570.196 1713.15 569.71 1712.1 569.384C1711.57 569.222 1711.17 569.1 1710.89 569.019L1658.84 585.047L1631.2 657.239C1631.2 657.24 1631.21 657.241 1631.21 657.242C1632.42 657.426 1634.17 657.702 1636.32 658.069C1640.62 658.803 1646.57 659.904 1653.12 661.372C1666.16 664.296 1681.84 668.722 1691.74 674.71C1701.33 680.507 1709.37 684.155 1717.49 687.834L1717.51 687.843C1725.62 691.52 1733.8 695.23 1743.55 701.125C1753.2 706.961 1760.72 711.511 1768.25 716.06L1768.29 716.088L1768.33 716.107C1775.85 720.658 1783.38 725.211 1793.04 731.051C1802.73 736.911 1811.57 742.633 1820.39 748.341L1820.39 748.346C1829.22 754.059 1838.02 759.759 1847.67 765.593C1867.03 777.305 1885.31 789.124 1903.44 802.574C1912.47 809.273 1917.12 814.166 1921.73 819.008L1921.74 819.01C1926.3 823.808 1930.82 828.556 1939.65 835.102C1948.77 841.873 1953.5 846.592 1958.13 851.351C1958.38 851.606 1958.63 851.861 1958.88 852.116C1963.23 856.589 1967.7 861.181 1975.97 867.725C1980.49 871.303 1985.9 877.846 1990.12 883.38C1992.25 886.169 1994.1 888.739 1995.43 890.612C1996.09 891.549 1996.61 892.313 1996.98 892.842C1997.16 893.107 1997.3 893.314 1997.4 893.455L1997.5 893.616L1997.51 893.618L2014.08 914.211L2015.59 871.506C2015.58 871.477 2015.57 871.446 2015.57 871.411C2015.52 871.222 2015.45 870.943 2015.37 870.583C2015.19 869.864 2014.93 868.826 2014.59 867.556C2013.91 865.013 2012.93 861.544 2011.7 857.838C2010.47 854.128 2009.01 850.204 2007.37 846.741C2005.72 843.247 2003.96 840.351 2002.17 838.589C1994.06 830.575 1989.25 822.5 1984.68 814.375C1984.26 813.615 1983.83 812.855 1983.41 812.095C1979.29 804.717 1975.15 797.314 1968.69 789.667C1957.52 776.432 1949.49 768.337 1939.43 758.198C1936.52 755.266 1933.45 752.163 1930.07 748.715C1928.76 747.369 1927.47 746.057 1926.21 744.77C1913.11 731.414 1902.74 720.846 1890.26 704.303C1883.57 695.429 1873.56 686.423 1865.16 679.602C1860.97 676.2 1857.2 673.358 1854.48 671.368C1853.12 670.373 1852.03 669.591 1851.27 669.059C1850.89 668.793 1850.6 668.59 1850.4 668.453L1850.32 668.393C1850.26 668.353 1850.21 668.322 1850.18 668.299L1850.16 668.287L1825.24 654.492L1825.18 654.458L1825.12 654.419L1796.14 634.656Z" fill="#3A5907" stroke="black" stroke-width="3"/>
<path d="M2015.22 910.408C2015.22 910.408 1990.8 849.735 1961.08 815.521C1928.14 777.592 1898.23 755.254 1859.11 723.911C1822.53 694.602 1784.9 684.369 1746.65 657.127C1708.38 629.869 1657.45 588.989 1657.45 588.989" stroke="black" stroke-width="3"/>
<path d="M1561.34 501.27L1561.44 501.327L1561.54 501.371L1562.12 499.989C1561.54 501.371 1561.54 501.371 1561.54 501.371L1561.54 501.371L1561.55 501.373L1561.56 501.379L1561.62 501.403C1561.67 501.424 1561.74 501.455 1561.84 501.495C1562.03 501.576 1562.32 501.695 1562.69 501.848C1563.44 502.153 1564.53 502.594 1565.9 503.137C1568.64 504.224 1572.53 505.722 1577.09 507.369C1586.21 510.658 1598.09 514.556 1609.03 516.945C1619.46 519.221 1630.88 527.646 1639.83 535.71C1644.27 539.712 1648.04 543.571 1650.7 546.43C1652.03 547.858 1653.08 549.035 1653.8 549.853C1654.15 550.257 1654.43 550.572 1654.61 550.788L1661.15 604.595L1607.43 659.895C1606.78 658.882 1605.83 657.43 1604.65 655.653C1602.26 652.068 1598.87 647.155 1594.92 641.845C1587.04 631.278 1576.75 618.953 1567.38 612.51C1558.32 606.278 1551.8 600.536 1545.23 594.741L1545.22 594.727C1538.65 588.935 1532.02 583.089 1522.8 576.75C1513.66 570.465 1506.53 565.563 1499.41 560.662L1499.39 560.654L1499.37 560.636C1492.25 555.738 1485.13 550.839 1475.99 544.558C1466.83 538.257 1458.13 532.665 1449.45 527.088L1449.44 527.083C1440.76 521.5 1432.09 515.932 1422.97 509.658C1404.65 497.065 1386.68 485.502 1367.3 474.753C1357.64 469.397 1351.36 467.238 1345.16 465.103L1345.15 465.102C1339.01 462.987 1332.92 460.895 1323.5 455.666C1313.74 450.253 1307.59 447.962 1301.45 445.766C1301.12 445.648 1300.79 445.531 1300.46 445.413C1294.69 443.355 1288.77 441.244 1279.57 436.518C1274.53 433.93 1266.46 431.778 1259.79 430.283C1256.43 429.53 1253.37 428.934 1251.16 428.526C1250.05 428.322 1249.15 428.165 1248.53 428.059C1248.21 428.006 1247.97 427.965 1247.81 427.938L1247.62 427.907L1222.48 421.571L1260.25 402.274C1260.28 402.269 1260.31 402.262 1260.34 402.255C1260.53 402.217 1260.81 402.16 1261.17 402.089C1261.88 401.946 1262.92 401.747 1264.2 401.52C1266.76 401.065 1270.27 400.498 1274.09 400.052C1277.92 399.606 1282.03 399.283 1285.8 399.308C1289.6 399.332 1292.91 399.711 1295.2 400.581C1305.67 404.557 1314.87 405.52 1324.01 406.235C1324.86 406.302 1325.72 406.367 1326.57 406.432C1334.86 407.06 1343.17 407.691 1352.63 410.318C1369.02 414.867 1379.52 418.728 1392.68 423.565C1396.49 424.964 1400.51 426.445 1404.97 428.047C1406.71 428.673 1408.4 429.286 1410.07 429.886C1427.34 436.123 1441.01 441.06 1460.9 445.401C1471.56 447.728 1483.68 452.999 1493.19 457.731C1497.93 460.09 1502 462.303 1504.88 463.925C1506.32 464.736 1507.46 465.399 1508.24 465.858C1508.64 466.088 1508.94 466.267 1509.14 466.388C1509.24 466.448 1509.31 466.494 1509.37 466.525L1509.38 466.534L1531.8 483.279L1531.86 483.322L1531.92 483.359L1561.34 501.27Z" fill="#3A5907" stroke="black" stroke-width="3"/>
<path d="M1225.41 418.936C1225.41 418.936 1289.76 415.551 1332.46 428.055C1379.79 441.917 1411.9 459.585 1455.81 481.804C1496.87 502.582 1521.2 532.316 1561.07 555.464C1600.97 578.625 1658.19 607.518 1658.19 607.518" stroke="black" stroke-width="3"/>
<path d="M1698.21 555.25L1653.62 584.689C1653.51 584.106 1653.38 583.425 1653.23 582.662C1652.72 580.026 1651.95 576.401 1650.95 572.447C1648.95 564.62 1645.94 555.214 1641.94 549.767C1638.19 544.681 1635.82 540.206 1633.39 535.644L1633.38 535.62C1630.96 531.065 1628.5 526.422 1624.62 521.15C1620.81 515.966 1617.83 511.924 1614.86 507.882L1614.86 507.879C1611.89 503.838 1608.91 499.796 1605.1 494.613C1601.27 489.406 1597.54 484.72 1593.82 480.059L1593.81 480.05C1590.09 475.381 1586.39 470.736 1582.6 465.579C1574.95 455.181 1567.23 445.487 1558.48 436.159C1554.07 431.461 1550.85 429.278 1547.72 427.145L1547.71 427.144C1544.64 425.055 1541.64 423.016 1537.46 418.56C1533.01 413.822 1529.91 411.57 1526.82 409.4C1526.66 409.285 1526.49 409.169 1526.33 409.054C1523.45 407.041 1520.54 405.001 1516.35 400.882C1513.93 398.497 1509.6 396.1 1506.05 394.348C1504.25 393.457 1502.59 392.706 1501.38 392.178C1500.77 391.913 1500.28 391.704 1499.93 391.561C1499.76 391.489 1499.63 391.434 1499.54 391.396L1499.47 391.369L1487.43 384.928L1513.52 376.967C1513.64 376.963 1513.81 376.959 1514.03 376.954C1514.48 376.944 1515.14 376.934 1515.94 376.934C1517.55 376.933 1519.75 376.97 1522.09 377.121C1524.44 377.272 1526.91 377.536 1529.08 377.98C1531.29 378.435 1533 379.042 1533.98 379.769C1539.28 383.681 1544.57 385.412 1549.78 386.946C1550.27 387.089 1550.75 387.231 1551.24 387.372C1555.97 388.75 1560.62 390.104 1565.45 392.877C1573.92 397.74 1579.1 401.463 1585.63 406.157C1587.53 407.519 1589.53 408.961 1591.77 410.537C1592.64 411.15 1593.48 411.749 1594.31 412.337C1602.92 418.431 1609.79 423.291 1620.48 428.478C1626.06 431.186 1631.8 435.978 1636.2 440.168C1638.39 442.25 1640.22 444.16 1641.5 445.549C1642.14 446.243 1642.65 446.805 1642.99 447.193C1643.16 447.387 1643.29 447.537 1643.38 447.638C1643.4 447.671 1643.43 447.7 1643.45 447.722L1652.44 461.262L1652.49 461.335L1652.55 461.402L1665.4 476.559L1665.49 476.666L1665.59 476.754L1666.54 475.591C1665.59 476.754 1665.59 476.754 1665.59 476.755L1665.6 476.755L1665.6 476.757L1665.61 476.763L1665.63 476.786L1665.74 476.874C1665.84 476.95 1665.98 477.063 1666.16 477.207C1666.53 477.496 1667.06 477.914 1667.74 478.432C1669.09 479.469 1671.01 480.908 1673.3 482.525C1677.86 485.751 1683.92 489.715 1689.82 492.58C1692.44 493.849 1694.9 496.123 1697.13 498.936C1699.36 501.737 1701.3 504.989 1702.9 508.104C1704.5 511.214 1705.75 514.157 1706.6 516.324C1707.02 517.406 1707.34 518.292 1707.56 518.905C1707.63 519.116 1707.69 519.294 1707.74 519.436L1698.21 555.25Z" fill="#3A5907" stroke="black" stroke-width="3"/>
<path d="M1490.21 384.209C1490.21 384.209 1528.94 389.469 1550.96 402.627C1575.37 417.213 1589.86 432.524 1610.16 452.189C1629.14 470.577 1636.05 492.893 1653.74 512.697C1671.44 532.512 1697.92 558.099 1697.92 558.099" stroke="black" stroke-width="3"/>
<path d="M1716.77 540.849L1661.52 554.163C1661.35 553.172 1661.11 551.76 1660.8 550.024C1660.16 546.475 1659.2 541.565 1657.95 536.121C1655.45 525.283 1651.75 512.149 1646.92 503.47C1642.24 495.067 1639.27 488.161 1636.27 481.196L1636.26 481.181C1633.26 474.217 1630.24 467.192 1625.49 458.65C1620.77 450.173 1617.1 443.565 1613.42 436.957L1613.36 436.841C1609.7 430.271 1606.04 423.691 1601.35 415.263C1596.63 406.77 1592.03 398.976 1587.43 391.2L1587.43 391.193C1582.83 383.41 1578.25 375.646 1573.54 367.189C1564.1 350.215 1554.59 334.103 1543.82 317.909C1538.45 309.845 1534.56 305.512 1530.71 301.222L1530.71 301.221C1526.9 296.969 1523.12 292.761 1517.88 284.877C1512.45 276.725 1508.7 272.36 1504.92 268.059C1504.71 267.828 1504.51 267.598 1504.31 267.367C1500.75 263.328 1497.1 259.18 1491.86 251.744C1489 247.684 1483.82 242.542 1479.44 238.478C1477.23 236.431 1475.2 234.631 1473.71 233.343C1472.97 232.699 1472.37 232.182 1471.95 231.826C1471.74 231.647 1471.58 231.509 1471.47 231.416L1471.34 231.308L1471.34 231.307L1455.73 216.177L1487.66 219.992C1487.67 219.998 1487.69 220.004 1487.7 220.011C1487.85 220.069 1488.07 220.157 1488.35 220.271C1488.91 220.5 1489.73 220.835 1490.72 221.261C1492.71 222.113 1495.43 223.324 1498.33 224.758C1501.24 226.194 1504.32 227.846 1507.04 229.578C1509.79 231.324 1512.07 233.092 1513.48 234.743C1519.85 242.23 1526.22 247.076 1532.63 251.729C1533.23 252.164 1533.83 252.597 1534.43 253.031C1540.24 257.236 1546.08 261.455 1552.15 267.572C1562.64 278.156 1569.08 285.588 1577.15 294.898C1579.48 297.59 1581.95 300.438 1584.69 303.565C1585.76 304.786 1586.8 305.979 1587.83 307.149C1598.45 319.291 1606.85 328.897 1619.95 340.93C1626.97 347.387 1634.16 356.525 1639.61 364.101C1642.33 367.879 1644.61 371.25 1646.2 373.676C1647 374.888 1647.63 375.864 1648.05 376.535C1648.27 376.871 1648.43 377.13 1648.54 377.305C1648.6 377.393 1648.64 377.459 1648.66 377.504L1648.67 377.519L1659.83 399.214L1659.86 399.267L1659.89 399.317L1675.76 424.995L1675.81 425.073L1675.87 425.145L1677.04 424.206C1675.87 425.145 1675.87 425.145 1675.87 425.145L1675.87 425.146L1675.87 425.149L1675.88 425.16L1675.92 425.202L1676.05 425.366C1676.17 425.51 1676.34 425.722 1676.56 425.996C1677.01 426.545 1677.66 427.342 1678.49 428.34C1680.15 430.334 1682.51 433.129 1685.32 436.336C1690.92 442.743 1698.34 450.822 1705.54 457.44C1712.43 463.767 1718.15 474.761 1722.18 484.359C1724.18 489.126 1725.74 493.489 1726.8 496.661C1727.33 498.246 1727.73 499.531 1728 500.418C1728.13 500.824 1728.22 501.147 1728.29 501.376L1716.77 540.849Z" fill="#3A5907" stroke="black" stroke-width="3"/>
<path d="M1459.69 217.254C1459.69 217.254 1507.37 244.24 1534.51 272.26C1564.61 303.322 1582.5 330.057 1607.57 365.287C1631 398.23 1639.6 429.699 1661.45 463.727C1683.32 497.773 1716 543.645 1716 543.645" stroke="black" stroke-width="3"/>
<path d="M1680.13 533.47L1720.88 570.621C1721.29 569.896 1721.85 568.954 1722.51 567.843C1724.13 565.138 1726.42 561.425 1729.12 557.399C1734.49 549.4 1741.58 539.973 1748.24 534.849C1754.61 529.95 1759.14 525.519 1763.73 521.032L1763.75 521.018C1768.33 516.534 1772.97 511.994 1779.49 506.981C1785.92 502.034 1790.94 498.174 1795.96 494.316L1795.99 494.289L1796.02 494.267C1801.04 490.408 1806.06 486.546 1812.49 481.597C1818.96 476.624 1825.11 472.187 1831.24 467.764L1831.25 467.759C1837.39 463.331 1843.51 458.918 1849.94 453.975C1862.86 444.04 1875.57 434.862 1889.34 426.21C1896.23 421.886 1900.76 420.034 1905.22 418.209L1905.22 418.209C1909.63 416.407 1913.97 414.631 1920.63 410.445C1927.59 406.077 1932.01 404.136 1936.43 402.268C1936.66 402.168 1936.9 402.069 1937.13 401.969C1941.27 400.224 1945.5 398.44 1952.02 394.622C1955.66 392.497 1961.51 390.569 1966.33 389.191C1968.76 388.494 1970.97 387.925 1972.58 387.53C1973.38 387.333 1974.04 387.179 1974.49 387.074C1974.71 387.021 1974.89 386.981 1975.01 386.954L1975.13 386.926L1992.2 381.553L1964.98 369.738C1964.98 369.737 1964.98 369.737 1964.97 369.736C1964.83 369.717 1964.63 369.688 1964.37 369.653C1963.84 369.582 1963.08 369.484 1962.14 369.377C1960.26 369.162 1957.68 368.91 1954.88 368.758C1952.08 368.606 1949.08 368.556 1946.35 368.741C1943.59 368.927 1941.25 369.345 1939.67 370.049C1932.11 373.416 1925.39 374.528 1918.73 375.455C1918.11 375.541 1917.49 375.626 1916.87 375.711C1910.84 376.536 1904.83 377.358 1898.05 379.669C1886.26 383.686 1878.75 386.941 1869.32 391.027C1866.59 392.21 1863.7 393.462 1860.5 394.822C1859.25 395.353 1858.04 395.872 1856.84 396.381C1844.46 401.665 1834.64 405.856 1820.24 409.892C1812.59 412.038 1803.97 416.374 1797.2 420.218C1793.83 422.133 1790.95 423.912 1788.91 425.212C1787.89 425.862 1787.08 426.391 1786.53 426.758C1786.25 426.941 1786.04 427.083 1785.9 427.179C1785.83 427.225 1785.78 427.26 1785.74 427.284L1769.99 440.391L1769.94 440.436L1769.88 440.475L1749.05 454.749L1748.96 454.811L1748.86 454.859L1748.2 453.512C1748.86 454.859 1748.86 454.86 1748.86 454.86L1748.86 454.86L1748.86 454.861L1748.85 454.867L1748.81 454.887L1748.65 454.964C1748.51 455.031 1748.3 455.13 1748.03 455.258C1747.5 455.513 1746.72 455.881 1745.74 456.336C1743.77 457.246 1740.98 458.505 1737.71 459.902C1731.16 462.692 1722.61 466.05 1714.69 468.272C1707.26 470.356 1699.28 476.897 1693.05 483.127C1689.96 486.212 1687.36 489.164 1685.53 491.346C1684.61 492.435 1683.89 493.331 1683.4 493.953C1683.2 494.204 1683.04 494.41 1682.92 494.566L1680.13 533.47Z" fill="#3A5907" stroke="black" stroke-width="3"/>
<path d="M1988.85 380.538C1988.85 380.538 1941.74 380.957 1911.01 391.91C1876.95 404.053 1854.15 418.272 1822.9 436.31C1793.68 453.178 1776.99 475.782 1748.72 494.312C1720.44 512.853 1679.71 536.315 1679.71 536.315" stroke="black" stroke-width="3"/>
<path d="M1689.89 578.95L1686.87 631.358C1686.53 631.136 1686.17 630.894 1685.77 630.635C1683.72 629.303 1680.88 627.515 1677.69 625.692C1674.5 623.872 1670.95 622.006 1667.49 620.527C1664.05 619.057 1660.6 617.924 1657.64 617.647C1652.32 617.149 1648.11 616.028 1643.78 614.875L1643.75 614.867C1639.44 613.718 1635.02 612.539 1629.44 612.016C1623.98 611.504 1619.73 611.105 1615.47 610.705L1615.44 610.702C1611.2 610.303 1606.95 609.904 1601.51 609.394C1596.02 608.88 1590.93 608.632 1585.88 608.387L1585.87 608.386C1580.81 608.14 1575.78 607.895 1570.37 607.388C1559.41 606.361 1548.89 605.842 1538.07 606.347C1532.58 606.603 1529.42 607.609 1526.35 608.582L1526.35 608.583C1523.38 609.528 1520.5 610.441 1515.41 610.679C1509.88 610.937 1506.73 611.805 1503.66 612.721C1503.5 612.77 1503.34 612.818 1503.17 612.867C1500.35 613.713 1497.51 614.564 1492.62 615.025C1489.67 615.303 1485.77 617.029 1482.77 618.551C1481.24 619.332 1479.87 620.095 1478.89 620.663C1478.39 620.948 1478 621.184 1477.72 621.349C1477.59 621.432 1477.48 621.498 1477.41 621.543L1477.37 621.563L1467.19 626.254L1475.22 601.429C1475.28 601.339 1475.36 601.211 1475.47 601.05C1475.69 600.703 1476.02 600.204 1476.44 599.6C1477.26 598.391 1478.41 596.769 1479.71 595.11C1481.02 593.445 1482.46 591.772 1483.85 590.446C1485.3 589.076 1486.53 588.248 1487.42 588.011C1492.86 586.557 1496.8 583.661 1500.51 580.744C1500.86 580.472 1501.2 580.2 1501.54 579.929C1504.91 577.266 1508.17 574.686 1512.47 572.884C1520.08 569.694 1525.22 568.234 1531.74 566.385C1533.63 565.848 1535.64 565.278 1537.86 564.623C1538.72 564.37 1539.56 564.123 1540.38 563.882C1548.91 561.382 1555.75 559.377 1564.78 554.704C1569.4 552.31 1575.52 551.122 1580.59 550.547C1583.1 550.262 1585.32 550.131 1586.91 550.072C1587.7 550.043 1588.34 550.031 1588.77 550.027C1588.99 550.025 1589.15 550.024 1589.26 550.025C1589.29 550.025 1589.31 550.025 1589.33 550.025L1603.05 552.084L1603.15 552.099L1603.25 552.101L1620.08 552.32L1620.24 552.322L1620.41 552.288L1620.1 550.819C1620.41 552.288 1620.41 552.288 1620.41 552.288L1620.41 552.288L1620.41 552.287L1620.42 552.285L1620.45 552.279L1620.57 552.254C1620.67 552.231 1620.82 552.198 1621.01 552.155C1621.4 552.068 1621.95 551.939 1622.65 551.768C1624.05 551.427 1626.02 550.919 1628.29 550.252C1632.82 548.921 1638.63 546.939 1643.63 544.351C1645.74 543.26 1648.45 542.894 1651.46 543.044C1654.45 543.193 1657.61 543.846 1660.52 544.668C1663.43 545.488 1666.04 546.464 1667.93 547.237C1668.88 547.623 1669.64 547.957 1670.16 548.193C1670.32 548.266 1670.46 548.331 1670.58 548.384L1689.89 578.95Z" fill="#3A5907" stroke="black" stroke-width="3"/>
<path d="M1467.91 623.814C1467.91 623.814 1491.34 598.129 1511.53 590.153C1533.9 581.312 1551.67 580.397 1575.36 577.951C1597.52 575.665 1616.12 585.018 1638.56 584.625C1661.02 584.231 1691.88 581.003 1691.88 581.003" stroke="black" stroke-width="3"/>
<path d="M491.185 560.984L491.289 560.946L491.386 560.892L490.664 559.578C491.386 560.892 491.387 560.892 491.387 560.892L491.388 560.891L491.39 560.89L491.401 560.884L491.44 560.862L491.593 560.777C491.727 560.703 491.925 560.592 492.18 560.449C492.69 560.161 493.432 559.74 494.359 559.203C496.215 558.129 498.818 556.591 501.812 554.733C507.791 551.022 515.369 546.008 521.67 540.845C527.569 536.012 537.4 533.31 546.001 531.84C550.258 531.113 554.135 530.7 556.948 530.469C558.354 530.354 559.491 530.284 560.275 530.243C560.589 530.227 560.847 530.215 561.042 530.207L594.27 550.423L601.401 605.007C600.577 604.929 599.51 604.834 598.246 604.734C595.128 604.487 590.809 604.207 586.003 604.076C576.456 603.817 564.763 604.139 556.815 606.598C549.221 608.948 543.049 610.073 536.8 611.211L536.78 611.215C530.534 612.352 524.21 613.503 516.436 615.909C508.767 618.282 502.784 620.132 496.806 621.981L496.76 621.995C490.766 623.849 484.772 625.703 477.084 628.082C469.373 630.468 462.277 632.907 455.204 635.339L455.195 635.342C448.115 637.776 441.058 640.201 433.395 642.573C417.99 647.34 403.319 652.377 388.473 658.581C381.051 661.682 376.977 664.295 372.964 666.87L372.962 666.871C369 669.412 365.098 671.915 357.917 674.915C350.421 678.048 346.333 680.525 342.311 683.038C342.096 683.172 341.881 683.306 341.666 683.441C337.904 685.795 334.057 688.202 327.256 691.302C323.464 693.031 318.575 696.68 314.725 699.8C312.778 701.377 311.06 702.85 309.828 703.928C309.212 704.467 308.717 704.909 308.376 705.216C308.205 705.37 308.072 705.49 307.982 705.572L307.892 705.654L293.865 716.417L299.678 687.454C299.68 687.45 299.682 687.447 299.684 687.443C299.746 687.32 299.838 687.138 299.958 686.904C300.199 686.435 300.552 685.758 300.996 684.933C301.886 683.281 303.141 681.04 304.603 678.677C306.068 676.31 307.726 673.844 309.422 671.732C311.138 669.594 312.805 667.932 314.267 667.058C321.291 662.857 326.011 658.026 330.536 653.149C330.959 652.694 331.379 652.238 331.8 651.783C335.89 647.353 339.963 642.943 345.682 638.767C355.627 631.504 362.531 627.277 371.198 621.97C373.706 620.434 376.363 618.808 379.283 616.992C380.422 616.283 381.534 615.593 382.625 614.917C393.941 607.898 402.919 602.33 414.36 592.956C420.44 587.974 428.851 583.469 435.81 580.19C439.277 578.556 442.358 577.239 444.572 576.33C445.679 575.876 446.567 575.525 447.178 575.287C447.483 575.168 447.719 575.078 447.878 575.018C447.914 575.004 447.946 574.992 447.974 574.981C448.004 574.97 448.029 574.96 448.05 574.953L467.635 569.72L467.703 569.701L467.769 569.677L491.185 560.984Z" fill="#3A5907" stroke="black" stroke-width="3"/>
<path d="M294.925 713.118C294.925 713.118 321.967 675.043 348.289 656.385C377.469 635.701 401.957 625.374 434.34 610.383C464.622 596.364 492.466 595.855 523.559 583.573C554.67 571.284 596.84 551.714 596.84 551.714" stroke="black" stroke-width="3"/>
<path d="M491.734 431.706L491.838 431.738L491.946 431.753L492.166 430.27C491.946 431.753 491.947 431.753 491.947 431.754L491.948 431.754L491.951 431.754L491.963 431.756L492.008 431.762L492.184 431.788C492.338 431.81 492.566 431.842 492.86 431.882C493.449 431.963 494.308 432.077 495.388 432.213C497.548 432.483 500.597 432.839 504.16 433.176C511.273 433.85 520.478 434.457 528.739 434.172C536.488 433.904 546.117 437.721 553.985 441.769C557.881 443.773 561.277 445.796 563.698 447.319C564.908 448.08 565.873 448.715 566.533 449.158C566.801 449.337 567.018 449.485 567.182 449.598L581.742 485.828L554.127 533.594C553.504 533.029 552.685 532.296 551.706 531.435C549.331 529.347 546.002 526.505 542.188 523.487C534.609 517.489 524.942 510.658 517.004 507.796C509.41 505.059 503.719 502.21 497.959 499.325L497.941 499.316C492.184 496.433 486.357 493.514 478.588 490.714C470.906 487.945 464.917 485.785 458.929 483.625L458.921 483.623L458.885 483.61C452.907 481.453 446.924 479.296 439.254 476.531C431.547 473.753 424.305 471.39 417.087 469.035L417.078 469.032C409.852 466.674 402.649 464.324 394.988 461.562C379.59 456.012 364.622 451.122 348.799 447.054C340.892 445.021 335.996 444.629 331.17 444.243L331.168 444.243C326.402 443.861 321.706 443.486 314.048 441.517C306.061 439.464 301.237 438.955 296.441 438.515C296.185 438.491 295.929 438.468 295.672 438.445C291.183 438.036 286.592 437.617 279.181 435.958C275.058 435.035 268.869 434.973 263.84 435.12C261.299 435.194 259.006 435.323 257.35 435.434C256.521 435.489 255.85 435.54 255.385 435.577C255.153 435.596 254.972 435.611 254.849 435.622L254.724 435.632L236.743 435.688L259.165 416.175C259.169 416.173 259.173 416.171 259.178 416.169C259.303 416.108 259.49 416.019 259.731 415.906C260.213 415.679 260.912 415.354 261.777 414.967C263.509 414.193 265.897 413.171 268.528 412.177C271.163 411.182 274.017 410.225 276.684 409.573C279.384 408.913 281.756 408.6 283.484 408.792C291.739 409.71 298.513 408.73 305.162 407.595C305.783 407.488 306.403 407.381 307.022 407.274C313.045 406.231 319.047 405.191 326.24 405.337C338.743 405.592 346.925 406.416 357.195 407.451C360.167 407.75 363.313 408.067 366.79 408.393C368.146 408.52 369.469 408.646 370.767 408.77C384.23 410.049 394.908 411.064 409.909 410.545C417.889 410.27 427.464 411.787 435.111 413.399C438.92 414.203 442.223 415.024 444.573 415.644C445.748 415.954 446.684 416.213 447.324 416.394C447.644 416.485 447.891 416.556 448.056 416.605C448.099 416.617 448.136 416.628 448.167 416.637C448.195 416.645 448.218 416.652 448.238 416.658L467.311 424.374L467.376 424.4L467.442 424.42L491.734 431.706Z" fill="#3A5907" stroke="black" stroke-width="3"/>
<path d="M239.642 433.706C239.642 433.706 284.842 419.816 317.583 420.936C353.881 422.179 380.04 428.814 415.451 436.528C448.564 443.741 471.438 460.224 504.146 469.311C536.873 478.403 583.015 488.409 583.015 488.409" stroke="black" stroke-width="3"/>
<path d="M667.439 466.936L667.352 466.998L667.258 467.047L666.567 465.715C667.258 467.047 667.257 467.047 667.257 467.047L667.256 467.048L667.253 467.049L667.243 467.055L667.201 467.076L667.039 467.16C666.979 467.19 666.906 467.227 666.822 467.27C666.707 467.329 666.571 467.398 666.415 467.477C665.871 467.752 665.077 468.15 664.075 468.643C662.071 469.628 659.234 470.993 655.894 472.514C649.225 475.553 640.512 479.233 632.426 481.749C624.817 484.116 616.711 490.995 610.396 497.485C607.267 500.701 604.629 503.765 602.774 506.026C601.847 507.156 601.117 508.083 600.62 508.726C600.415 508.991 600.249 509.208 600.126 509.371L597.688 548.604L639.816 584.562C640.242 583.808 640.81 582.815 641.501 581.637C643.128 578.858 645.436 575.042 648.157 570.896C653.565 562.656 660.722 552.928 667.477 547.546C673.952 542.387 678.548 537.765 683.197 533.087L683.211 533.073C687.857 528.399 692.557 523.67 699.174 518.397C705.708 513.192 710.804 509.131 715.896 505.072L715.934 505.042L715.961 505.02C721.057 500.959 726.155 496.895 732.693 491.686C739.261 486.454 745.511 481.772 751.742 477.104L751.749 477.099C757.987 472.426 764.205 467.768 770.735 462.566C783.856 452.112 796.772 442.429 810.78 433.237C817.776 428.646 822.386 426.625 826.933 424.631L826.934 424.63C831.427 422.66 835.858 420.718 842.644 416.264C849.712 411.627 854.215 409.519 858.714 407.485C858.955 407.376 859.195 407.267 859.436 407.158C863.652 405.256 867.966 403.308 874.612 399.233C878.297 396.972 884.261 394.828 889.177 393.27C891.661 392.483 893.921 391.832 895.56 391.378C896.38 391.151 897.046 390.973 897.507 390.852C897.738 390.791 897.918 390.744 898.04 390.712L898.168 390.68L915.642 384.649L887.662 373.728C887.656 373.728 887.65 373.727 887.644 373.727C887.503 373.712 887.293 373.69 887.023 373.664C886.483 373.611 885.701 373.54 884.739 373.465C882.813 373.316 880.17 373.153 877.302 373.1C874.43 373.046 871.357 373.102 868.561 373.385C865.734 373.67 863.326 374.175 861.703 374.946C854.016 378.596 847.15 379.953 840.348 381.12C839.713 381.229 839.078 381.337 838.444 381.444C832.277 382.488 826.125 383.529 819.201 386.098C807.175 390.559 799.515 394.102 789.905 398.548C787.124 399.835 784.18 401.197 780.919 402.679C779.648 403.257 778.407 403.822 777.191 404.377C764.568 410.132 754.56 414.695 739.874 419.264C732.05 421.699 723.261 426.371 716.375 430.48C712.944 432.527 710.009 434.421 707.932 435.802C706.894 436.492 706.072 437.054 705.51 437.442C705.229 437.636 705.013 437.787 704.868 437.889C704.84 437.909 704.814 437.927 704.791 437.943C704.757 437.967 704.728 437.987 704.706 438.003C704.706 438.003 704.705 438.003 704.705 438.004L688.72 451.752L688.668 451.796L688.613 451.836L667.439 466.936Z" fill="#3A5907" stroke="black" stroke-width="3"/>
<path d="M914.492 382.979C914.492 382.979 866.26 385.07 834.921 397.18C800.178 410.605 776.985 425.719 745.183 444.976C715.444 462.984 698.601 486.32 669.857 505.967C641.097 525.625 599.642 550.676 599.642 550.676" stroke="black" stroke-width="3"/>
<path d="M573.065 518.582L621.146 548.886C621.617 548 622.297 546.739 623.151 545.195C624.896 542.038 627.373 537.693 630.303 532.937C636.135 523.468 643.853 512.212 651.206 505.536C658.325 499.072 663.354 493.482 668.426 487.844L668.437 487.832C673.507 482.195 678.623 476.509 685.86 469.937C693.038 463.42 698.633 458.337 704.228 453.255L704.235 453.249C709.832 448.165 715.429 443.081 722.61 436.561C729.806 430.028 736.662 424.118 743.502 418.221L743.509 418.216C750.355 412.315 757.185 406.428 764.349 399.922C778.73 386.865 792.896 374.646 808.29 362.755C815.956 356.834 821.026 353.973 826.045 351.141L826.046 351.141C831.021 348.334 835.945 345.556 843.44 339.766C851.188 333.781 856.141 330.847 861.102 327.984C861.368 327.83 861.634 327.677 861.901 327.523C866.563 324.835 871.352 322.075 878.692 316.707C882.7 313.777 889.258 310.565 894.711 308.118C897.458 306.885 899.96 305.831 901.775 305.085C902.683 304.712 903.42 304.415 903.931 304.212C904.187 304.11 904.385 304.032 904.521 303.979L904.676 303.918L904.678 303.917L924.311 294.582L892.839 287.972C892.824 287.973 892.807 287.974 892.79 287.975C892.631 287.983 892.396 287.996 892.093 288.015C891.488 288.051 890.611 288.109 889.532 288.194C887.374 288.364 884.413 288.641 881.201 289.07C877.986 289.499 874.541 290.078 871.407 290.847C868.248 291.622 865.515 292.565 863.655 293.679C855.219 298.731 847.634 301.282 840.074 303.639C839.367 303.859 838.661 304.078 837.954 304.296C831.099 306.418 824.219 308.547 816.514 312.399C803.181 319.066 794.701 324.045 784.08 330.282C781.008 332.085 777.758 333.994 774.16 336.078C772.755 336.892 771.384 337.688 770.041 338.469C756.09 346.571 745.054 352.981 728.798 360.188C720.074 364.055 710.343 370.412 702.751 375.843C698.964 378.552 695.729 381.016 693.441 382.803C692.297 383.697 691.39 384.42 690.771 384.919C690.461 385.169 690.223 385.362 690.063 385.493C689.983 385.558 689.922 385.608 689.882 385.641L689.868 385.653L672.351 402.633L672.309 402.674L672.263 402.712L649.003 421.956L648.932 422.014L648.855 422.063L648.047 420.8C648.855 422.063 648.855 422.064 648.855 422.064L648.854 422.064L648.851 422.066L648.839 422.074L648.793 422.103L648.615 422.216C648.459 422.315 648.228 422.461 647.929 422.649C647.329 423.026 646.454 423.572 645.35 424.251C643.141 425.61 640.011 427.503 636.325 429.642C628.961 433.916 619.344 439.194 610.403 443.157C601.855 446.947 592.916 455.531 586.027 463.334C582.605 467.209 579.731 470.844 577.712 473.509C576.704 474.841 575.91 475.929 575.369 476.683C575.122 477.028 574.928 477.303 574.79 477.499L573.065 518.582Z" fill="#3A5907" stroke="black" stroke-width="3"/>
<path d="M922.788 293.13C922.788 293.13 868.984 303.43 834.296 321.283C795.842 341.074 770.328 360.672 735.305 386.022C702.555 409.727 684.34 436.788 652.742 462.026C621.126 487.279 575.472 520.27 575.472 520.27" stroke="black" stroke-width="3"/>
<path d="M608.62 379.401L608.539 379.489L608.444 379.562L607.522 378.379C608.444 379.562 608.444 379.562 608.444 379.562L608.443 379.563L608.441 379.565L608.432 379.571L608.399 379.597L608.269 379.697C608.156 379.784 607.989 379.912 607.772 380.077C607.339 380.407 606.706 380.884 605.905 381.478C604.303 382.664 602.028 384.315 599.332 386.178C593.949 389.896 586.845 394.483 580.045 397.885C573.747 401.036 567.96 408.513 563.674 415.468C561.556 418.905 559.849 422.139 558.671 424.514C558.083 425.701 557.628 426.671 557.321 427.342C557.204 427.598 557.109 427.811 557.036 427.975L563.591 465.636L609.766 494.558C609.974 493.832 610.239 492.923 610.557 491.869C611.415 489.022 612.66 485.104 614.206 480.82C617.275 472.318 621.614 462.141 626.581 456.146C631.296 450.454 634.428 445.502 637.606 440.478L637.618 440.459C640.792 435.44 644.012 430.348 648.856 424.5C653.638 418.727 657.365 414.226 661.092 409.724C664.82 405.223 668.547 400.722 673.33 394.948C678.128 389.156 682.761 383.926 687.377 378.717L687.384 378.709C692.005 373.493 696.608 368.297 701.373 362.545C710.958 350.975 720.532 340.158 731.21 329.674C736.559 324.422 740.312 321.917 744.001 319.454L744.003 319.453C747.638 317.027 751.208 314.644 756.356 309.589C761.756 304.287 765.391 301.714 769.03 299.217C769.225 299.084 769.419 298.951 769.613 298.817C773.013 296.488 776.482 294.112 781.591 289.429C784.468 286.791 789.44 283.998 793.555 281.909C795.638 280.851 797.549 279.951 798.939 279.315C799.635 278.997 800.2 278.745 800.593 278.572C800.79 278.485 800.943 278.418 801.048 278.373L801.145 278.331L815.475 270.538L787.594 263.603C787.594 263.603 787.593 263.603 787.593 263.603C787.462 263.606 787.268 263.612 787.017 263.62C786.516 263.637 785.791 263.666 784.902 263.714C783.121 263.81 780.689 263.981 778.078 264.284C775.462 264.588 772.693 265.02 770.231 265.631C767.732 266.251 765.702 267.02 764.448 267.919C758.243 272.37 752.275 274.52 746.356 276.473C745.803 276.655 745.251 276.836 744.7 277.016C739.33 278.773 734.003 280.515 728.316 283.798C718.403 289.522 712.251 293.831 704.519 299.247C702.28 300.815 699.908 302.476 697.274 304.291C696.249 304.998 695.248 305.69 694.267 306.368C684.089 313.403 676.004 318.992 663.668 325.164C657.142 328.429 650.229 333.938 644.899 338.693C642.246 341.06 640.007 343.22 638.432 344.787C637.645 345.571 637.025 346.205 636.603 346.643C636.392 346.862 636.23 347.031 636.122 347.145L636.073 347.197C636.049 347.222 636.028 347.244 636.012 347.261L624.574 362.304L624.528 362.364L624.476 362.42L608.62 379.401Z" fill="#3A5907" stroke="black" stroke-width="3"/>
<path d="M814.195 269.022C814.195 269.022 770.86 276.976 745.104 292.37C716.55 309.435 698.864 326.679 674.284 348.929C651.298 369.735 641.215 394.014 619.499 416.256C597.771 438.51 565.719 467.464 565.719 467.464" stroke="black" stroke-width="3"/>
<path d="M707.926 473.931L707.827 473.977L707.722 474.008L707.678 473.862C707.722 474.008 707.721 474.008 707.721 474.008L707.72 474.008L707.716 474.01L707.7 474.014L707.64 474.032C707.587 474.048 707.509 474.071 707.406 474.101C707.2 474.161 706.896 474.249 706.501 474.362C705.712 474.588 704.562 474.913 703.112 475.31C700.212 476.104 696.113 477.188 691.308 478.349C681.71 480.667 669.254 483.302 657.923 484.531C647.102 485.706 634.564 492.905 624.579 499.999C619.622 503.521 615.358 506.969 612.333 509.538C610.821 510.821 609.62 511.884 608.799 512.623C608.391 512.991 608.077 513.279 607.865 513.475L594.942 566.38L642.753 627.127C642.757 627.122 642.761 627.117 642.765 627.112C643.542 626.169 644.673 624.813 646.092 623.152C648.929 619.832 652.921 615.294 657.542 610.421C666.739 600.721 678.577 589.531 688.792 584.101C698.684 578.843 705.941 573.806 713.261 568.724L713.278 568.712C720.594 563.632 727.976 558.507 738.032 553.162C747.99 547.869 755.757 543.739 763.518 539.612L763.566 539.586L763.6 539.568C771.366 535.439 779.136 531.307 789.1 526.011C799.098 520.697 808.543 516.041 817.965 511.396L817.973 511.392C827.403 506.744 836.81 502.106 846.765 496.815C866.747 486.195 886.264 476.565 907.106 467.895C917.487 463.576 924.077 462.085 930.597 460.61L930.599 460.61C937.061 459.148 943.454 457.702 953.598 453.482C964.091 449.117 970.564 447.481 977.027 445.939C977.373 445.857 977.72 445.774 978.067 445.692C984.138 444.248 990.372 442.765 1000.23 439.023C1005.62 436.978 1014.01 435.682 1020.93 434.894C1024.41 434.497 1027.57 434.224 1029.85 434.05C1031 433.963 1031.92 433.901 1032.56 433.861C1032.89 433.841 1033.14 433.826 1033.31 433.816L1033.5 433.805L1033.5 433.805L1059.68 430.129L1023.79 406.942C1023.76 406.933 1023.73 406.924 1023.69 406.913C1023.51 406.854 1023.24 406.769 1022.88 406.66C1022.17 406.443 1021.15 406.136 1019.88 405.775C1017.35 405.053 1013.87 404.12 1010.06 403.274C1006.24 402.427 1002.12 401.673 998.312 401.301C994.467 400.926 991.076 400.955 988.648 401.584C977.608 404.442 968.207 404.435 958.892 404.188C958.02 404.165 957.15 404.14 956.28 404.115C947.832 403.87 939.357 403.625 929.48 405.249C912.387 408.059 901.321 410.803 887.459 414.24C883.451 415.233 879.209 416.285 874.52 417.413C872.689 417.854 870.902 418.286 869.151 418.71C850.968 423.108 836.581 426.589 815.978 428.824C804.927 430.023 792.062 434.002 781.898 437.718C776.83 439.57 772.459 441.347 769.357 442.661C767.806 443.318 766.573 443.858 765.728 444.234C765.306 444.421 764.982 444.568 764.763 444.667L764.667 444.711C764.604 444.74 764.554 444.763 764.517 444.78L764.498 444.788L739.876 459.115L739.816 459.15L739.752 459.18L707.926 473.931Z" fill="#3A5907" stroke="black" stroke-width="3"/>
<path d="M1057 427.199C1057 427.199 992.385 417.068 947.776 425.038C898.324 433.875 863.811 448.102 816.844 465.623C772.923 482.008 744.844 509.071 701.847 527.941C658.826 546.823 597.616 569.593 597.616 569.593" stroke="black" stroke-width="3"/>
<path d="M473.028 607.14L473.127 607.088L473.216 607.022L472.329 605.812C473.216 607.022 473.217 607.022 473.217 607.021L473.218 607.021L473.221 607.018L473.234 607.009L473.284 606.972C473.327 606.94 473.392 606.892 473.477 606.829C473.646 606.704 473.895 606.518 474.217 606.276C474.862 605.793 475.798 605.085 476.968 604.185C479.308 602.387 482.586 599.82 486.339 596.745C493.839 590.602 503.275 582.402 510.935 574.232C518.237 566.444 531.325 560.957 542.835 557.41C548.549 555.65 553.795 554.39 557.614 553.571C559.522 553.161 561.072 552.862 562.142 552.665C562.669 552.569 563.08 552.497 563.36 552.449L612.913 574.415L632.848 648.896C631.644 648.935 629.914 649 627.781 649.107C623.476 649.323 617.524 649.707 610.937 650.383C597.826 651.727 581.97 654.243 571.634 658.985C561.636 663.572 553.367 666.221 545.022 668.892L545.002 668.899C536.661 671.569 528.244 674.264 518.073 678.93C507.991 683.556 500.129 687.162 492.268 690.766L492.256 690.772L492.226 690.785C484.371 694.387 476.514 697.991 466.438 702.614C456.329 707.252 447.068 711.854 437.83 716.446L437.822 716.45C428.577 721.044 419.354 725.628 409.29 730.245C389.088 739.514 369.944 749.019 350.778 760.15C341.229 765.696 336.158 769.977 331.143 774.211L331.141 774.212C326.173 778.407 321.259 782.556 311.936 787.97C302.284 793.576 297.167 797.676 292.133 801.825C291.863 802.047 291.593 802.27 291.323 802.492C286.598 806.391 281.749 810.393 272.974 815.872C268.168 818.872 262.185 824.693 257.482 829.656C255.111 832.157 253.032 834.475 251.547 836.167C250.804 837.014 250.208 837.705 249.798 838.185C249.593 838.425 249.434 838.612 249.326 838.74L249.202 838.886L230.874 857.222L233.67 814.899C233.68 814.873 233.69 814.843 233.701 814.811C233.764 814.63 233.858 814.362 233.98 814.018C234.226 813.33 234.586 812.337 235.046 811.123C235.967 808.694 237.281 805.389 238.858 801.878C240.437 798.362 242.269 794.665 244.221 791.443C246.191 788.191 248.211 785.548 250.133 784.026C258.916 777.072 264.459 769.667 269.758 762.189C270.253 761.49 270.747 760.79 271.24 760.09C276.029 753.296 280.831 746.484 287.939 739.705C300.246 727.966 308.945 720.929 319.844 712.113C322.996 709.563 326.332 706.864 329.992 703.86C331.421 702.688 332.817 701.545 334.186 700.424C348.396 688.792 359.642 679.586 373.567 664.734C381.031 656.774 391.768 649.073 400.705 643.335C405.162 640.474 409.147 638.115 412.017 636.473C413.452 635.652 414.608 635.01 415.403 634.574C415.8 634.356 416.108 634.19 416.315 634.079C416.419 634.023 416.498 633.981 416.55 633.953L416.565 633.945L442.439 623.278L442.504 623.251L442.567 623.218L473.028 607.14Z" fill="#3A5907" stroke="black" stroke-width="3"/>
<path d="M230.115 853.353C230.115 853.353 260.198 796.37 292.825 766.12C328.995 732.585 360.625 714.075 402.211 687.77C441.1 663.171 479.107 657.518 519.421 635.154C559.758 612.778 613.904 578.456 613.904 578.456" stroke="black" stroke-width="3"/>
<path d="M589.546 517.298L591.958 570.68C591.403 570.473 590.753 570.234 590.021 569.971C587.494 569.061 583.989 567.861 580.077 566.698C572.335 564.398 562.718 562.157 555.987 562.805C549.701 563.411 544.64 563.158 539.481 562.899L539.454 562.898C534.304 562.639 529.053 562.375 522.538 563.003C516.131 563.62 511.137 564.1 506.143 564.58L506.139 564.58C501.146 565.06 496.152 565.539 489.747 566.156C483.312 566.776 477.375 567.579 471.47 568.378L471.458 568.38C465.542 569.181 459.656 569.977 453.283 570.591C440.434 571.828 428.155 573.483 415.656 576.219C409.363 577.597 405.84 579.236 402.401 580.837L402.398 580.838C399.029 582.407 395.741 583.937 389.77 585.244C383.422 586.634 379.902 588.136 376.453 589.679C376.27 589.761 376.087 589.843 375.903 589.925C372.702 591.361 369.456 592.816 363.771 594.302C360.48 595.162 356.206 597.644 352.883 599.793C351.192 600.886 349.695 601.928 348.621 602.696C348.084 603.081 347.651 603.397 347.352 603.618C347.202 603.729 347.086 603.816 347.007 603.876L346.949 603.919L335.248 610.951L341.788 584.47C341.845 584.367 341.929 584.218 342.036 584.029C342.26 583.635 342.588 583.066 343 582.375C343.825 580.992 344.982 579.127 346.313 577.192C347.648 575.252 349.139 573.269 350.632 571.636C352.157 569.967 353.555 568.811 354.684 568.339C360.757 565.799 364.956 562.143 368.945 558.455C369.317 558.111 369.687 557.767 370.056 557.424C373.666 554.068 377.211 550.771 382.068 548.045C390.588 543.263 396.441 540.724 403.819 537.523C405.959 536.595 408.227 535.611 410.725 534.501C411.696 534.069 412.645 533.649 413.576 533.238C423.222 528.97 430.914 525.566 440.847 519.049C446.034 515.646 453.092 513.171 458.946 511.541C461.855 510.731 464.433 510.139 466.283 509.75C467.207 509.555 467.949 509.411 468.457 509.317C468.711 509.269 468.906 509.234 469.038 509.211C469.081 509.203 469.118 509.197 469.147 509.192L485.383 508.412L485.471 508.408L485.557 508.394L505.158 505.133L505.296 505.11L505.428 505.062L504.914 503.652C505.428 505.062 505.428 505.062 505.428 505.061L505.429 505.061L505.431 505.06L505.44 505.057L505.475 505.044L505.606 504.995C505.721 504.953 505.89 504.889 506.108 504.806C506.543 504.641 507.175 504.397 507.967 504.083C509.549 503.454 511.77 502.542 514.331 501.408C519.439 499.145 525.95 495.974 531.436 492.374C533.867 490.779 537.08 489.833 540.642 489.355C544.189 488.878 547.975 488.879 551.471 489.1C554.962 489.321 558.128 489.76 560.423 490.144C561.569 490.335 562.495 490.513 563.132 490.642C563.35 490.686 563.534 490.725 563.682 490.756L589.546 517.298Z" fill="#3A5907" stroke="black" stroke-width="3"/>
<path d="M336.056 608.196C336.056 608.196 360.428 577.64 383.012 565.482C408.049 552.005 428.624 547.412 455.915 540.064C481.436 533.192 504.135 538.705 530.209 533.668C556.297 528.628 591.84 519.013 591.84 519.013" stroke="black" stroke-width="3"/>
<path d="M586.694 493.984L569.798 548.249C568.864 547.881 567.529 547.364 565.877 546.743C562.5 545.476 557.795 543.78 552.478 542.064C541.895 538.649 528.717 535.098 518.79 534.794C509.178 534.5 501.725 533.514 494.206 532.518L494.19 532.516C486.674 531.521 479.091 530.517 469.32 530.217C459.625 529.92 452.067 529.688 444.51 529.455L444.378 529.451C436.864 529.219 429.337 528.987 419.699 528.692C409.984 528.395 400.932 528.351 391.901 528.308L391.893 528.308C382.855 528.264 373.838 528.221 364.165 527.924C344.75 527.329 326.042 527.233 306.613 528.184C296.938 528.657 291.224 529.773 285.569 530.878L285.567 530.878C279.961 531.973 274.413 533.057 264.953 533.52C255.173 533.998 249.501 534.983 243.869 536.026C243.567 536.082 243.265 536.138 242.963 536.194C237.671 537.177 232.237 538.186 223.169 538.869C218.218 539.243 211.145 541.057 205.409 542.736C202.519 543.582 199.932 544.405 198.066 545.016C197.133 545.322 196.38 545.575 195.86 545.752C195.6 545.84 195.397 545.91 195.26 545.957L195.103 546.012L195.1 546.012L174.106 551.659L193.753 526.199C193.765 526.19 193.779 526.179 193.792 526.169C193.918 526.072 194.106 525.93 194.348 525.747C194.832 525.381 195.537 524.856 196.412 524.22C198.165 522.948 200.596 521.237 203.317 519.478C206.042 517.717 209.038 515.92 211.92 514.471C214.827 513.009 217.518 511.952 219.656 511.592C229.352 509.957 236.778 506.973 244.057 503.857C244.738 503.566 245.417 503.273 246.097 502.981C252.689 500.144 259.304 497.296 267.665 495.224C282.134 491.638 291.817 489.919 303.945 487.767C307.452 487.145 311.163 486.486 315.253 485.735C316.85 485.442 318.41 485.158 319.938 484.879C335.809 481.984 348.365 479.694 365.408 474.621C374.555 471.899 386.083 470.416 395.384 469.618C400.022 469.22 404.083 468.993 406.984 468.867C408.434 468.804 409.593 468.765 410.388 468.743C410.786 468.731 411.093 468.724 411.299 468.72C411.403 468.717 411.481 468.716 411.533 468.715L411.551 468.715L435.899 470.257L435.958 470.261L436.017 470.26L466.202 469.794L466.294 469.793L466.385 469.78L466.179 468.295C466.385 469.78 466.385 469.78 466.385 469.78L466.386 469.78L466.39 469.78L466.404 469.778L466.457 469.77L466.666 469.741C466.849 469.715 467.12 469.676 467.47 469.624C468.17 469.522 469.19 469.369 470.471 469.168C473.034 468.767 476.643 468.175 480.836 467.409C489.212 465.879 499.953 463.649 509.326 460.859C518.288 458.192 530.661 458.917 540.967 460.379C546.085 461.105 550.631 462.003 553.896 462.72C555.528 463.078 556.839 463.39 557.74 463.613C558.152 463.714 558.478 463.797 558.709 463.857L586.694 493.984Z" fill="#3A5907" stroke="black" stroke-width="3"/>
<path d="M177.065 548.805C177.065 548.805 224.677 521.708 262.65 512.766C304.748 502.853 336.878 501.194 379.974 497.737C420.275 494.503 451.698 503.26 492.117 501.942C532.559 500.622 588.702 496.074 588.702 496.074" stroke="black" stroke-width="3"/>
<path d="M561.576 521.657L614.361 505.722C613.953 504.99 613.427 504.034 612.814 502.895C611.321 500.119 609.309 496.247 607.236 491.864C603.118 483.157 598.661 472.234 597.678 463.887C596.738 455.906 595.256 449.743 593.756 443.504L593.751 443.484C592.251 437.25 590.733 430.938 589.771 422.771C588.822 414.711 588.08 408.423 587.339 402.14L587.334 402.096L587.329 402.059C586.588 395.774 585.846 389.484 584.896 381.421C583.942 373.319 583.286 365.762 582.633 358.23L582.632 358.221C581.978 350.681 581.325 343.165 580.377 335.112C578.471 318.925 577.109 303.304 576.743 287.042C576.56 278.914 577.291 274.078 578.011 269.311L578.011 269.309C578.723 264.603 579.424 259.966 579.247 252.097C579.062 243.887 579.663 239.094 580.324 234.345C580.359 234.091 580.394 233.837 580.43 233.583C581.052 229.138 581.687 224.593 581.755 217.033C581.793 212.824 583.139 206.809 584.425 201.968C585.074 199.521 585.721 197.327 586.206 195.746C586.448 194.955 586.65 194.316 586.792 193.874C586.863 193.653 586.919 193.481 586.957 193.364L586.996 193.246L591.133 175.836L567.035 193.147C567.032 193.151 567.029 193.154 567.027 193.158C566.939 193.265 566.81 193.426 566.645 193.634C566.314 194.05 565.84 194.654 565.266 195.405C564.119 196.908 562.581 198.992 561.016 201.316C559.448 203.645 557.868 206.194 556.627 208.632C555.371 211.099 554.528 213.326 554.323 215.043C553.341 223.255 550.847 229.602 548.23 235.79C547.986 236.368 547.741 236.944 547.495 237.521C545.111 243.123 542.735 248.705 541.244 255.71C538.651 267.888 537.595 276.007 536.269 286.197C535.885 289.146 535.479 292.269 535.007 295.714C534.822 297.057 534.644 298.368 534.469 299.654C532.657 312.996 531.219 323.579 527.305 338.005C525.224 345.677 524.526 355.303 524.359 363.081C524.276 366.956 524.325 370.344 524.394 372.763C524.429 373.972 524.469 374.938 524.5 375.6C524.516 375.931 524.529 376.186 524.539 376.357C524.543 376.439 524.547 376.502 524.549 376.544L527.729 396.784L527.74 396.854L527.745 396.924L529.321 422.126L529.328 422.235L529.319 422.344L527.824 422.22C529.319 422.344 529.319 422.345 529.319 422.345L529.319 422.346L529.318 422.349L529.317 422.361L529.314 422.406L529.298 422.583C529.284 422.737 529.264 422.965 529.236 423.26C529.181 423.849 529.098 424.707 528.984 425.785C528.757 427.941 528.41 430.978 527.929 434.508C526.969 441.557 525.469 450.619 523.314 458.564C521.293 466.012 522.822 476.21 524.976 484.756C526.042 488.987 527.241 492.737 528.174 495.43C528.64 496.775 529.039 497.855 529.32 498.595C529.434 498.894 529.528 499.138 529.6 499.322L561.576 521.657Z" fill="#3A5907" stroke="black" stroke-width="3"/>
<path d="M588.546 178.19C588.546 178.19 564.749 218.859 558.402 250.854C551.365 286.324 551.883 313.19 551.349 349.268C550.85 383.006 561.704 408.92 563.121 442.69C564.54 476.48 563.8 523.482 563.8 523.482" stroke="black" stroke-width="3"/>
<path d="M605.626 536.598L649.075 566.058C648.713 566.232 648.316 566.423 647.89 566.632C645.698 567.705 642.705 569.228 639.505 571.033C636.309 572.836 632.885 574.93 629.84 577.145C626.814 579.345 624.071 581.728 622.316 584.127C619.162 588.437 616.04 591.48 612.834 594.601L612.81 594.624C609.614 597.735 606.334 600.929 603.023 605.452C599.787 609.875 597.264 613.322 594.74 616.769L594.72 616.795C592.203 620.234 589.683 623.674 586.455 628.086C583.199 632.535 580.38 636.775 577.58 640.985L577.572 640.996C574.766 645.215 571.98 649.405 568.766 653.796C562.269 662.675 556.428 671.444 551.316 680.989C548.722 685.834 547.962 689.068 547.228 692.196L547.227 692.199C546.513 695.239 545.824 698.173 543.415 702.672C540.802 707.551 539.935 710.696 539.147 713.803C539.106 713.967 539.064 714.131 539.023 714.295C538.3 717.156 537.575 720.03 535.465 724.462C534.193 727.136 533.673 731.373 533.444 734.727C533.326 736.446 533.281 738.011 533.265 739.145C533.257 739.713 533.256 740.174 533.258 740.495C533.258 740.656 533.26 740.781 533.261 740.867L533.261 740.906L532.069 752.053L514.873 732.429C514.825 732.333 514.757 732.197 514.673 732.024C514.491 731.652 514.232 731.113 513.924 730.45C513.309 729.122 512.505 727.304 511.748 725.335C510.989 723.36 510.289 721.269 509.868 719.388C509.432 717.444 509.352 715.965 509.603 715.082C511.148 709.659 510.681 704.793 510.078 700.111C510.022 699.675 509.965 699.24 509.908 698.808C509.347 694.552 508.804 690.43 509.46 685.816C510.621 677.65 512.005 672.484 513.757 665.943C514.267 664.042 514.807 662.025 515.382 659.785C515.605 658.917 515.824 658.069 516.039 657.238C518.267 648.631 520.052 641.73 520.667 631.586C520.982 626.389 523.098 620.527 525.204 615.878C526.249 613.573 527.274 611.602 528.037 610.209C528.418 609.513 528.733 608.963 528.952 608.588C529.061 608.401 529.146 608.258 529.203 608.163C529.216 608.142 529.226 608.124 529.236 608.108L538.041 597.38L538.106 597.301L538.159 597.214L546.972 582.882L547.059 582.741L547.113 582.584L545.696 582.093C547.113 582.584 547.113 582.584 547.113 582.583L547.113 582.583L547.114 582.58L547.117 582.572L547.127 582.542L547.166 582.429C547.199 582.33 547.247 582.185 547.308 581.997C547.431 581.622 547.606 581.077 547.818 580.389C548.242 579.014 548.813 577.067 549.405 574.773C550.585 570.202 551.866 564.192 552.206 558.574C552.349 556.206 553.424 553.691 555.096 551.185C556.758 548.692 558.938 546.313 561.137 544.234C563.33 542.16 565.509 540.416 567.142 539.189C567.957 538.577 568.633 538.095 569.104 537.768C569.25 537.666 569.377 537.58 569.481 537.509L605.626 536.598Z" fill="#3A5907" stroke="black" stroke-width="3"/>
<path d="M530.341 750.186C530.341 750.186 520.303 716.897 523.803 695.48C527.682 671.738 536.007 656.011 546.054 634.416C555.449 614.222 573.015 603.046 584.185 583.573C595.362 564.088 608.41 535.938 608.41 535.938" stroke="black" stroke-width="3"/>
<rect x="345.5" y="434.5" width="1531" height="408" rx="10.5" fill="#022252" stroke="black" stroke-width="3"/>
<path d="M423.121 770V499.844H517.75C550.53 499.844 575.393 506.152 592.34 518.77C609.286 531.263 617.76 549.632 617.76 573.877C617.76 587.113 614.358 598.802 607.555 608.945C600.751 618.965 591.288 626.325 579.166 631.025C593.02 634.489 603.906 641.478 611.822 651.992C619.863 662.507 623.883 675.371 623.883 690.586C623.883 716.562 615.595 736.23 599.02 749.59C582.444 762.949 558.818 769.753 528.141 770H423.121ZM478.785 652.363V725.283H526.471C539.583 725.283 549.788 722.191 557.086 716.006C564.508 709.697 568.219 701.038 568.219 690.029C568.219 665.29 555.416 652.734 529.811 652.363H478.785ZM478.785 613.027H519.977C548.056 612.533 562.096 601.338 562.096 579.443C562.096 567.197 558.508 558.415 551.334 553.096C544.283 547.653 533.089 544.932 517.75 544.932H478.785V613.027ZM782.525 749.59C769.29 765.671 750.982 773.711 727.604 773.711C706.08 773.711 689.628 767.526 678.248 755.156C666.992 742.786 661.24 724.665 660.992 700.791V569.238H714.615V698.936C714.615 719.84 724.14 730.293 743.189 730.293C761.373 730.293 773.867 723.984 780.67 711.367V569.238H834.479V770H784.01L782.525 749.59ZM983.658 714.521C983.658 707.965 980.38 702.832 973.824 699.121C967.392 695.286 957.001 691.885 942.652 688.916C894.905 678.896 871.031 658.61 871.031 628.057C871.031 610.244 878.391 595.4 893.111 583.525C907.955 571.527 927.314 565.527 951.188 565.527C976.669 565.527 997.018 571.527 1012.23 583.525C1027.57 595.524 1035.24 611.11 1035.24 630.283H981.617C981.617 622.614 979.143 616.305 974.195 611.357C969.247 606.286 961.516 603.75 951.002 603.75C941.972 603.75 934.983 605.791 930.035 609.873C925.087 613.955 922.613 619.15 922.613 625.459C922.613 631.396 925.396 636.221 930.963 639.932C936.653 643.519 946.178 646.673 959.537 649.395C972.896 651.992 984.153 654.961 993.307 658.301C1021.63 668.691 1035.8 686.689 1035.8 712.295C1035.8 730.602 1027.94 745.446 1012.23 756.826C996.523 768.083 976.236 773.711 951.373 773.711C934.55 773.711 919.583 770.742 906.471 764.805C893.482 758.743 883.277 750.518 875.855 740.127C868.434 729.613 864.723 718.294 864.723 706.172H915.562C916.057 715.697 919.583 722.995 926.139 728.066C932.695 733.138 941.477 735.674 952.486 735.674C962.753 735.674 970.484 733.757 975.68 729.922C980.999 725.964 983.658 720.83 983.658 714.521ZM1122.82 591.133C1137.04 574.062 1154.92 565.527 1176.44 565.527C1219.98 565.527 1242.06 590.824 1242.68 641.416V770H1189.06V642.9C1189.06 631.396 1186.58 622.923 1181.64 617.48C1176.69 611.914 1168.46 609.131 1156.96 609.131C1141.25 609.131 1129.87 615.192 1122.82 627.314V770H1069.2V485H1122.82V591.133Z" fill="#F1AA1F"/>
<path d="M1439.18 714.336H1341.58L1323.02 770H1263.83L1364.4 499.844H1415.98L1517.11 770H1457.92L1439.18 714.336ZM1356.61 669.248H1424.15L1390.19 568.125L1356.61 669.248ZM1651.63 619.521C1644.33 618.532 1637.9 618.037 1632.33 618.037C1612.04 618.037 1598.75 624.902 1592.44 638.633V770H1538.81V569.238H1589.47L1590.95 593.174C1601.71 574.743 1616.62 565.527 1635.67 565.527C1641.61 565.527 1647.17 566.331 1652.37 567.939L1651.63 619.521ZM1751.08 519.883V569.238H1785.41V608.574H1751.08V708.77C1751.08 716.191 1752.5 721.51 1755.35 724.727C1758.19 727.943 1763.64 729.551 1771.68 729.551C1777.61 729.551 1782.87 729.118 1787.45 728.252V768.887C1776.93 772.103 1766.11 773.711 1754.98 773.711C1717.37 773.711 1698.2 754.723 1697.46 716.748V608.574H1668.14V569.238H1697.46V519.883H1751.08Z" fill="#F80202"/>
<path d="M1795.48 551.028H1773.5H1727.67H1681.84H1660.21L1637.77 408.863H1817.58L1795.48 551.028Z" fill="#0E0D0D" stroke="black" stroke-width="3"/>
<path d="M1634.98 401.26C1634.98 401.26 1688.24 395.418 1728.44 395.418C1768.64 395.418 1820.36 401.26 1820.36 401.26L1816.77 427.549C1816.77 427.549 1775.81 421.707 1728.18 421.707C1680.56 421.707 1638.06 427.549 1638.06 427.549L1634.98 401.26Z" fill="black"/>
<path d="M1766.83 251.584L1766.72 251.905L1766.76 252.242L1768.54 267.789L1763.19 283.352L1763.08 283.673L1763.12 284.01L1764.9 299.557L1759.55 315.12L1759.44 315.441L1759.48 315.778L1761.26 331.325L1755.92 346.888L1755.81 347.209L1755.84 347.546L1757.64 363.26L1755.92 378.281L1728.23 396.746L1700.53 378.281L1698.81 363.26L1700.61 347.546L1700.65 347.209L1700.54 346.888L1695.19 331.325L1696.97 315.778L1697.01 315.441L1696.9 315.12L1691.56 299.557L1693.34 284.01L1693.37 283.673L1693.26 283.352L1687.92 267.789L1689.7 252.242L1689.74 251.905L1689.63 251.584L1684.28 236.021L1686.06 220.474L1686.1 220.137L1685.99 219.816L1680.64 204.253L1682.42 188.707L1682.46 188.369L1682.35 188.048L1677 172.485L1678.78 156.939L1678.82 156.601L1678.71 156.281L1673.41 140.842L1676.65 129.488L1699.22 126.5H1728.23H1757.24L1781.48 129.479L1783.09 140.738L1777.75 156.281L1777.64 156.601L1777.67 156.939L1779.45 172.485L1774.11 188.048L1774 188.369L1774.04 188.707L1775.82 204.253L1770.47 219.816L1770.36 220.137L1770.4 220.474L1772.18 236.021L1766.83 251.584Z" fill="#F80202" stroke="black" stroke-width="3"/>
<path d="M1759.67 424.938C1759.67 440.24 1745.53 452.958 1727.67 452.958C1709.81 452.958 1695.67 440.24 1695.67 424.938C1695.67 409.636 1709.81 396.918 1727.67 396.918C1745.53 396.918 1759.67 409.636 1759.67 424.938Z" fill="#FCFCFC" stroke="black" stroke-width="3"/>
<path d="M1748.5 424.938C1748.5 434.806 1739.36 443.118 1727.67 443.118C1715.98 443.118 1706.84 434.806 1706.84 424.938C1706.84 415.071 1715.98 406.759 1727.67 406.759C1739.36 406.759 1748.5 415.071 1748.5 424.938Z" fill="#F80202" stroke="black" stroke-width="3"/>
<path d="M1737.34 424.939C1737.34 429.372 1733.19 433.278 1727.67 433.278C1722.15 433.278 1718 429.372 1718 424.939C1718 420.505 1722.15 416.599 1727.67 416.599C1733.19 416.599 1737.34 420.505 1737.34 424.939Z" fill="#0042A6" stroke="black" stroke-width="3"/>
<path d="M1737.65 438.388L1742.21 440.591L1736.82 442.92L1736.09 443.233L1735.94 444.01L1735.06 448.547L1734.94 449.156L1735.28 449.671L1740.15 456.911L1740.92 458.057L1742.13 457.384L1756.08 449.594L1767.61 454.486L1773 471.092L1764.95 498.636L1757.37 482.73L1754.3 474.62L1753.57 472.707L1751.97 473.975L1746.22 478.512L1745.93 478.734L1745.78 479.058L1741.36 488.587L1741.22 488.887V489.219V498.747V499.971L1742.42 500.217L1754.93 502.783L1757.48 508.597L1728.38 503.621L1728.12 503.578L1727.87 503.621L1698.51 508.641L1700.51 502.777L1713.66 500.22L1714.55 500.046L1714.81 499.172L1717.62 489.643L1717.75 489.183L1717.6 488.731L1714.79 480.563L1714.29 479.121L1712.86 479.641L1702.84 483.271L1702.57 483.369L1702.35 483.562L1685.4 498.681L1691.11 471.375L1691.12 471.315L1691.13 471.254L1693.23 454.449L1705.58 449.696L1712.26 457.081L1713.38 458.323L1714.49 457.07L1721.72 448.923L1722.25 448.335L1722.06 447.572L1718.67 433.681L1722.54 427.735L1728.12 424.68L1733.77 427.767L1738.31 433.591L1736.95 436.379L1736.29 437.733L1737.65 438.388Z" fill="#F1AA1F" stroke="black" stroke-width="3"/>
<path d="M1822.76 420.534C1822.7 435.033 1821.75 449.203 1817.09 462.404C1812.23 476.148 1805.13 488.623 1796.18 499.12C1787.23 509.618 1776.62 517.929 1764.97 523.594C1753.31 529.258 1740.83 532.169 1728.23 532.169C1715.63 532.169 1703.15 529.258 1691.49 523.594C1679.83 517.929 1669.22 509.617 1660.28 499.12C1651.33 488.623 1644.22 476.148 1639.37 462.404C1634.72 449.222 1634.28 435.08 1634.25 420.534H1644.68C1644.93 426.377 1646.56 433.049 1648.57 439.499C1650.12 444.504 1651.93 449.474 1653.54 453.886C1654.18 455.656 1654.8 457.336 1655.35 458.894C1658.68 468.351 1663.47 473.785 1669.07 480.153C1670.18 481.409 1671.32 482.701 1672.48 484.068C1672.71 484.331 1672.93 484.595 1673.16 484.861C1680.1 493.015 1688.1 502.404 1697.5 506.975C1706.3 511.249 1716.09 511.193 1725.26 511.141C1726.26 511.136 1727.25 511.13 1728.23 511.13C1729.22 511.13 1730.2 511.136 1731.19 511.141C1740.19 511.193 1749.13 511.245 1757.92 506.975C1767.6 502.269 1776.81 492.47 1783.97 484.068C1784.98 482.887 1785.96 481.761 1786.92 480.667C1792.68 474.057 1797.43 468.603 1800.86 458.894C1801.27 457.726 1801.71 456.491 1802.18 455.203C1803.88 450.467 1805.83 445.007 1807.49 439.484C1809.42 433.033 1810.98 426.368 1811.22 420.534L1822.76 420.534Z" fill="#FEF9F9" stroke="black" stroke-width="3"/>
<path d="M1646.88 527.765C1646.88 535.854 1645.11 543.102 1642.32 548.274C1639.5 553.507 1635.85 556.277 1632.19 556.277C1628.54 556.277 1624.89 553.507 1622.06 548.274C1619.27 543.102 1617.5 535.854 1617.5 527.765C1617.5 519.677 1619.27 512.428 1622.06 507.256C1624.89 502.023 1628.54 499.253 1632.19 499.253C1635.85 499.253 1639.5 502.023 1642.32 507.256C1645.11 512.428 1646.88 519.677 1646.88 527.765Z" fill="white" stroke="black" stroke-width="3"/>
<line y1="-1.5" x2="46.2617" y2="-1.5" transform="matrix(-0.0241392 -0.999709 0.999824 -0.0187447 1636.1 465.282)" stroke="black" stroke-width="3"/>
<line x1="1824.44" y1="465.282" x2="1824.44" y2="419.035" stroke="black" stroke-width="3"/>
<path d="M1654.72 487.645C1654.72 487.645 1651.82 487.602 1652.09 480.275C1652.36 472.947 1653.53 472.557 1653.53 472.557C1653.53 472.557 1653.62 474.625 1661.21 477.63C1668.79 480.635 1668.7 478.567 1668.7 478.567" stroke="black" stroke-width="3"/>
<path d="M1814.67 465.126C1814.67 465.126 1816.15 467.316 1808.95 470.983C1801.74 474.649 1800.75 473.978 1800.75 473.978C1800.75 473.978 1802.7 472.82 1801.59 465.554C1800.48 458.288 1798.54 459.446 1798.54 459.446" stroke="black" stroke-width="3"/>
<path d="M1798.84 495.854C1798.84 495.854 1799.47 498.518 1790.83 499.718C1782.2 500.917 1781.47 499.92 1781.47 499.92C1781.47 499.92 1783.86 499.43 1785.61 491.88C1787.35 484.33 1784.95 484.82 1784.95 484.82" stroke="black" stroke-width="3"/>
<path d="M1767.07 519.84C1767.07 519.84 1766.49 522.34 1758.37 520.756C1750.24 519.172 1750.02 518.085 1750.02 518.085C1750.02 518.085 1752.35 518.389 1757.1 512.373C1761.86 506.357 1759.53 506.052 1759.53 506.052" stroke="black" stroke-width="3"/>
<path d="M1670.35 506.341C1670.35 506.341 1667.46 506.298 1667.72 498.971C1667.99 491.644 1669.16 491.253 1669.16 491.253C1669.16 491.253 1669.25 493.321 1676.84 496.326C1684.43 499.331 1684.34 497.263 1684.34 497.263" stroke="black" stroke-width="3"/>
<path d="M1695.96 522.78C1695.96 522.78 1693.3 523.791 1690.12 517.016C1686.94 510.241 1687.83 509.461 1687.83 509.461C1687.83 509.461 1688.88 511.313 1697.2 511.301C1705.52 511.289 1704.47 509.437 1704.47 509.437" stroke="black" stroke-width="3"/>
<path d="M1733.57 529.867C1733.57 529.867 1731.77 532.268 1724.04 527.601C1716.31 522.935 1716.6 521.716 1716.6 521.716C1716.6 521.716 1718.88 522.895 1726.71 518.359C1734.54 513.823 1732.26 512.644 1732.26 512.644" stroke="black" stroke-width="3"/>
<path d="M1644.08 465.287C1644.08 465.287 1641.65 464.632 1642.84 457.838C1644.02 451.044 1645.06 450.928 1645.06 450.928C1645.06 450.928 1644.86 452.881 1650.83 457.301C1656.81 461.722 1657 459.77 1657 459.77" stroke="black" stroke-width="3"/>
<line y1="-1.5" x2="36.3098" y2="-1.5" transform="matrix(-0.376166 -0.921768 0.799659 -0.609831 1639.15 543.041)" stroke="black" stroke-width="3"/>
<line y1="-1.5" x2="35.0715" y2="-1.5" transform="matrix(-0.483347 0.880593 -0.718079 -0.687703 1640.78 511.543)" stroke="black" stroke-width="3"/>
<line y1="-1.5" x2="18.1549" y2="-1.5" transform="matrix(-0.468813 0.888281 -0.732568 -0.672303 1640 526.608)" stroke="black" stroke-width="3"/>
<line y1="-1.5" x2="17.5357" y2="-1.5" transform="matrix(-0.483347 0.880593 -0.718079 -0.687703 1633.12 511.235)" stroke="black" stroke-width="3"/>
<path d="M1641.02 570.674L1648.88 591.091H1632.44H1616L1624.83 570.674" stroke="black" stroke-width="3"/>
<path d="M1642.23 573.885C1643.28 572.408 1643.86 570.715 1643.92 568.977C1643.97 567.239 1643.51 565.518 1642.56 563.991C1641.62 562.464 1640.23 561.185 1638.54 560.284C1636.85 559.383 1634.92 558.893 1632.95 558.863C1630.97 558.833 1629.02 559.264 1627.3 560.114C1625.57 560.963 1624.13 562.199 1623.13 563.697C1622.12 565.194 1621.59 566.899 1621.57 568.638C1621.56 570.377 1622.07 572.087 1623.06 573.594" stroke="black" stroke-width="3"/>
<path d="M1641.02 570.674L1648.88 591.091H1632.44H1616L1624.83 570.674" stroke="black" stroke-width="3"/>
<path d="M1642.23 573.885C1643.28 572.408 1643.86 570.715 1643.92 568.977C1643.97 567.239 1643.51 565.518 1642.56 563.991C1641.62 562.464 1640.23 561.185 1638.54 560.284C1636.85 559.383 1634.92 558.893 1632.95 558.863C1630.97 558.833 1629.02 559.264 1627.3 560.114C1625.57 560.963 1624.13 562.199 1623.13 563.697C1622.12 565.194 1621.59 566.899 1621.57 568.638C1621.56 570.377 1622.07 572.087 1623.06 573.594" stroke="black" stroke-width="3"/>
<path d="M1632.58 562.363L1641.66 573.826L1647.72 590.097H1632.58H1617.81L1624.25 573.826L1632.58 562.363Z" fill="white"/>
<ellipse cx="1632.95" cy="569.019" rx="9.4637" ry="8.87483" fill="white"/>
<line y1="-1.5" x2="18.2663" y2="-1.5" transform="matrix(-0.244537 0.96964 -0.981363 -0.192163 1627.72 574.289)" stroke="black" stroke-width="3"/>
<line y1="-1.5" x2="17.9572" y2="-1.5" transform="matrix(0.168316 0.985733 -0.9898 0.142465 1634.42 574.289)" stroke="black" stroke-width="3"/>
<path d="M1641.92 478.319L1649.79 498.737H1633.35H1616.91L1625.73 478.319" stroke="black" stroke-width="3"/>
<path d="M1643.14 481.532C1644.18 480.055 1644.76 478.361 1644.82 476.623C1644.88 474.885 1644.41 473.165 1643.47 471.638C1642.53 470.111 1641.14 468.832 1639.45 467.931C1637.76 467.03 1635.83 466.539 1633.85 466.509C1631.88 466.479 1629.93 466.911 1628.2 467.76C1626.48 468.61 1625.04 469.846 1624.03 471.344C1623.03 472.841 1622.49 474.546 1622.48 476.285C1622.47 478.024 1622.98 479.734 1623.96 481.241" stroke="black" stroke-width="3"/>
<path d="M1641.92 478.319L1649.79 498.737H1633.35H1616.91L1625.73 478.319" stroke="black" stroke-width="3"/>
<path d="M1643.14 481.532C1644.18 480.055 1644.76 478.361 1644.82 476.623C1644.88 474.885 1644.41 473.165 1643.47 471.638C1642.53 470.111 1641.14 468.832 1639.45 467.931C1637.76 467.03 1635.83 466.539 1633.85 466.509C1631.88 466.479 1629.93 466.911 1628.2 467.76C1626.48 468.61 1625.04 469.846 1624.03 471.344C1623.03 472.841 1622.49 474.546 1622.48 476.285C1622.47 478.024 1622.98 479.734 1623.96 481.241" stroke="black" stroke-width="3"/>
<path d="M1633.48 470.01L1642.57 481.473L1648.62 497.743H1633.48H1618.72L1625.15 481.473L1633.48 470.01Z" fill="white"/>
<ellipse cx="1633.86" cy="476.665" rx="9.4637" ry="8.87483" fill="white"/>
<line y1="-1.5" x2="18.2663" y2="-1.5" transform="matrix(-0.244537 0.96964 -0.981363 -0.192163 1628.62 481.935)" stroke="black" stroke-width="3"/>
<line y1="-1.5" x2="17.9572" y2="-1.5" transform="matrix(0.168316 0.985733 -0.9898 0.142465 1635.32 481.935)" stroke="black" stroke-width="3"/>
<path d="M1833.14 475.823L1841 496.241H1824.56H1808.12L1816.95 475.823" stroke="black" stroke-width="3"/>
<path d="M1834.35 479.035C1835.4 477.559 1835.98 475.865 1836.04 474.127C1836.09 472.389 1835.63 470.669 1834.68 469.141C1833.74 467.614 1832.35 466.335 1830.66 465.434C1828.97 464.533 1827.04 464.043 1825.07 464.013C1823.09 463.983 1821.14 464.415 1819.42 465.264C1817.69 466.113 1816.25 467.349 1815.25 468.847C1814.24 470.344 1813.71 472.05 1813.69 473.788C1813.68 475.527 1814.19 477.237 1815.18 478.744" stroke="black" stroke-width="3"/>
<path d="M1833.14 475.823L1841 496.241H1824.56H1808.12L1816.95 475.823" stroke="black" stroke-width="3"/>
<path d="M1834.35 479.035C1835.4 477.559 1835.98 475.865 1836.04 474.127C1836.09 472.389 1835.63 470.669 1834.68 469.141C1833.74 467.614 1832.35 466.335 1830.66 465.434C1828.97 464.533 1827.04 464.043 1825.07 464.013C1823.09 463.983 1821.14 464.415 1819.42 465.264C1817.69 466.113 1816.25 467.349 1815.25 468.847C1814.24 470.344 1813.71 472.05 1813.69 473.788C1813.68 475.527 1814.19 477.237 1815.18 478.744" stroke="black" stroke-width="3"/>
<path d="M1824.69 467.513L1833.78 478.976L1839.84 495.247H1824.69H1809.93L1816.37 478.976L1824.69 467.513Z" fill="white"/>
<ellipse cx="1825.07" cy="474.169" rx="9.4637" ry="8.87483" fill="white"/>
<line y1="-1.5" x2="18.2663" y2="-1.5" transform="matrix(-0.244537 0.96964 -0.981363 -0.192163 1819.84 479.438)" stroke="black" stroke-width="3"/>
<line y1="-1.5" x2="17.9572" y2="-1.5" transform="matrix(0.168316 0.985733 -0.9898 0.142465 1826.54 479.438)" stroke="black" stroke-width="3"/>
</svg>
