<svg width="912" height="655" viewBox="0 0 912 655" fill="none" xmlns="http://www.w3.org/2000/svg">
<path d="M362.149 384.913L362.286 384.936L362.425 384.934L362.404 383.434C362.425 384.934 362.425 384.934 362.425 384.934L362.426 384.934L362.429 384.934L362.441 384.934L362.484 384.933L362.651 384.93C362.758 384.928 362.903 384.924 363.083 384.92C363.147 384.918 363.216 384.916 363.289 384.914C363.844 384.899 364.652 384.873 365.667 384.83C367.696 384.744 370.557 384.591 373.888 384.321C380.535 383.783 389.11 382.776 396.693 380.896C400.125 380.045 404.174 380.248 408.404 381.106C412.619 381.962 416.911 383.446 420.78 385.061C424.644 386.675 428.053 388.404 430.498 389.731C431.719 390.394 432.697 390.955 433.367 391.349C433.635 391.507 433.854 391.638 434.02 391.738L452.842 431.666L434.408 492.812C433.796 492.306 433.039 491.687 432.158 490.98C429.667 488.98 426.189 486.275 422.237 483.454C414.403 477.861 404.477 471.64 396.69 469.756C389.335 467.977 383.706 465.714 377.987 463.413L377.962 463.403C372.25 461.105 366.447 458.77 358.869 456.936C351.398 455.129 345.574 453.718 339.75 452.307L339.708 452.297C333.898 450.89 328.083 449.482 320.629 447.678C313.13 445.864 306.12 444.448 299.14 443.039L299.129 443.037C292.139 441.626 285.18 440.22 277.74 438.42C262.762 434.796 248.269 431.862 233.106 430.051C225.495 429.141 220.902 429.599 216.399 430.047L216.397 430.047C211.969 430.488 207.631 430.92 200.346 430.05C192.665 429.132 188.126 429.438 183.638 429.818C183.399 429.838 183.16 429.858 182.921 429.879C178.739 430.236 174.483 430.6 167.46 430.043C163.463 429.726 157.707 430.823 153.11 431.93C150.778 432.492 148.683 433.072 147.173 433.511C146.417 433.731 145.806 433.916 145.382 434.047C145.171 434.112 145.006 434.164 144.893 434.199L144.797 434.229L128.137 437.673L146.319 410.028C146.324 410.023 146.328 410.019 146.333 410.015C146.44 409.921 146.598 409.782 146.803 409.605C147.212 409.25 147.808 408.74 148.546 408.127C150.024 406.899 152.068 405.261 154.338 403.611C156.612 401.958 159.088 400.313 161.431 399.061C163.817 397.786 165.897 397.01 167.426 396.918C175.221 396.449 181.355 394.018 187.302 391.451C187.858 391.212 188.411 390.971 188.964 390.731C194.353 388.387 199.683 386.069 206.273 384.908C217.784 382.879 225.405 382.321 234.993 381.618C237.771 381.414 240.714 381.199 243.965 380.932C245.23 380.828 246.466 380.728 247.677 380.631C260.241 379.619 270.237 378.814 283.983 375.405C291.221 373.611 300.197 373.598 307.452 374.058C311.061 374.287 314.21 374.631 316.455 374.917C317.577 375.061 318.472 375.189 319.085 375.282C319.391 375.328 319.627 375.365 319.785 375.391C319.848 375.401 319.898 375.409 319.936 375.415L338.58 380.878L338.664 380.903L338.749 380.918L362.149 384.913Z" fill="#3A5907" stroke="black" stroke-width="3"/>
<path d="M130.745 434.498C130.745 434.498 170.266 409.832 200.532 405.043C234.084 399.732 259.106 402.618 292.791 405.041C324.291 407.306 347.735 422.32 379.137 426.852C410.557 431.387 454.444 434.491 454.444 434.491" stroke="black" stroke-width="3"/>
<path d="M420.376 250.336L420.45 250.429L420.535 250.507L421.299 249.212C420.535 250.507 420.535 250.507 420.536 250.508L420.536 250.508L420.539 250.511L420.548 250.519L420.583 250.551L420.718 250.676C420.837 250.785 421.013 250.945 421.24 251.152C421.696 251.565 422.36 252.164 423.201 252.908C424.881 254.397 427.266 256.47 430.086 258.811C435.718 263.486 443.123 269.259 450.14 273.573C456.714 277.614 463.036 286.969 467.794 295.591C470.148 299.859 472.077 303.867 473.417 306.81C474.087 308.28 474.608 309.482 474.962 310.313C475.11 310.662 475.228 310.946 475.315 311.156L471.286 357.283L426.817 391.874C426.548 390.933 426.191 389.705 425.756 388.25C424.707 384.744 423.199 379.918 421.365 374.638C417.721 364.146 412.707 351.614 407.363 344.193C402.252 337.096 398.778 330.944 395.261 324.716L395.25 324.696C391.736 318.471 388.178 312.17 382.948 304.907C377.791 297.746 373.768 292.157 369.748 286.573L369.712 286.523C365.68 280.922 361.648 275.321 356.475 268.137C351.287 260.934 346.302 254.423 341.334 247.934L341.328 247.925C336.354 241.429 331.396 234.954 326.24 227.794C315.875 213.402 305.575 199.938 294.194 186.856C288.506 180.317 284.596 177.173 280.744 174.076L280.742 174.074C276.939 171.016 273.193 168.004 267.687 161.676C261.941 155.071 258.144 151.845 254.341 148.708C254.138 148.541 253.934 148.373 253.731 148.206C250.171 145.273 246.53 142.274 241.092 136.406C238.062 133.137 232.927 129.616 228.669 126.963C226.516 125.622 224.547 124.477 223.116 123.668C222.4 123.263 221.818 122.942 221.414 122.721C221.212 122.611 221.054 122.526 220.946 122.468L220.838 122.41L205.595 112.282L233.372 104.305C233.38 104.306 233.388 104.306 233.396 104.307C233.528 104.314 233.723 104.325 233.975 104.341C234.478 104.373 235.206 104.424 236.101 104.503C237.891 104.661 240.339 104.926 242.976 105.357C245.618 105.789 248.425 106.382 250.941 107.19C253.488 108.008 255.603 109.005 256.954 110.166C263.431 115.735 269.52 118.494 275.569 121.019C276.134 121.255 276.698 121.489 277.263 121.722C282.751 123.995 288.217 126.259 294.148 130.425C304.459 137.668 310.913 143.096 319.014 149.908C321.358 151.88 323.841 153.968 326.595 156.25C327.669 157.139 328.716 158.009 329.743 158.862C340.398 167.713 348.851 174.735 361.592 182.567C368.366 186.732 375.671 193.659 381.327 199.61C384.145 202.575 386.533 205.276 388.216 207.235C389.057 208.214 389.721 209.007 390.174 209.554C390.401 209.828 390.574 210.04 390.691 210.182C390.746 210.25 390.788 210.302 390.817 210.338L403.28 229.043L403.323 229.107L403.37 229.166L420.376 250.336Z" fill="#3A5907" stroke="black" stroke-width="3"/>
<path d="M209.198 111.846C209.198 111.846 253.083 122.567 279.885 142.015C309.598 163.574 328.452 185.108 354.54 212.932C378.936 238.951 390.659 268.937 413.881 296.687C437.116 324.453 471.129 360.663 471.129 360.663" stroke="black" stroke-width="3"/>
<path d="M456.569 431.665L475.722 492.906C476.377 492.387 477.203 491.741 478.172 490.997C480.769 489.002 484.396 486.304 488.516 483.492C496.688 477.913 507.026 471.722 515.12 469.858C522.794 468.092 528.669 465.837 534.631 463.547L534.655 463.538C540.61 461.251 546.654 458.93 554.544 457.114C562.331 455.321 568.401 453.922 574.472 452.522C580.542 451.123 586.613 449.724 594.4 447.931C602.215 446.132 609.519 444.731 616.794 443.335L616.805 443.333C624.089 441.936 631.345 440.544 639.101 438.758C654.71 435.164 669.811 432.26 685.606 430.479C693.524 429.586 698.299 430.052 702.987 430.509L702.99 430.509C707.606 430.959 712.136 431.4 719.741 430.543C727.734 429.642 732.455 429.956 737.126 430.344C737.375 430.365 737.624 430.386 737.874 430.407C742.232 430.773 746.674 431.146 754.003 430.602C758.147 430.294 764.125 431.398 768.915 432.514C771.343 433.08 773.522 433.664 775.095 434.106C775.882 434.327 776.518 434.513 776.958 434.644C777.178 434.71 777.35 434.762 777.467 434.797L777.572 434.83L795.019 438.325L776.113 410.651C776.107 410.646 776.101 410.641 776.095 410.636C775.984 410.542 775.819 410.402 775.606 410.225C775.18 409.869 774.56 409.358 773.791 408.743C772.252 407.512 770.123 405.868 767.759 404.213C765.389 402.555 762.809 400.903 760.364 399.644C757.879 398.364 755.695 397.574 754.075 397.478C745.975 396.995 739.602 394.558 733.409 391.98C732.831 391.739 732.254 391.497 731.678 391.256C726.067 388.902 720.505 386.569 713.626 385.392C701.627 383.34 693.68 382.766 683.689 382.044C680.795 381.835 677.73 381.613 674.345 381.34C673.027 381.233 671.739 381.132 670.477 381.032C657.387 379.995 646.982 379.171 632.672 375.738C625.114 373.924 615.746 373.895 608.183 374.341C604.419 374.563 601.135 374.901 598.793 375.183C597.623 375.324 596.689 375.451 596.049 375.542C595.73 375.588 595.484 375.625 595.319 375.65C595.249 375.661 595.194 375.669 595.154 375.675L575.714 381.104L575.633 381.126L575.55 381.14L551.163 385.089L551.032 385.11L550.899 385.108L550.9 385.019C550.898 385.108 550.898 385.108 550.898 385.108L550.897 385.108L550.894 385.108L550.882 385.108L550.837 385.107L550.664 385.103C550.512 385.1 550.289 385.094 550 385.086C549.422 385.07 548.581 385.042 547.524 384.997C545.411 384.907 542.432 384.749 538.963 384.472C532.04 383.921 523.113 382.899 515.224 381.006C511.624 380.142 507.385 380.339 502.968 381.191C498.565 382.04 494.084 383.519 490.047 385.128C486.015 386.735 482.458 388.459 479.908 389.782C478.633 390.443 477.613 391.002 476.914 391.396C476.628 391.556 476.396 391.689 476.222 391.789L456.569 431.665Z" fill="#3A5907" stroke="black" stroke-width="3"/>
<path d="M794.533 435.614C794.533 435.614 753.382 410.872 721.852 406.022C686.897 400.646 660.821 403.483 625.719 405.839C592.894 408.042 568.447 423.01 535.722 427.48C502.977 431.953 457.244 434.971 457.244 434.971" stroke="black" stroke-width="3"/>
<path d="M555.809 327.824L555.698 327.852L555.584 327.863L555.553 327.345C555.584 327.863 555.584 327.863 555.584 327.863L555.583 327.863L555.579 327.864L555.566 327.865L555.514 327.87L555.315 327.889C555.139 327.905 554.881 327.929 554.547 327.958C553.878 328.017 552.904 328.099 551.678 328.191C549.228 328.377 545.77 328.607 541.739 328.784C533.687 329.136 523.297 329.28 514.054 328.426C505.339 327.621 494.137 331.554 484.913 335.858C480.343 337.99 476.334 340.177 473.468 341.831C472.035 342.657 470.89 343.349 470.105 343.834C469.757 344.048 469.48 344.222 469.28 344.349L449.405 386.563L476.083 445.242C476.854 444.596 477.898 443.731 479.164 442.704C482.027 440.381 486.032 437.225 490.597 433.891C499.674 427.263 511.159 419.79 520.32 416.905C529.117 414.135 535.785 411.113 542.527 408.057L542.547 408.048C549.285 404.993 556.099 401.903 565.082 399.075C573.967 396.277 580.895 394.094 587.822 391.911L587.841 391.905L587.865 391.898C594.79 389.716 601.717 387.533 610.601 384.736C619.518 381.928 627.874 379.583 636.204 377.244L636.214 377.242C644.552 374.901 652.866 372.567 661.734 369.775C679.55 364.165 696.821 359.31 714.971 355.482C724.034 353.571 729.562 353.414 735.016 353.258L735.018 353.258C740.41 353.104 745.728 352.953 754.526 351.098C763.682 349.167 769.142 348.867 774.566 348.645C774.856 348.634 775.146 348.622 775.436 348.61C780.518 348.406 785.722 348.198 794.211 346.695C798.911 345.862 805.853 346.174 811.488 346.662C814.333 346.909 816.894 347.206 818.744 347.44C819.669 347.558 820.417 347.66 820.935 347.733C821.193 347.769 821.395 347.798 821.532 347.819L821.677 347.84L842.489 349.067L818.627 324.005C818.614 323.998 818.601 323.99 818.588 323.982C818.452 323.903 818.251 323.785 817.99 323.635C817.469 323.336 816.713 322.907 815.777 322.394C813.903 321.367 811.313 320.005 808.448 318.662C805.578 317.317 802.457 316.003 799.514 315.06C796.538 314.108 793.884 313.583 791.902 313.704C782.563 314.273 775.061 312.693 767.704 310.933C767.016 310.768 766.33 310.603 765.644 310.437C758.979 308.825 752.323 307.215 744.216 306.938C730.143 306.457 720.869 306.922 709.236 307.505C705.87 307.674 702.306 307.853 698.372 308.021C696.838 308.087 695.339 308.153 693.871 308.218C678.628 308.892 666.546 309.425 649.755 307.874C640.801 307.047 629.89 308.247 621.147 309.679C616.79 310.393 613 311.159 610.3 311.747C608.951 312.041 607.875 312.29 607.137 312.465C606.769 312.552 606.485 312.621 606.294 312.668C606.252 312.679 606.214 312.688 606.18 312.696C606.139 312.706 606.106 312.715 606.079 312.722L606.079 312.722L583.921 320.67L583.852 320.694L583.781 320.713L555.809 327.824Z" fill="#3A5907" stroke="black" stroke-width="3"/>
<path d="M841.502 346.42C841.502 346.42 792.043 327.135 755.161 326.412C714.274 325.611 684.264 331.834 643.761 338.755C605.885 345.226 578.636 363.32 541.039 372.037C503.42 380.759 450.647 389.724 450.647 389.724" stroke="black" stroke-width="3"/>
<path d="M541.092 260.833L540.955 260.891L540.811 260.922L540.613 259.434C540.811 260.922 540.811 260.922 540.811 260.922L540.81 260.922L540.807 260.923L540.796 260.925L540.756 260.934L540.603 260.966C540.469 260.994 540.272 261.034 540.017 261.086C539.507 261.188 538.765 261.334 537.83 261.507C535.963 261.852 533.325 262.308 530.242 262.748C524.088 263.626 516.099 264.453 508.888 264.209C505.665 264.1 502.026 265.145 498.3 266.878C494.589 268.605 490.894 270.968 487.601 273.372C484.311 275.772 481.453 278.191 479.416 280.012C478.398 280.921 477.588 281.679 477.034 282.208C476.82 282.412 476.643 282.583 476.509 282.714L465.125 325.982L490.812 382.108C491.273 381.513 491.831 380.801 492.472 379.995C494.457 377.501 497.241 374.103 500.44 370.491C506.777 363.337 514.953 355.098 521.82 351.582C528.266 348.281 533.069 344.87 537.958 341.397L537.982 341.38C542.862 337.912 547.831 334.382 554.495 330.97C561.035 327.62 566.138 325.006 571.237 322.394L571.282 322.371L571.301 322.361C576.408 319.744 581.518 317.126 588.07 313.771C594.658 310.398 600.857 307.521 607.025 304.658L607.036 304.653C613.215 301.785 619.363 298.931 625.892 295.588C639.047 288.852 651.863 282.896 665.456 277.901C672.293 275.39 676.57 274.865 680.752 274.352L680.755 274.352C684.857 273.849 688.867 273.357 695.374 270.966C702.271 268.432 706.475 267.77 710.635 267.192C710.857 267.161 711.078 267.131 711.299 267.1C715.167 266.567 719.095 266.026 725.414 263.996C729.049 262.828 734.492 262.69 738.849 262.806C741.064 262.864 743.064 262.992 744.509 263.104C745.232 263.16 745.818 263.213 746.224 263.252C746.427 263.271 746.586 263.287 746.694 263.298L746.778 263.307L762.345 263.168L741.724 239.839C741.721 239.837 741.717 239.834 741.714 239.832C741.603 239.762 741.438 239.66 741.226 239.528C740.8 239.266 740.183 238.892 739.42 238.445C737.893 237.551 735.789 236.373 733.478 235.233C731.161 234.09 728.666 232.999 726.351 232.265C723.987 231.516 722.001 231.204 720.631 231.431C713.411 232.625 707.432 231.527 701.627 230.262C701.085 230.143 700.545 230.024 700.005 229.905C694.74 228.74 689.553 227.593 683.386 227.845C672.588 228.287 665.557 229.349 656.7 230.688C654.132 231.076 651.412 231.487 648.401 231.913C647.23 232.078 646.087 232.242 644.966 232.403C633.345 234.067 624.086 235.394 611.022 234.951C604.177 234.719 596 236.6 589.447 238.587C586.189 239.575 583.367 240.578 581.361 241.334C580.358 241.712 579.561 242.027 579.016 242.247C578.743 242.357 578.534 242.444 578.394 242.502C578.344 242.523 578.302 242.54 578.27 242.554L562.047 251.867L561.966 251.914L561.88 251.951L541.092 260.833Z" fill="#3A5907" stroke="black" stroke-width="3"/>
<path d="M761.698 260.624C761.698 260.624 722.014 244.728 693.675 246.423C662.258 248.301 639.824 256.436 609.411 265.949C580.971 274.845 561.744 294.574 533.723 305.679C505.686 316.79 466.055 329.133 466.055 329.133" stroke="black" stroke-width="3"/>
<path d="M581.864 415.022L581.731 415.012L581.601 414.979L581.849 413.501C581.601 414.979 581.601 414.979 581.601 414.979L581.599 414.979L581.595 414.977L581.58 414.974L581.521 414.958L581.445 414.938C581.403 414.927 581.353 414.914 581.294 414.899C581.095 414.846 580.802 414.769 580.422 414.666C579.662 414.461 578.557 414.158 577.169 413.763C574.394 412.973 570.489 411.815 565.961 410.343C556.918 407.404 545.34 403.196 535.323 398.143C530.64 395.781 524.903 394.699 518.838 394.454C512.788 394.211 506.513 394.805 500.814 395.715C495.12 396.624 490.034 397.843 486.371 398.835C484.54 399.332 483.067 399.77 482.054 400.084C481.551 400.24 481.162 400.365 480.898 400.451L446.372 448.711L459.165 539.026C460.22 538.484 461.682 537.744 463.468 536.87C467.315 534.986 472.669 532.474 478.696 529.963C490.68 524.972 505.573 519.875 516.568 519.907C527.137 519.939 535.416 518.732 543.787 517.51L543.812 517.507C552.174 516.286 560.63 515.052 571.418 515.084C582.079 515.115 590.396 515.138 598.707 515.161L598.759 515.161C607.088 515.183 615.417 515.206 626.101 515.238C636.813 515.269 646.768 515.68 656.693 516.089L656.704 516.089C666.639 516.499 676.545 516.907 687.198 516.939C708.6 517.002 729.178 517.84 750.438 520.423C761.053 521.712 767.238 523.843 773.34 525.945L773.342 525.946C779.373 528.024 785.322 530.074 795.625 531.326C806.35 532.628 812.5 534.54 818.587 536.542C818.912 536.649 819.238 536.756 819.564 536.864C825.265 538.744 831.103 540.669 840.962 542.259C846.424 543.14 854.043 546.496 860.157 549.533C863.245 551.066 866.003 552.546 867.988 553.642C868.981 554.19 869.783 554.643 870.336 554.96C870.613 555.118 870.828 555.242 870.975 555.327C871.009 555.347 871.04 555.364 871.066 555.38C871.091 555.394 871.113 555.407 871.131 555.418L894.774 566.276L874.876 521.311C874.856 521.285 874.833 521.256 874.808 521.223C874.68 521.059 874.489 520.816 874.243 520.506C873.75 519.884 873.032 518.991 872.139 517.908C870.352 515.742 867.866 512.825 865.068 509.816C862.266 506.802 859.173 503.721 856.17 501.212C853.131 498.674 850.33 496.847 848.095 496.169C837.56 492.974 829.689 487.69 822.033 482.232C821.317 481.721 820.603 481.21 819.889 480.698C812.952 475.724 806.022 470.756 797.097 466.953C781.61 460.351 771.178 457.045 758.092 452.897C754.306 451.696 750.297 450.426 745.88 448.984C744.157 448.422 742.474 447.876 740.825 447.341C723.704 441.784 710.135 437.379 691.938 428.2C682.234 423.305 669.773 420.286 659.652 418.493C654.609 417.6 650.179 417.017 647.011 416.658C645.428 416.478 644.161 416.354 643.292 416.275C642.858 416.236 642.523 416.208 642.297 416.19C642.185 416.181 642.1 416.174 642.043 416.17L642.042 416.17L615.142 417.386L615.06 417.39L614.976 417.384L581.864 415.022Z" fill="#3A5907" stroke="black" stroke-width="3"/>
<path d="M893.645 561.354C893.645 561.354 844.287 514.69 803.539 498.109C758.366 479.728 723.246 475.321 676.272 467.401C632.346 459.995 596.866 472.59 552.601 468.296C508.31 464.001 447.121 453.612 447.121 453.612" stroke="black" stroke-width="3"/>
<path d="M326.391 422.988L326.528 422.989L326.664 422.965L326.487 421.476C326.664 422.965 326.664 422.965 326.665 422.965L326.666 422.964L326.67 422.964L326.685 422.961L326.743 422.95C326.794 422.941 326.87 422.927 326.969 422.909C327.166 422.872 327.458 422.817 327.835 422.744C328.589 422.599 329.687 422.382 331.065 422.095C333.822 421.522 337.703 420.67 342.209 419.553C351.207 417.323 362.75 414.023 372.802 409.757C377.485 407.77 383.145 407.136 389.096 407.363C395.032 407.59 401.152 408.669 406.696 410.018C412.234 411.367 417.163 412.978 420.709 414.252C422.48 414.889 423.904 415.441 424.882 415.833C425.365 416.026 425.739 416.18 425.993 416.286L457.678 467.128L441.085 556.207C440.08 555.588 438.703 554.751 437.028 553.761C433.342 551.583 428.206 548.661 422.409 545.688C410.888 539.778 396.51 533.532 385.717 532.709C375.36 531.92 367.302 530.074 359.152 528.205L359.126 528.199C350.984 526.332 342.747 524.444 332.166 523.637C321.733 522.842 313.591 522.22 305.458 521.598L305.36 521.591L305.351 521.59C297.189 520.966 289.025 520.342 278.554 519.544C268.051 518.744 258.273 518.38 248.525 518.018L248.514 518.017C238.756 517.654 229.028 517.292 218.586 516.496C197.601 514.897 177.388 514.136 156.428 515.061C145.956 515.523 139.791 517.171 133.714 518.795L133.712 518.796C127.708 520.4 121.791 521.981 111.642 522.43C101.063 522.897 94.9437 524.328 88.8843 525.853C88.5602 525.934 88.2363 526.016 87.9121 526.098C82.2392 527.531 76.4355 528.997 66.7052 529.817C61.2985 530.272 53.6684 533.034 47.5392 535.589C44.4421 536.879 41.6714 538.142 39.6752 539.081C38.6767 539.551 37.8708 539.941 37.3134 540.214C37.0347 540.35 36.818 540.458 36.6704 540.531C36.6056 540.563 36.5541 540.589 36.5164 540.608L12.8969 549.587L34.4314 506.255C34.4523 506.231 34.4757 506.204 34.5015 506.174C34.6344 506.02 34.8319 505.793 35.0874 505.502C35.5986 504.921 36.3417 504.085 37.2657 503.075C39.115 501.053 41.6824 498.336 44.5599 495.552C47.4418 492.763 50.6106 489.931 53.6642 487.663C56.7569 485.367 59.575 483.77 61.781 483.27C72.265 480.897 80.2266 476.232 87.9773 471.38C88.7022 470.927 89.4247 470.472 90.1471 470.017C97.1723 465.593 104.183 461.178 113.094 458.08C128.569 452.698 138.939 450.21 151.953 447.088C155.719 446.184 159.706 445.228 164.102 444.132C165.816 443.705 167.49 443.291 169.132 442.885C186.164 438.671 199.669 435.329 217.925 427.582C227.647 423.456 239.989 421.413 249.989 420.411C254.971 419.911 259.338 419.674 262.458 419.561C264.017 419.504 265.264 419.479 266.119 419.468C266.547 419.463 266.876 419.461 267.098 419.46C267.206 419.46 267.289 419.46 267.345 419.46C267.346 419.46 267.347 419.46 267.348 419.46L293.655 422.762L293.74 422.773L293.825 422.773L326.391 422.988Z" fill="#3A5907" stroke="black" stroke-width="3"/>
<path d="M14.1993 544.767C14.1993 544.767 64.6789 502.046 105.367 488.669C150.475 473.84 185.1 472.17 231.503 467.917C274.895 463.94 309.109 479.26 352.694 478.414C396.304 477.568 456.752 471.955 456.752 471.955" stroke="black" stroke-width="3"/>
<path d="M463.655 394.429L441.818 451.632C441.494 451.174 441.127 450.658 440.72 450.094C439.02 447.734 436.633 444.524 433.889 441.126C431.149 437.731 428.037 434.129 424.887 430.996C421.757 427.882 418.504 425.145 415.48 423.566C409.993 420.701 405.903 417.625 401.715 414.473L401.687 414.451C397.512 411.309 393.238 408.091 387.505 405.098C381.889 402.166 377.512 399.879 373.134 397.592L373.126 397.588C368.751 395.302 364.375 393.016 358.762 390.085C353.114 387.137 347.801 384.659 342.523 382.197L342.51 382.191C337.22 379.724 331.965 377.272 326.385 374.359C315.114 368.474 304.124 363.34 292.463 359.212C286.558 357.122 282.854 356.865 279.262 356.616L279.258 356.615C275.76 356.373 272.374 356.138 266.857 354.186C260.908 352.08 257.272 351.68 253.693 351.364C253.503 351.347 253.314 351.331 253.125 351.314C249.821 351.027 246.495 350.737 241.128 349.125C237.926 348.164 233.194 348.38 229.473 348.768C227.569 348.967 225.851 349.22 224.609 349.423C223.988 349.525 223.485 349.614 223.135 349.679C222.96 349.711 222.824 349.737 222.73 349.755L222.68 349.765L209.72 350.58L227.365 326.043C227.366 326.042 227.367 326.041 227.369 326.04C227.463 325.964 227.604 325.851 227.785 325.708C228.148 325.421 228.676 325.01 229.327 324.518C230.632 323.533 232.429 322.231 234.402 320.953C236.381 319.672 238.505 318.436 240.47 317.567C242.497 316.672 244.124 316.274 245.186 316.4C251.456 317.147 256.636 315.654 261.601 314.031C262.064 313.88 262.525 313.727 262.985 313.575C267.498 312.084 271.89 310.632 277.112 310.498C286.326 310.261 292.315 310.874 299.889 311.65C302.088 311.875 304.421 312.114 307.006 312.35C308.008 312.442 308.987 312.533 309.947 312.623C319.893 313.551 327.853 314.294 339.072 313.029C344.854 312.377 351.791 313.719 357.384 315.282C360.16 316.057 362.565 316.875 364.275 317.499C365.129 317.81 365.808 318.073 366.271 318.257C366.503 318.348 366.68 318.421 366.799 318.469C366.828 318.481 366.854 318.492 366.876 318.501L380.74 326.74L380.833 326.795L380.932 326.837L398.727 334.374L398.888 334.442L399.058 334.472L399.221 332.979C399.058 334.472 399.059 334.472 399.059 334.472L399.06 334.472L399.062 334.473L399.072 334.474L399.107 334.48C399.137 334.486 399.181 334.493 399.239 334.503C399.355 334.523 399.525 334.551 399.744 334.586C400.183 334.657 400.821 334.755 401.623 334.869C403.227 335.097 405.491 335.385 408.138 335.631C413.416 336.12 420.283 336.445 426.49 335.745C429.147 335.446 432.179 336.225 435.335 337.701C438.475 339.17 441.613 341.271 444.423 343.449C447.227 345.623 449.666 347.844 451.406 349.523C452.275 350.362 452.966 351.063 453.439 351.553C453.611 351.731 453.754 351.881 453.865 351.999L463.655 394.429Z" fill="#3A5907" stroke="black" stroke-width="3"/>
<path d="M211.812 347.894C211.812 347.894 245.759 329.584 270.01 329.495C296.895 329.395 316.098 336.085 342.129 343.647C366.472 350.719 382.939 369.151 406.925 378.447C430.924 387.749 464.846 397.55 464.846 397.55" stroke="black" stroke-width="3"/>
<path d="M382.072 275.743L382.165 275.803L382.263 275.848L382.684 274.406C382.263 275.848 382.263 275.849 382.264 275.849L382.265 275.849L382.268 275.851L382.28 275.856L382.329 275.879L382.516 275.965C382.681 276.04 382.924 276.15 383.24 276.292C383.87 276.576 384.789 276.986 385.948 277.493C388.265 278.505 391.541 279.902 395.381 281.443C403.051 284.522 413.012 288.193 422.086 290.515C430.681 292.714 440.63 300.335 448.571 307.616C452.509 311.227 455.894 314.699 458.295 317.268C459.495 318.552 460.447 319.608 461.097 320.342C461.231 320.493 461.352 320.63 461.459 320.752C461.588 320.899 461.698 321.025 461.789 321.129L471.737 368.486L433.315 415.904C432.707 415.011 431.867 413.787 430.834 412.314C428.584 409.104 425.416 404.703 421.747 399.941C414.45 390.47 405.03 379.38 396.858 373.498C388.988 367.833 383.222 362.65 377.398 357.413L377.382 357.399C371.561 352.165 365.679 346.876 357.654 341.1C349.706 335.379 343.509 330.918 337.314 326.457L337.309 326.454C331.112 321.992 324.914 317.529 316.964 311.807C308.994 306.071 301.464 300.97 293.955 295.884L293.947 295.879C286.43 290.788 278.935 285.711 271.006 280.004C255.081 268.541 239.519 257.993 222.888 248.135C214.592 243.217 209.314 241.188 204.102 239.183L204.1 239.182C198.942 237.198 193.849 235.24 185.775 230.454C177.391 225.485 172.21 223.341 167.042 221.284C166.765 221.173 166.489 221.063 166.212 220.953C161.364 219.027 156.396 217.053 148.545 212.713C144.219 210.321 137.485 208.263 131.955 206.815C129.165 206.085 126.638 205.499 124.808 205.096C123.893 204.895 123.152 204.739 122.638 204.633C122.381 204.58 122.181 204.539 122.045 204.512L121.896 204.482L101.582 198.576L129.903 182.617C129.918 182.614 129.933 182.61 129.949 182.607C130.097 182.577 130.316 182.532 130.6 182.477C131.166 182.365 131.987 182.21 133 182.035C135.028 181.684 137.817 181.253 140.867 180.935C143.922 180.617 147.215 180.413 150.256 180.507C153.329 180.603 156.013 181.001 157.916 181.8C166.762 185.519 174.311 186.549 181.772 187.358C182.469 187.434 183.166 187.508 183.862 187.582C190.626 188.298 197.391 189.014 205.264 191.509C218.917 195.836 227.746 199.442 238.816 203.963C242.018 205.271 245.407 206.655 249.156 208.155C250.618 208.741 252.045 209.314 253.444 209.877C267.967 215.712 279.471 220.334 295.958 224.552C304.77 226.806 315.021 231.681 323.126 236.036C327.166 238.207 330.649 240.236 333.121 241.721C334.357 242.464 335.339 243.07 336.011 243.49C336.132 243.565 336.242 243.634 336.342 243.697C336.522 243.81 336.668 243.902 336.779 243.973C336.866 244.028 336.931 244.07 336.975 244.098L336.981 244.102L356.583 259.297L356.639 259.341L356.698 259.379L382.072 275.743Z" fill="#3A5907" stroke="black" stroke-width="3"/>
<path d="M105.712 197.123C105.712 197.123 157.497 195.388 193.148 207.246C232.67 220.39 260.199 236.596 297.675 257.044C332.719 276.165 355.014 302.86 389.303 324.049C423.612 345.25 472.453 371.843 472.453 371.843" stroke="black" stroke-width="3"/>
<path d="M455.875 261.505L455.84 261.601L455.794 261.689L454.624 260.745C455.794 261.689 455.794 261.689 455.794 261.689L455.794 261.69L455.792 261.693L455.786 261.705L455.763 261.75L455.672 261.925C455.591 262.078 455.473 262.304 455.319 262.596C455.011 263.18 454.559 264.028 453.984 265.089C452.835 267.212 451.193 270.187 449.22 273.602C445.28 280.424 439.997 289.038 434.669 296.118C429.613 302.837 426.328 314.416 424.312 324.545C423.313 329.569 422.639 334.163 422.215 337.502C422.003 339.17 421.854 340.522 421.758 341.455C421.716 341.863 421.684 342.19 421.662 342.429L438.352 383.586L489.592 396.432C489.576 395.405 489.561 393.994 489.558 392.283C489.551 388.553 489.601 383.391 489.827 377.663C490.276 366.268 491.431 352.415 494.317 343.202C497.099 334.322 498.615 327.042 500.146 319.69L500.149 319.671C501.679 312.321 503.225 304.897 506.059 295.848C508.864 286.893 511.051 279.909 513.236 272.927L513.246 272.896L513.247 272.892C515.436 265.901 517.624 258.91 520.433 249.943C523.248 240.954 526.07 232.7 528.884 224.468L528.887 224.459C531.703 216.22 534.512 208.002 537.314 199.057C542.94 181.094 548.767 164.031 555.708 146.854C559.169 138.29 561.923 133.664 564.646 129.094L564.647 129.093C567.342 124.569 570.004 120.099 573.376 111.755C576.873 103.1 579.503 98.4457 582.166 93.8628C582.309 93.6173 582.451 93.372 582.594 93.1265C585.096 88.8287 587.661 84.422 591.097 76.5447C592.987 72.2124 596.769 66.7093 600 62.3685C601.63 60.1791 603.145 58.2526 604.252 56.8735C604.806 56.1837 605.258 55.6301 605.573 55.2484C605.73 55.0575 605.853 54.9095 605.937 54.8088L606.029 54.698L617.396 38.6041L589.545 43.244C589.536 43.2488 589.527 43.2537 589.517 43.259C589.396 43.3232 589.216 43.419 588.985 43.5441C588.523 43.7944 587.857 44.1614 587.043 44.6264C585.414 45.557 583.2 46.8766 580.855 48.4342C578.506 49.9938 576.045 51.78 573.914 53.6417C571.762 55.5214 570.036 57.4029 569.072 59.1299C564.614 67.1186 559.729 72.3321 554.792 77.3321C554.33 77.7995 553.869 78.2649 553.407 78.7302C548.923 83.249 544.436 87.7713 540.052 94.2798C532.453 105.563 527.946 113.464 522.297 123.369C520.662 126.235 518.933 129.267 517.005 132.598C516.252 133.897 515.519 135.167 514.801 136.412C507.34 149.335 501.432 159.569 491.75 172.435C486.572 179.317 481.685 189.009 478.075 197.046C476.276 201.052 474.803 204.623 473.782 207.192C473.271 208.476 472.873 209.509 472.603 210.22C472.468 210.575 472.365 210.849 472.297 211.034C472.262 211.127 472.236 211.197 472.219 211.243L472.216 211.251L465.838 234.179L465.82 234.243L465.798 234.305L455.875 261.505Z" fill="#3A5907" stroke="black" stroke-width="3"/>
<path d="M614.03 39.7731C614.03 39.7731 576.066 68.9671 556.511 98.8388C534.832 131.955 523.287 160.3 506.758 197.68C491.301 232.635 488.795 265.753 474.921 301.811C461.039 337.89 439.468 386.563 439.468 386.563" stroke="black" stroke-width="3"/>
<path d="M468.562 423.534L491.75 478.767C491.34 478.744 490.885 478.72 490.391 478.698C488.086 478.594 484.913 478.515 481.443 478.612C477.976 478.71 474.191 478.985 470.668 479.597C467.168 480.205 463.826 481.161 461.301 482.681C456.745 485.424 452.781 486.859 448.716 488.329L448.687 488.339C444.635 489.804 440.48 491.306 435.708 494.179C431.043 496.988 427.405 499.177 423.767 501.365L423.756 501.372C420.115 503.562 416.474 505.753 411.804 508.564C407.107 511.392 402.866 514.245 398.655 517.078L398.644 517.085C394.424 519.925 390.232 522.744 385.593 525.537C376.22 531.18 367.443 537.075 358.928 544.188C354.61 547.794 352.538 550.743 350.532 553.598L350.53 553.601C348.58 556.378 346.694 559.062 342.675 562.419C338.326 566.052 336.203 568.849 334.163 571.652C334.055 571.8 333.948 571.948 333.84 572.096C331.962 574.681 330.073 577.281 326.335 580.735C324.09 582.809 321.772 586.935 320.086 590.309C319.222 592.038 318.488 593.645 317.969 594.82C317.71 595.408 317.504 595.89 317.362 596.225C317.291 596.393 317.236 596.525 317.199 596.615L317.181 596.659L311.103 607.846L305.449 577.424C305.452 577.296 305.456 577.109 305.463 576.871C305.477 576.38 305.501 575.672 305.541 574.807C305.62 573.074 305.76 570.724 306.006 568.242C306.253 565.753 306.603 563.173 307.091 560.967C307.595 558.689 308.191 557.085 308.803 556.291C312.501 551.5 314.277 546.168 315.86 540.945C316.008 540.458 316.154 539.973 316.299 539.488C317.728 534.732 319.115 530.115 321.723 525.655C326.334 517.772 329.792 513.147 334.17 507.294C335.441 505.593 336.791 503.789 338.268 501.772C338.841 500.99 339.401 500.227 339.951 499.479C345.645 491.734 350.207 485.528 355.238 475.284C357.822 470.022 362.205 465.077 366.034 461.397C367.934 459.572 369.668 458.085 370.926 457.056C371.554 456.542 372.063 456.142 372.412 455.873C372.587 455.738 372.722 455.636 372.812 455.569C372.833 455.553 372.851 455.539 372.867 455.528L384.995 449.238L385.08 449.194L385.16 449.135L398.898 439.089L399.029 438.993L399.14 438.864L398.251 437.662C399.14 438.864 399.14 438.864 399.14 438.863L399.141 438.863L399.143 438.861L399.149 438.854L399.17 438.828L399.253 438.732C399.324 438.647 399.429 438.523 399.564 438.361C399.833 438.038 400.222 437.566 400.705 436.967C401.671 435.767 403.015 434.054 404.53 431.99C407.551 427.876 411.295 422.318 414.08 416.647C415.262 414.24 417.287 412.209 419.801 410.522C422.303 408.843 425.187 407.575 427.949 406.631C430.706 405.689 433.303 405.083 435.213 404.713C436.167 404.528 436.946 404.403 437.485 404.324C437.667 404.297 437.821 404.276 437.945 404.259L468.562 423.534Z" fill="#3A5907" stroke="black" stroke-width="3"/>
<path d="M310.525 604.635C310.525 604.635 316.992 564.265 329.456 543.852C343.274 521.223 357.226 509.447 375.229 492.504C392.065 476.661 411.695 474.799 429.69 460.699C447.695 446.591 471.123 424.479 471.123 424.479" stroke="black" stroke-width="3"/>
<path d="M549.38 597.222H518.397H454.849H391.301H360.81L329.505 396.929H580.197L549.38 597.222Z" fill="#0E0D0D" stroke="black" stroke-width="3"/>
<path d="M326.324 386.884C326.324 386.884 400.173 378.702 455.914 378.702C511.656 378.702 583.374 386.884 583.374 386.884L578.403 423.699C578.403 423.699 521.597 415.518 455.559 415.518C389.522 415.518 330.585 423.699 330.585 423.699L326.324 386.884Z" fill="black"/>
<path d="M509.699 177.472L509.591 177.79L509.629 178.124L512.113 200.034L504.654 221.961L504.546 222.279L504.584 222.613L507.068 244.523L499.609 266.449L499.501 266.768L499.539 267.102L502.023 289.012L494.564 310.938L494.456 311.256L494.494 311.59L496.997 333.666L494.572 355.053L455.623 381.277L416.675 355.053L414.25 333.666L416.753 311.59L416.791 311.256L416.683 310.938L409.223 289.012L411.708 267.102L411.746 266.768L411.638 266.449L404.178 244.523L406.663 222.613L406.701 222.279L406.593 221.961L399.133 200.034L401.618 178.124L401.656 177.79L401.548 177.472L394.088 155.546L396.573 133.635L396.611 133.301L396.502 132.983L389.043 111.057L391.528 89.1465L391.566 88.8126L391.457 88.4944L383.998 66.5682L386.483 44.6578L386.521 44.3238L386.412 44.0056L378.995 22.203L383.645 5.73932L415.362 1.49999H455.623H495.891L529.975 5.73022L532.287 22.0999L524.834 44.0056L524.726 44.3238L524.764 44.6578L527.249 66.5682L519.789 88.4944L519.681 88.8126L519.719 89.1465L522.204 111.057L514.744 132.983L514.636 133.301L514.674 133.635L517.159 155.546L509.699 177.472Z" fill="#F80202" stroke="black" stroke-width="3"/>
<path d="M499.804 420.042C499.804 441.886 479.846 459.883 454.849 459.883C429.852 459.883 409.894 441.886 409.894 420.042C409.894 398.199 429.852 380.202 454.849 380.202C479.846 380.202 499.804 398.199 499.804 420.042Z" fill="#FCFCFC" stroke="black" stroke-width="3"/>
<path d="M484.319 420.042C484.319 434.275 471.294 446.102 454.849 446.102C438.404 446.102 425.379 434.275 425.379 420.042C425.379 405.81 438.404 393.982 454.849 393.982C471.294 393.982 484.319 405.81 484.319 420.042Z" fill="#F80202" stroke="black" stroke-width="3"/>
<path d="M468.834 420.042C468.834 426.665 462.742 432.322 454.849 432.322C446.956 432.322 440.864 426.665 440.864 420.042C440.864 413.42 446.956 407.762 454.849 407.762C462.742 407.762 468.834 413.42 468.834 420.042Z" fill="#0042A6" stroke="black" stroke-width="3"/>
<path d="M468.929 438.334L476.436 441.993L467.76 445.778L467.036 446.093L466.887 446.868L465.66 453.223L465.543 453.826L465.884 454.338L472.631 464.478L473.403 465.637L474.617 464.953L494.213 453.907L510.693 460.971L518.318 484.667L506.668 524.895L495.505 501.217L491.233 489.836L490.508 487.904L488.894 489.19L480.92 495.545L480.641 495.767L480.491 496.091L474.357 509.436L474.22 509.734V510.062V523.407V524.628L475.416 524.876L493.057 528.531L497.16 537.978L455.733 530.825L455.478 530.781L455.222 530.825L413.54 538.022L416.749 528.524L435.309 524.879L436.204 524.703L436.46 523.827L440.355 510.483L440.488 510.028L440.335 509.579L436.44 498.141L435.945 496.688L434.505 497.216L420.611 502.299L420.338 502.399L420.123 502.593L395.305 524.949L403.58 484.948L403.592 484.889L403.599 484.829L406.556 460.935L424.382 454.01L433.902 464.647L435.03 465.907L436.147 464.637L446.176 453.226L446.691 452.641L446.508 451.884L441.751 432.174L447.333 423.5L455.478 419L463.682 423.533L470.286 432.085L468.235 436.333L467.586 437.679L468.929 438.334Z" fill="#F1AA1F" stroke="black" stroke-width="3"/>
<path d="M587.291 413.275C587.234 433.805 585.948 453.945 579.386 472.715C572.634 492.03 562.742 509.565 550.285 524.325C537.828 539.084 523.054 550.776 506.813 558.746C490.574 566.716 473.18 570.813 455.623 570.813C438.066 570.813 420.672 566.716 404.433 558.746C388.192 550.775 373.418 539.084 360.961 524.325C348.504 509.565 338.612 492.03 331.86 472.715C325.305 453.965 324.75 433.854 324.728 413.275H340.333C340.587 421.507 342.873 431.015 345.713 440.252C347.863 447.247 350.365 454.182 352.591 460.357C353.487 462.84 354.338 465.199 355.104 467.39C359.692 480.516 366.245 488.035 374.012 496.946C375.549 498.71 377.134 500.528 378.76 502.455C379.059 502.81 379.36 503.166 379.662 503.525C389.32 514.977 400.337 528.04 413.268 534.386C425.338 540.31 438.782 540.234 451.511 540.163C452.891 540.155 454.263 540.148 455.623 540.148C456.994 540.148 458.363 540.155 459.728 540.163C472.228 540.234 484.487 540.304 496.545 534.386C509.852 527.855 522.552 514.225 532.486 502.455C533.889 500.792 535.254 499.212 536.578 497.677C544.564 488.423 551.08 480.872 555.793 467.391C556.367 465.75 556.982 464.017 557.624 462.21C559.979 455.58 562.687 447.954 564.976 440.237C567.716 430.999 569.897 421.497 570.14 413.275L587.291 413.275Z" fill="#FEF9F9" stroke="black" stroke-width="3"/>
<path d="M343.406 564.044C343.406 575.453 340.932 585.708 337.007 593.056C333.047 600.468 327.831 604.573 322.453 604.573C317.075 604.573 311.859 600.468 307.899 593.056C303.974 585.708 301.5 575.453 301.5 564.044C301.5 552.635 303.974 542.38 307.899 535.032C311.859 527.62 317.075 523.515 322.453 523.515C327.831 523.515 333.047 527.62 337.007 535.032C340.932 542.38 343.406 552.635 343.406 564.044Z" fill="white" stroke="black" stroke-width="3"/>
<line y1="-1.5" x2="64.7852" y2="-1.5" transform="matrix(-0.0239017 -0.999714 0.999821 -0.018931 327.873 476.541)" stroke="black" stroke-width="3"/>
<line x1="589.616" y1="476.541" x2="589.616" y2="411.775" stroke="black" stroke-width="3"/>
<path d="M353.693 507.858C353.693 507.858 349.676 507.798 350.045 497.537C350.413 487.275 352.037 486.729 352.037 486.729C352.037 486.729 352.162 489.625 362.685 493.833C373.209 498.041 373.084 495.145 373.084 495.145" stroke="black" stroke-width="3"/>
<path d="M575.485 476.322C575.485 476.322 577.546 479.39 567.555 484.525C557.565 489.659 556.186 488.719 556.186 488.719C556.186 488.719 558.885 487.097 557.351 476.922C555.818 466.746 553.119 468.368 553.119 468.368" stroke="black" stroke-width="3"/>
<path d="M553.543 519.354C553.543 519.354 554.412 523.085 542.435 524.765C530.458 526.445 529.445 525.048 529.445 525.048C529.445 525.048 532.772 524.362 535.19 513.789C537.609 503.216 534.282 503.902 534.282 503.902" stroke="black" stroke-width="3"/>
<path d="M509.487 552.945C509.487 552.945 508.679 556.446 497.414 554.227C486.15 552.009 485.847 550.487 485.847 550.487C485.847 550.487 489.068 550.913 495.66 542.488C502.253 534.062 499.032 533.636 499.032 533.636" stroke="black" stroke-width="3"/>
<path d="M375.371 534.041C375.371 534.041 371.355 533.981 371.723 523.719C372.091 513.458 373.716 512.911 373.716 512.911C373.716 512.911 373.841 515.807 384.364 520.015C394.887 524.224 394.762 521.328 394.762 521.328" stroke="black" stroke-width="3"/>
<path d="M410.881 557.063C410.881 557.063 407.193 558.478 402.785 548.991C398.376 539.503 399.605 538.41 399.605 538.41C399.605 538.41 401.057 541.004 412.594 540.987C424.131 540.97 422.678 538.376 422.678 538.376" stroke="black" stroke-width="3"/>
<path d="M463.028 566.988C463.028 566.988 460.533 570.35 449.814 563.815C439.095 557.279 439.496 555.573 439.496 555.573C439.496 555.573 442.659 557.224 453.516 550.871C464.373 544.519 461.21 542.868 461.21 542.868" stroke="black" stroke-width="3"/>
<path d="M338.932 476.548C338.932 476.548 335.57 475.631 337.214 466.116C338.858 456.602 340.292 456.439 340.292 456.439C340.292 456.439 340.02 459.173 348.303 465.364C356.587 471.555 356.858 468.821 356.858 468.821" stroke="black" stroke-width="3"/>
<line y1="-1.5" x2="50.7591" y2="-1.5" transform="matrix(-0.373131 -0.923404 0.796532 -0.613198 332.103 585.437)" stroke="black" stroke-width="3"/>
<line y1="-1.5" x2="49.0223" y2="-1.5" transform="matrix(-0.479503 0.882261 -0.714879 -0.691667 334.36 541.325)" stroke="black" stroke-width="3"/>
<line y1="-1.5" x2="25.3797" y2="-1.5" transform="matrix(-0.465027 0.889851 -0.729457 -0.676323 333.281 562.422)" stroke="black" stroke-width="3"/>
<line y1="-1.5" x2="24.5112" y2="-1.5" transform="matrix(-0.479503 0.88226 -0.71488 -0.691666 323.736 540.895)" stroke="black" stroke-width="3"/>
<path d="M334.692 624.134L345.595 652.727H322.798H300L312.239 624.134" stroke="black" stroke-width="3"/>
<path d="M336.375 628.631C337.823 626.563 338.629 624.191 338.711 621.757C338.792 619.323 338.145 616.914 336.836 614.776C335.527 612.637 333.604 610.846 331.261 609.584C328.918 608.322 326.24 607.635 323.501 607.593C320.761 607.551 318.057 608.156 315.665 609.345C313.273 610.535 311.278 612.266 309.884 614.363C308.49 616.461 307.746 618.848 307.729 621.283C307.712 623.718 308.422 626.113 309.786 628.224" stroke="black" stroke-width="3"/>
<path d="M334.692 624.134L345.595 652.727H322.798H300L312.239 624.134" stroke="black" stroke-width="3"/>
<path d="M336.375 628.631C337.823 626.563 338.629 624.191 338.711 621.757C338.792 619.323 338.145 616.914 336.836 614.776C335.527 612.637 333.604 610.846 331.261 609.584C328.918 608.322 326.24 607.635 323.501 607.593C320.761 607.551 318.057 608.156 315.665 609.345C313.273 610.535 311.278 612.266 309.884 614.363C308.49 616.461 307.746 618.848 307.729 621.283C307.712 623.718 308.422 626.113 309.786 628.224" stroke="black" stroke-width="3"/>
<path d="M322.985 612.495L335.583 628.549L343.982 651.334H322.985H302.513L311.437 628.549L322.985 612.495Z" fill="white"/>
<ellipse cx="323.51" cy="621.816" rx="13.123" ry="12.4285" fill="white"/>
<line y1="-1.5" x2="25.5658" y2="-1.5" transform="matrix(-0.242277 0.970207 -0.981002 -0.193998 316.247 629.196)" stroke="black" stroke-width="3"/>
<line y1="-1.5" x2="25.1408" y2="-1.5" transform="matrix(0.166706 0.986007 -0.989599 0.143852 325.538 629.196)" stroke="black" stroke-width="3"/>
<path d="M335.948 494.799L346.851 523.393H324.054H301.256L313.495 494.799" stroke="black" stroke-width="3"/>
<path d="M337.631 499.297C339.08 497.229 339.886 494.857 339.967 492.423C340.048 489.989 339.401 487.58 338.092 485.441C336.784 483.303 334.86 481.511 332.517 480.25C330.175 478.988 327.497 478.301 324.757 478.259C322.017 478.217 319.313 478.822 316.921 480.011C314.529 481.2 312.534 482.932 311.14 485.029C309.746 487.126 309.002 489.514 308.985 491.949C308.968 494.384 309.678 496.779 311.043 498.89" stroke="black" stroke-width="3"/>
<path d="M335.948 494.799L346.851 523.393H324.054H301.256L313.495 494.799" stroke="black" stroke-width="3"/>
<path d="M337.631 499.297C339.08 497.229 339.886 494.857 339.967 492.423C340.048 489.989 339.401 487.58 338.092 485.441C336.784 483.303 334.86 481.511 332.517 480.25C330.175 478.988 327.497 478.301 324.757 478.259C322.017 478.217 319.313 478.822 316.921 480.011C314.529 481.2 312.534 482.932 311.14 485.029C309.746 487.126 309.002 489.514 308.985 491.949C308.968 494.384 309.678 496.779 311.043 498.89" stroke="black" stroke-width="3"/>
<path d="M324.242 483.16L336.84 499.214L345.239 522H324.242H303.77L312.693 499.214L324.242 483.16Z" fill="white"/>
<ellipse cx="324.767" cy="492.482" rx="13.123" ry="12.4285" fill="white"/>
<line y1="-1.5" x2="25.5657" y2="-1.5" transform="matrix(-0.242275 0.970208 -0.981002 -0.193999 317.503 499.862)" stroke="black" stroke-width="3"/>
<line y1="-1.5" x2="25.1408" y2="-1.5" transform="matrix(0.16671 0.986006 -0.9896 0.143848 326.794 499.862)" stroke="black" stroke-width="3"/>
<path d="M601.097 491.303L612 519.897H589.202H566.405L578.644 491.303" stroke="black" stroke-width="3"/>
<path d="M602.779 495.801C604.228 493.733 605.034 491.361 605.115 488.927C605.196 486.493 604.55 484.084 603.241 481.946C601.932 479.807 600.008 478.016 597.666 476.754C595.323 475.492 592.645 474.805 589.905 474.763C587.166 474.721 584.462 475.326 582.07 476.515C579.677 477.705 577.683 479.436 576.289 481.533C574.894 483.63 574.151 486.018 574.134 488.453C574.117 490.888 574.827 493.283 576.191 495.394" stroke="black" stroke-width="3"/>
<path d="M601.097 491.303L612 519.897H589.202H566.405L578.644 491.303" stroke="black" stroke-width="3"/>
<path d="M602.779 495.801C604.228 493.733 605.034 491.361 605.115 488.927C605.196 486.493 604.55 484.084 603.241 481.946C601.932 479.807 600.008 478.016 597.666 476.754C595.323 475.492 592.645 474.805 589.905 474.763C587.166 474.721 584.462 475.326 582.07 476.515C579.677 477.705 577.683 479.436 576.289 481.533C574.894 483.63 574.151 486.018 574.134 488.453C574.117 490.888 574.827 493.283 576.191 495.394" stroke="black" stroke-width="3"/>
<path d="M589.39 479.665L601.988 495.719L610.387 518.504H589.39H568.918L577.842 495.719L589.39 479.665Z" fill="white"/>
<ellipse cx="589.915" cy="488.986" rx="13.123" ry="12.4285" fill="white"/>
<line y1="-1.5" x2="25.5658" y2="-1.5" transform="matrix(-0.242275 0.970208 -0.981002 -0.194 582.652 496.366)" stroke="black" stroke-width="3"/>
<line y1="-1.5" x2="25.1409" y2="-1.5" transform="matrix(0.166712 0.986006 -0.9896 0.143847 591.943 496.366)" stroke="black" stroke-width="3"/>
</svg>
