<svg width="912" height="654" viewBox="0 0 912 654" fill="none" xmlns="http://www.w3.org/2000/svg">
<path d="M465.774 415.081L451.7 457.623C451.289 457.315 450.81 456.96 450.272 456.566C448.337 455.15 445.634 453.235 442.564 451.237C436.486 447.283 428.749 442.86 422.66 441.518C416.975 440.264 412.624 438.671 408.19 437.045L408.167 437.037C403.739 435.413 399.225 433.758 393.333 432.459C387.546 431.183 383.034 430.187 378.524 429.192L378.506 429.188C373.99 428.191 369.474 427.194 363.68 425.917C357.86 424.634 352.421 423.633 347.01 422.637L346.999 422.635C341.578 421.638 336.186 420.645 330.421 419.374C318.802 416.812 307.554 414.737 295.785 413.456C289.861 412.811 286.282 413.136 282.785 413.453L282.783 413.453C279.355 413.764 276.008 414.068 270.381 413.455C264.406 412.805 260.871 413.022 257.384 413.291C257.198 413.305 257.013 413.319 256.828 413.334C253.588 413.586 250.301 413.842 244.872 413.45C241.736 413.223 237.243 414.006 233.679 414.788C231.866 415.186 230.239 415.597 229.065 415.908C228.477 416.064 228.002 416.195 227.673 416.287C227.508 416.333 227.38 416.37 227.292 416.395L227.229 416.414L215.264 418.667L228.673 400.087C228.754 400.022 228.865 399.933 229.005 399.823C229.321 399.573 229.781 399.215 230.351 398.783C231.493 397.919 233.072 396.765 234.825 395.604C236.582 394.441 238.488 393.287 240.289 392.409C242.128 391.514 243.704 390.984 244.842 390.921C250.925 390.588 255.712 388.858 260.33 387.041C260.761 386.872 261.19 386.702 261.618 386.532C265.799 384.876 269.907 383.248 274.989 382.432C283.904 381 289.802 380.606 297.234 380.11C299.39 379.966 301.674 379.813 304.198 379.624C305.179 379.551 306.138 379.48 307.078 379.411C316.82 378.696 324.586 378.127 335.264 375.714C340.844 374.453 347.779 374.442 353.399 374.767C356.192 374.929 358.63 375.171 360.367 375.373C361.236 375.474 361.928 375.565 362.402 375.63C362.639 375.663 362.821 375.689 362.943 375.707C362.97 375.711 362.995 375.714 363.016 375.718C363.027 375.719 363.037 375.721 363.046 375.722L377.49 379.579L377.567 379.6L377.646 379.612L395.792 382.435L395.917 382.455L396.043 382.453L396.024 380.953C396.043 382.453 396.043 382.453 396.044 382.453L396.044 382.453L396.047 382.453L396.056 382.453L396.09 382.452L396.22 382.45C396.333 382.448 396.5 382.444 396.716 382.439C397.147 382.428 397.774 382.41 398.563 382.379C400.138 382.318 402.36 382.21 404.945 382.019C410.104 381.639 416.767 380.926 422.664 379.594C427.98 378.393 435.138 380.218 441.206 382.527C444.192 383.663 446.827 384.881 448.717 385.816C449.66 386.283 450.416 386.678 450.933 386.955C451.09 387.039 451.226 387.112 451.338 387.174L465.774 415.081Z" fill="#3A5907" stroke="black" stroke-width="3"/>
<path d="M216.385 417.037C216.385 417.037 247.032 399.608 270.501 396.223C296.519 392.47 315.922 394.51 342.043 396.222C366.47 397.822 384.649 408.432 409 411.634C433.364 414.839 467.396 417.033 467.396 417.033" stroke="black" stroke-width="3"/>
<path d="M480.11 362.227L446.17 386.285C445.984 385.698 445.758 384.995 445.496 384.195C444.68 381.713 443.509 378.296 442.084 374.556C439.258 367.142 435.35 358.23 431.163 352.932C427.216 347.937 424.532 343.607 421.806 339.206L421.794 339.187C419.07 334.79 416.301 330.32 412.231 325.171C408.235 320.113 405.116 316.166 402.001 312.222L401.967 312.179C398.841 308.222 395.714 304.264 391.703 299.187C387.676 294.092 383.808 289.488 379.956 284.903L379.95 284.896C376.092 280.305 372.252 275.733 368.257 270.679C360.216 260.503 352.22 250.978 343.384 241.723C338.951 237.079 335.9 234.843 332.907 232.65L332.905 232.649C329.962 230.492 327.076 228.378 322.83 223.929C318.355 219.242 315.393 216.95 312.436 214.727C312.278 214.608 312.121 214.49 311.963 214.372C309.206 212.302 306.398 210.194 302.198 206.064C299.812 203.717 295.792 201.21 292.492 199.336C290.818 198.385 289.286 197.574 288.174 197.001C287.617 196.714 287.164 196.487 286.85 196.33C286.692 196.252 286.57 196.191 286.486 196.15L286.415 196.116L275.487 189.499L295.99 184.134C296.09 184.139 296.229 184.146 296.404 184.156C296.792 184.179 297.355 184.215 298.045 184.271C299.429 184.382 301.32 184.569 303.356 184.872C305.396 185.175 307.557 185.592 309.489 186.157C311.452 186.732 313.044 187.422 314.039 188.202C319.104 192.171 323.865 194.135 328.562 195.921C329 196.088 329.438 196.253 329.875 196.418C334.132 198.025 338.34 199.613 342.908 202.537C350.89 207.647 355.882 211.472 362.161 216.285C363.98 217.679 365.907 219.156 368.047 220.771C368.88 221.4 369.692 222.015 370.489 222.618C378.751 228.872 385.323 233.847 395.224 239.394C400.438 242.315 406.076 247.184 410.457 251.384C412.636 253.474 414.483 255.378 415.785 256.759C416.435 257.449 416.949 258.008 417.299 258.393C417.474 258.585 417.608 258.734 417.697 258.834L417.738 258.88C417.756 258.899 417.77 258.916 417.783 258.93L427.436 272.132L427.479 272.192L427.528 272.247L440.715 287.207L440.791 287.293L440.877 287.366L441.694 286.105C440.877 287.366 440.877 287.366 440.878 287.366L440.878 287.367L440.88 287.368L440.887 287.375L440.915 287.398L441.02 287.486C441.113 287.564 441.25 287.677 441.427 287.824C441.781 288.117 442.297 288.541 442.95 289.068C444.255 290.121 446.107 291.589 448.298 293.246C452.67 296.553 458.427 300.643 463.888 303.703C468.898 306.509 473.757 313.042 477.443 319.129C479.262 322.133 480.752 324.956 481.787 327.027C482.305 328.063 482.707 328.908 482.98 329.493C483.067 329.68 483.141 329.841 483.201 329.972L480.11 362.227Z" fill="#3A5907" stroke="black" stroke-width="3"/>
<path d="M277.221 189.036C277.221 189.036 311.252 196.612 332.035 210.354C355.076 225.589 369.696 240.806 389.926 260.468C408.843 278.854 417.934 300.044 435.941 319.653C453.959 339.274 480.334 364.862 480.334 364.862" stroke="black" stroke-width="3"/>
<path d="M469.427 415.082L484.053 457.701C484.505 457.377 485.039 456.998 485.645 456.574C487.662 455.162 490.48 453.252 493.68 451.261C500.021 447.316 508.075 442.917 514.4 441.59C520.334 440.345 524.876 438.756 529.499 437.139L529.52 437.131C534.137 435.515 538.837 433.87 544.971 432.583C551.006 431.317 555.711 430.329 560.415 429.341L560.424 429.339C565.132 428.35 569.839 427.362 575.878 426.095C581.941 424.823 587.609 423.832 593.249 422.846L593.259 422.844C598.908 421.857 604.531 420.874 610.541 419.612C622.649 417.072 634.368 415.018 646.627 413.758C652.788 413.125 656.507 413.456 660.148 413.779L660.15 413.779C663.724 414.097 667.221 414.407 673.097 413.804C679.313 413.165 682.988 413.388 686.618 413.663C686.811 413.677 687.004 413.692 687.197 413.707C690.574 413.965 694.006 414.228 699.673 413.845C702.921 413.625 707.585 414.412 711.299 415.201C713.185 415.601 714.879 416.015 716.101 416.328C716.712 416.484 717.206 416.616 717.549 416.709C717.72 416.755 717.854 416.792 717.945 416.817L718.016 416.837L730.568 419.129L716.627 400.533C716.542 400.468 716.425 400.377 716.277 400.265C715.948 400.014 715.469 399.655 714.875 399.222C713.686 398.355 712.041 397.198 710.215 396.033C708.384 394.865 706.395 393.706 704.515 392.823C702.6 391.924 700.942 391.383 699.731 391.317C693.413 390.973 688.442 389.24 683.633 387.416C683.184 387.246 682.738 387.075 682.291 386.905C677.939 385.241 673.65 383.601 668.342 382.774C659.049 381.325 652.898 380.92 645.152 380.41C642.907 380.263 640.528 380.106 637.9 379.913C636.878 379.837 635.88 379.765 634.9 379.695C624.75 378.962 616.667 378.379 605.553 375.949C599.724 374.674 592.484 374.652 586.624 374.967C583.71 375.124 581.168 375.362 579.355 375.561C578.449 375.661 577.727 375.75 577.232 375.814C576.985 375.847 576.795 375.873 576.668 375.89C576.621 375.897 576.583 375.902 576.553 375.906L561.491 379.739L561.417 379.758L561.34 379.769L542.429 382.56L542.309 382.578L542.188 382.576L542.208 381.076C542.188 382.576 542.188 382.576 542.187 382.576L542.187 382.576L542.184 382.576L542.175 382.576L542.14 382.575L542.005 382.572C541.887 382.57 541.713 382.566 541.489 382.56C541.04 382.549 540.386 382.529 539.566 382.497C537.925 382.434 535.612 382.322 532.92 382.126C527.547 381.737 520.612 381.013 514.478 379.672C508.902 378.452 501.411 380.278 495.086 382.575C491.969 383.707 489.219 384.922 487.247 385.854C486.262 386.319 485.474 386.714 484.934 386.99C484.763 387.077 484.618 387.153 484.499 387.215L469.427 415.082Z" fill="#3A5907" stroke="black" stroke-width="3"/>
<path d="M731.116 417.826C731.116 417.826 699.206 400.342 674.756 396.915C647.651 393.116 627.43 395.12 600.21 396.785C574.756 398.343 555.799 408.919 530.422 412.078C505.031 415.239 469.567 417.372 469.567 417.372" stroke="black" stroke-width="3"/>
<path d="M463.891 383.175L484.279 424.041C484.843 423.612 485.559 423.074 486.401 422.451C488.624 420.807 491.734 418.574 495.28 416.214C502.322 411.529 511.259 406.226 518.405 404.175C525.211 402.222 530.371 400.092 535.599 397.932L535.616 397.924C540.841 395.766 546.136 393.578 553.115 391.575C560.004 389.599 565.376 388.056 570.746 386.514L570.764 386.509C576.14 384.965 581.516 383.422 588.413 381.443C595.33 379.458 601.813 377.8 608.272 376.147L608.28 376.145C614.747 374.491 621.191 372.842 628.063 370.871C641.883 366.905 655.283 363.472 669.367 360.766C676.412 359.412 680.713 359.3 684.947 359.19L684.949 359.19C689.126 359.082 693.235 358.975 700.039 357.667C707.155 356.3 711.401 356.087 715.613 355.931C715.838 355.922 716.063 355.914 716.288 355.906C720.227 355.762 724.25 355.615 730.819 354.555C734.494 353.962 739.902 354.185 744.271 354.53C746.481 354.704 748.47 354.914 749.906 355.08C750.625 355.164 751.206 355.236 751.608 355.287C751.809 355.313 751.966 355.334 752.073 355.348L752.176 355.362L767.227 356.171L749.642 339.341C749.538 339.285 749.387 339.205 749.194 339.104C748.791 338.893 748.207 338.591 747.483 338.229C746.033 337.506 744.031 336.546 741.816 335.6C739.598 334.652 737.188 333.728 734.921 333.066C732.623 332.396 730.597 332.034 729.099 332.117C721.825 332.521 715.982 331.399 710.272 330.154C709.738 330.038 709.207 329.921 708.675 329.804C703.505 328.664 698.365 327.531 692.102 327.336C681.199 326.997 674.017 327.325 664.998 327.737C662.387 327.856 659.622 327.983 656.569 328.102C655.378 328.148 654.216 328.195 653.077 328.241C641.258 328.717 631.876 329.095 618.84 327.997C611.925 327.415 603.485 328.26 596.71 329.271C593.335 329.775 590.4 330.316 588.309 330.731C587.264 330.938 586.431 331.113 585.861 331.237C585.576 331.299 585.356 331.347 585.209 331.38C585.142 331.395 585.089 331.407 585.053 331.415L567.881 337.028L567.818 337.049L567.752 337.064L546.062 342.089L545.96 342.113L545.856 342.122L545.826 341.671C545.856 342.122 545.856 342.122 545.855 342.122L545.855 342.122L545.852 342.123L545.841 342.124L545.801 342.127L545.646 342.141C545.568 342.147 545.468 342.156 545.349 342.165C545.26 342.173 545.16 342.181 545.049 342.19C544.53 342.231 543.774 342.289 542.822 342.355C540.92 342.486 538.237 342.649 535.108 342.774C528.861 343.023 520.794 343.125 513.611 342.52C506.914 341.956 498.274 344.715 491.127 347.753C487.592 349.257 484.49 350.798 482.272 351.964C481.164 352.547 480.279 353.035 479.672 353.376C479.453 353.499 479.27 353.603 479.126 353.686L463.891 383.175Z" fill="#3A5907" stroke="black" stroke-width="3"/>
<path d="M767.538 354.797C767.538 354.797 729.185 341.169 700.585 340.659C668.879 340.093 645.608 344.49 614.201 349.381C584.83 353.954 563.7 366.74 534.545 372.9C505.374 379.063 464.451 385.398 464.451 385.398" stroke="black" stroke-width="3"/>
<path d="M476.056 340.317L495.657 379.346C495.951 379.002 496.286 378.614 496.656 378.19C498.198 376.424 500.362 374.017 502.849 371.459C507.764 366.402 514.141 360.54 519.519 358.031C524.498 355.707 528.208 353.307 531.999 350.852L532.021 350.838C535.805 348.388 539.671 345.884 544.856 343.465C549.927 341.099 553.884 339.251 557.838 337.405L557.873 337.389L557.903 337.375C561.859 335.528 565.817 333.68 570.892 331.312C576.005 328.926 580.815 326.892 585.597 324.869L585.608 324.865C590.399 322.838 595.163 320.823 600.221 318.463C610.427 313.7 620.375 309.487 630.927 305.954C636.253 304.171 639.588 303.798 642.837 303.435L642.84 303.434C646.015 303.08 649.105 302.734 654.127 301.053C659.496 299.255 662.772 298.785 666.007 298.376C666.179 298.354 666.35 298.332 666.521 298.311C669.518 297.934 672.548 297.554 677.43 296.125C680.289 295.288 684.543 295.192 687.921 295.274C689.644 295.316 691.198 295.406 692.322 295.486C692.884 295.525 693.34 295.563 693.656 295.59C693.814 295.604 693.938 295.615 694.022 295.623L694.075 295.628L705.211 295.537L689.997 279.852C689.914 279.804 689.8 279.74 689.659 279.66C689.331 279.476 688.854 279.213 688.265 278.898C687.085 278.269 685.461 277.44 683.677 276.638C681.889 275.834 679.968 275.069 678.192 274.556C676.371 274.031 674.875 273.822 673.866 273.975C668.224 274.825 663.552 274.042 659.043 273.146C658.623 273.063 658.204 272.978 657.787 272.894C653.702 272.071 649.708 271.266 644.957 271.444C636.597 271.755 631.158 272.504 624.293 273.449C622.301 273.724 620.189 274.014 617.85 274.316C616.942 274.433 616.055 274.549 615.186 274.662C606.175 275.839 598.978 276.778 588.827 276.465C583.557 276.302 577.243 277.623 572.168 279.026C569.647 279.722 567.463 280.43 565.911 280.962C565.136 281.229 564.519 281.451 564.098 281.606C563.888 281.683 563.726 281.744 563.618 281.785C563.587 281.797 563.56 281.807 563.537 281.816L550.971 288.39L550.895 288.43L550.815 288.461L534.695 294.738L534.568 294.787L534.436 294.813L534.215 293.328C534.436 294.813 534.435 294.813 534.435 294.813L534.434 294.813L534.432 294.814L534.424 294.815L534.392 294.821L534.273 294.844C534.221 294.854 534.157 294.866 534.081 294.88C534.005 294.894 533.916 294.911 533.817 294.929C533.42 295.002 532.844 295.105 532.118 295.227C530.667 295.472 528.619 295.794 526.225 296.106C521.448 296.727 515.239 297.313 509.627 297.14C507.177 297.064 504.391 297.789 501.519 299.007C498.661 300.219 495.812 301.879 493.268 303.571C490.727 305.26 488.519 306.963 486.945 308.245C486.159 308.885 485.534 309.418 485.107 309.79C484.985 309.896 484.879 309.989 484.79 310.067L476.056 340.317Z" fill="#3A5907" stroke="black" stroke-width="3"/>
<path d="M705.654 294.17C705.654 294.17 674.881 282.937 652.906 284.134C628.544 285.462 611.148 291.21 587.564 297.932C565.511 304.219 550.601 318.161 528.872 326.008C507.131 333.859 476.399 342.581 476.399 342.581" stroke="black" stroke-width="3"/>
<path d="M461.507 427.209L471.317 490.325C472.098 489.962 473.106 489.5 474.301 488.967C477.287 487.634 481.445 485.856 486.126 484.08C495.421 480.551 507.013 476.932 515.591 476.955C523.769 476.977 530.174 476.126 536.664 475.263L536.687 475.26C543.171 474.398 549.742 473.524 558.125 473.546C566.397 473.569 572.848 473.585 579.297 473.601L579.326 473.601L579.373 473.601C585.816 473.617 592.264 473.633 600.529 473.655C608.839 473.677 616.562 473.967 624.258 474.257L624.268 474.257C631.973 474.546 639.65 474.835 647.906 474.857C664.507 474.902 680.474 475.494 696.971 477.32C705.225 478.234 710.039 479.745 714.775 481.233L714.777 481.233C719.449 482.7 724.044 484.143 732.011 485.025C740.347 485.948 745.131 487.303 749.859 488.72C750.111 488.795 750.363 488.871 750.616 488.947C755.035 490.275 759.547 491.631 767.176 492.752C771.448 493.38 777.385 495.766 782.126 497.911C784.524 498.997 786.666 500.044 788.208 500.82C788.98 501.208 789.602 501.529 790.032 501.753C790.248 501.865 790.415 501.953 790.529 502.013L790.639 502.071L808.053 509.359L793.151 478.673C793.146 478.666 793.139 478.659 793.133 478.652C793.034 478.537 792.888 478.366 792.697 478.147C792.316 477.71 791.762 477.08 791.071 476.317C789.688 474.79 787.766 472.735 785.603 470.615C783.436 468.491 781.048 466.324 778.735 464.563C776.389 462.777 774.251 461.512 772.565 461.046C764.357 458.777 758.225 455.025 752.282 451.163C751.727 450.803 751.173 450.441 750.62 450.08C745.239 446.565 739.889 443.069 732.996 440.392C720.997 435.732 712.92 433.398 702.775 430.468C699.838 429.619 696.727 428.721 693.298 427.701C691.962 427.304 690.657 426.918 689.377 426.539C676.102 422.613 665.564 419.496 651.436 413.001C643.943 409.557 634.306 407.427 626.464 406.162C622.558 405.531 619.128 405.12 616.675 404.866C615.449 404.739 614.468 404.652 613.796 404.596C613.46 404.569 613.201 404.549 613.027 404.536C612.989 404.533 612.955 404.531 612.925 404.529C612.893 404.526 612.865 404.525 612.843 404.523L591.997 405.382L591.92 405.385L591.843 405.38L566.166 403.711L566.043 403.703L565.923 403.675L566.191 402.2C565.923 403.675 565.923 403.675 565.923 403.675L565.922 403.675L565.919 403.674L565.907 403.671L565.861 403.66L565.684 403.618C565.529 403.581 565.301 403.526 565.006 403.453C564.416 403.308 563.558 403.094 562.481 402.814C560.327 402.255 557.296 401.436 553.781 400.396C546.765 398.317 537.774 395.34 529.99 391.762C522.738 388.428 512.275 388.77 503.369 390.065C498.964 390.706 495.03 391.566 492.195 392.266C490.779 392.615 489.64 392.924 488.858 393.146C488.531 393.238 488.267 393.315 488.07 393.373L461.507 427.209Z" fill="#3A5907" stroke="black" stroke-width="3"/>
<path d="M807.972 506.68C807.972 506.68 769.698 473.705 738.1 461.988C703.071 448.999 675.837 445.885 639.412 440.288C605.349 435.055 577.837 443.955 543.511 440.921C509.167 437.885 461.718 430.544 461.718 430.544" stroke="black" stroke-width="3"/>
<path d="M469.531 440.196L456.807 502.446C456.068 502.033 455.122 501.512 454.006 500.911C451.143 499.37 447.155 497.302 442.653 495.198C433.717 491.02 422.525 486.585 414.103 486C406.09 485.444 399.857 484.143 393.537 482.822L393.514 482.817C387.2 481.498 380.799 480.161 372.577 479.59C364.457 479.026 358.126 478.585 351.796 478.144L351.791 478.143C345.459 477.702 339.126 477.261 331.004 476.697C322.855 476.131 315.27 475.874 307.712 475.618L307.701 475.618C300.134 475.361 292.595 475.106 284.502 474.544C268.224 473.413 252.541 472.874 236.276 473.529C228.133 473.857 223.335 475.025 218.617 476.174L218.615 476.174C213.965 477.307 209.394 478.42 201.547 478.736C193.324 479.067 188.564 480.081 183.857 481.16C183.606 481.218 183.355 481.276 183.104 481.334C178.707 482.346 174.221 483.378 166.693 483.956C162.463 484.281 156.517 486.245 151.764 488.05C149.359 488.964 147.207 489.857 145.656 490.522C144.881 490.855 144.255 491.131 143.821 491.324C143.605 491.421 143.436 491.497 143.321 491.549L143.213 491.598L125.823 497.623L141.951 468.05C141.956 468.044 141.962 468.038 141.968 468.031C142.07 467.924 142.223 467.764 142.42 467.559C142.815 467.15 143.39 466.561 144.104 465.849C145.534 464.424 147.52 462.509 149.744 460.548C151.973 458.583 154.418 456.591 156.771 454.999C159.158 453.384 161.308 452.279 162.971 451.936C171.139 450.251 177.342 446.937 183.359 443.505C183.921 443.185 184.481 442.863 185.041 442.542C190.49 439.415 195.902 436.31 202.784 434.129C214.773 430.329 222.803 428.574 232.892 426.368C235.813 425.729 238.907 425.053 242.32 424.278C243.649 423.976 244.947 423.684 246.221 423.397C259.427 420.419 269.916 418.054 284.09 412.573C291.597 409.67 301.141 408.228 308.889 407.52C312.748 407.168 316.129 407 318.545 406.92C319.753 406.881 320.718 406.863 321.379 406.855C321.71 406.851 321.965 406.85 322.136 406.849C322.212 406.849 322.271 406.849 322.313 406.849L342.702 409.181L342.78 409.19L342.86 409.191L368.113 409.343L368.239 409.343L368.363 409.323L368.173 407.836C368.363 409.323 368.363 409.323 368.364 409.323L368.365 409.323L368.368 409.322L368.38 409.32L368.425 409.313L368.601 409.283C368.755 409.257 368.981 409.218 369.274 409.166C369.86 409.064 370.712 408.91 371.782 408.707C373.921 408.302 376.934 407.7 380.431 406.91C387.413 405.332 396.377 402.997 404.188 399.977C411.442 397.172 421.665 398.248 430.332 400.171C434.616 401.122 438.429 402.257 441.172 403.156C442.542 403.605 443.643 403.994 444.399 404.27C444.711 404.383 444.964 404.478 445.153 404.549L469.531 440.196Z" fill="#3A5907" stroke="black" stroke-width="3"/>
<path d="M126.011 494.958C126.011 494.958 165.155 464.77 196.707 455.317C231.685 444.838 258.535 443.658 294.517 440.653C328.166 437.842 354.697 448.668 388.495 448.071C422.311 447.472 469.186 443.506 469.186 443.506" stroke="black" stroke-width="3"/>
<path d="M474.171 388.695L457.529 428.422C457.362 428.208 457.183 427.981 456.993 427.741C455.671 426.069 453.815 423.794 451.682 421.386C449.551 418.981 447.128 416.425 444.673 414.199C442.235 411.989 439.686 410.031 437.304 408.898C433.071 406.884 429.916 404.722 426.669 402.495L426.643 402.478C423.407 400.257 420.077 397.973 415.611 395.848C411.261 393.778 407.869 392.163 404.478 390.549L404.467 390.544L404.446 390.534C401.058 388.921 397.669 387.307 393.322 385.239C388.938 383.153 384.814 381.4 380.722 379.661L380.71 379.656C376.607 377.912 372.537 376.182 368.216 374.126C359.469 369.965 350.936 366.332 341.88 363.411C337.273 361.924 334.378 361.741 331.586 361.565L331.583 361.564C328.877 361.394 326.273 361.229 322.024 359.858C317.387 358.363 314.548 358.078 311.762 357.854C311.615 357.842 311.469 357.83 311.322 357.819C308.764 357.616 306.202 357.413 302.062 356.28C299.533 355.587 295.823 355.746 292.939 356.02C291.457 356.161 290.12 356.34 289.154 356.484C288.67 356.556 288.278 356.62 288.006 356.666C287.87 356.689 287.763 356.707 287.69 356.72L287.666 356.724L278.481 357.251L291.509 340.742C291.579 340.691 291.673 340.622 291.789 340.539C292.068 340.337 292.475 340.048 292.978 339.702C293.985 339.01 295.371 338.094 296.892 337.197C298.418 336.296 300.05 335.431 301.554 334.826C303.111 334.199 304.322 333.938 305.084 334.021C309.997 334.554 314.055 333.486 317.913 332.336C318.272 332.229 318.629 332.122 318.985 332.015C322.486 330.96 325.859 329.945 329.872 329.851C337.002 329.684 341.63 330.116 347.501 330.664C349.207 330.823 351.019 330.992 353.028 331.159C353.805 331.224 354.565 331.288 355.31 331.352C363.021 332.007 369.215 332.534 377.938 331.638C382.378 331.182 387.724 332.122 392.055 333.224C394.201 333.77 396.06 334.347 397.381 334.786C398.042 335.005 398.566 335.19 398.923 335.319C399.102 335.384 399.239 335.435 399.33 335.469C399.346 335.474 399.36 335.48 399.373 335.485L410.108 341.298L410.195 341.345L410.287 341.381L424.086 346.707L424.235 346.764L424.392 346.789L424.573 345.299C424.392 346.789 424.392 346.789 424.392 346.789L424.393 346.789L424.395 346.79L424.402 346.791L424.43 346.795L424.534 346.811C424.624 346.825 424.756 346.845 424.927 346.87C425.268 346.92 425.764 346.99 426.388 347.071C427.634 347.232 429.393 347.436 431.45 347.61C435.548 347.957 440.89 348.187 445.726 347.69C447.729 347.485 450.039 348.02 452.465 349.054C454.877 350.083 457.293 351.556 459.461 353.087C461.623 354.615 463.505 356.176 464.848 357.357C465.518 357.947 466.051 358.44 466.415 358.783C466.506 358.87 466.587 358.946 466.656 359.013L474.171 388.695Z" fill="#3A5907" stroke="black" stroke-width="3"/>
<path d="M279.249 355.839C279.249 355.839 305.572 342.9 324.378 342.837C345.226 342.767 360.116 347.494 380.302 352.838C399.179 357.835 411.948 370.86 430.548 377.429C449.158 384.002 475.462 390.928 475.462 390.928" stroke="black" stroke-width="3"/>
<path d="M411.109 305.247L411.197 305.299L411.29 305.338L411.502 304.681C411.29 305.338 411.291 305.338 411.291 305.338L411.291 305.338L411.294 305.339L411.304 305.344L411.342 305.359L411.488 305.42C411.616 305.474 411.805 305.552 412.05 305.652C412.54 305.853 413.253 306.144 414.153 306.502C415.951 307.218 418.494 308.206 421.475 309.296C427.426 311.473 435.162 314.072 442.214 315.716C448.811 317.254 456.481 322.6 462.635 327.741C465.68 330.286 468.299 332.733 470.156 334.544C471.084 335.449 471.82 336.194 472.323 336.711C472.507 336.9 472.661 337.059 472.78 337.184L480.407 370.271L451.048 403.29C450.602 402.694 450.029 401.936 449.348 401.051C447.6 398.78 445.14 395.665 442.291 392.295C436.63 385.6 429.299 377.73 422.92 373.546C416.832 369.553 412.372 365.899 407.856 362.199L407.841 362.187C403.327 358.488 398.755 354.742 392.52 350.652C386.371 346.619 381.575 343.472 376.782 340.328L376.743 340.302C371.938 337.149 367.132 333.996 360.966 329.952C354.783 325.896 348.941 322.29 343.118 318.696L343.111 318.692C337.282 315.094 331.473 311.508 325.329 307.478C312.975 299.376 300.901 291.917 287.995 284.946C281.542 281.46 277.434 280.02 273.387 278.602L273.386 278.601C269.391 277.201 265.457 275.823 259.215 272.451C252.698 268.931 248.667 267.411 244.652 265.955C244.438 265.877 244.223 265.799 244.009 265.721C240.252 264.361 236.412 262.971 230.339 259.911C226.952 258.205 221.702 256.744 217.415 255.722C215.248 255.205 213.285 254.79 211.863 254.505C211.153 254.362 210.576 254.252 210.177 254.177C209.977 254.139 209.822 254.11 209.716 254.091L209.611 254.072L194.932 250.183L215.807 239.463C215.921 239.442 216.086 239.411 216.298 239.373C216.735 239.295 217.37 239.186 218.153 239.062C219.721 238.815 221.877 238.512 224.235 238.288C226.597 238.063 229.138 237.92 231.48 237.986C233.852 238.054 235.897 238.333 237.33 238.882C244.224 241.524 250.107 242.254 255.899 242.826C256.44 242.88 256.98 242.932 257.519 242.984C262.766 243.49 267.988 243.994 274.068 245.75C284.644 248.805 291.48 251.349 300.062 254.543C302.545 255.467 305.176 256.446 308.085 257.508C309.219 257.921 310.326 258.327 311.412 258.724C322.672 262.847 331.607 266.119 344.409 269.104C351.211 270.689 359.138 274.123 365.418 277.198C368.547 278.73 371.244 280.161 373.158 281.209C374.114 281.733 374.875 282.161 375.394 282.457C375.654 282.605 375.854 282.72 375.988 282.797L376.052 282.834C376.085 282.853 376.112 282.869 376.133 282.881L391.322 293.612L391.376 293.65L391.433 293.683L411.109 305.247Z" fill="#3A5907" stroke="black" stroke-width="3"/>
<path d="M196.974 249.296C196.974 249.296 237.13 248.071 264.775 256.45C295.423 265.739 316.77 277.19 345.83 291.64C373.005 305.152 390.294 324.016 416.883 338.989C443.488 353.97 481.361 372.762 481.361 372.762" stroke="black" stroke-width="3"/>
<path d="M455.167 380.679L494.278 389.615C494.269 388.961 494.262 388.156 494.26 387.226C494.254 384.585 494.293 380.929 494.468 376.872C494.817 368.82 495.714 358.965 497.977 352.379C500.125 346.132 501.295 341.011 502.482 335.815L502.487 335.796C503.673 330.604 504.876 325.336 507.083 318.917C509.258 312.587 510.954 307.65 512.65 302.715L512.655 302.698C514.353 297.757 516.05 292.816 518.228 286.479C520.414 280.12 522.604 274.282 524.785 268.466L524.788 268.458C526.973 262.635 529.149 256.834 531.319 250.52C535.684 237.819 540.207 225.747 545.597 213.592C548.296 207.506 550.448 204.213 552.564 200.976L552.565 200.975C554.65 197.785 556.699 194.651 559.298 188.79C562.023 182.644 564.075 179.334 566.147 176.084C566.258 175.911 566.368 175.738 566.479 175.564C568.416 172.531 570.393 169.436 573.045 163.896C574.537 160.779 577.502 156.853 580.007 153.787C581.275 152.235 582.453 150.869 583.314 149.892C583.745 149.403 584.097 149.01 584.342 148.739C584.465 148.604 584.56 148.499 584.626 148.427L584.686 148.361L592.836 137.846L572.239 140.973C572.147 141.018 572.018 141.081 571.855 141.161C571.499 141.337 570.984 141.595 570.356 141.922C569.097 142.577 567.388 143.506 565.577 144.601C563.764 145.699 561.87 146.952 560.235 148.253C558.577 149.573 557.285 150.867 556.578 152.021C553.088 157.72 549.264 161.437 545.43 164.975C545.072 165.305 544.714 165.634 544.357 165.962C540.878 169.157 537.427 172.327 534.053 176.892C528.172 184.85 524.687 190.417 520.308 197.413C519.04 199.439 517.697 201.585 516.199 203.943C515.615 204.862 515.047 205.76 514.489 206.64C508.705 215.771 504.109 223.025 496.583 232.139C492.601 236.961 488.831 243.771 486.036 249.442C484.644 252.265 483.506 254.782 482.715 256.592C482.32 257.496 482.013 258.224 481.805 258.724C481.701 258.973 481.621 259.166 481.568 259.296C481.545 259.352 481.527 259.396 481.515 259.428L476.575 275.609L476.555 275.674L476.53 275.737L468.836 294.958L468.796 295.056L468.745 295.146L467.536 294.255C468.745 295.146 468.745 295.146 468.745 295.146L468.745 295.147L468.743 295.149L468.739 295.157L468.72 295.19L468.649 295.314C468.625 295.356 468.597 295.405 468.565 295.461C468.512 295.552 468.449 295.662 468.375 295.79C468.135 296.204 467.784 296.805 467.337 297.557C466.444 299.059 465.169 301.166 463.636 303.583C460.576 308.41 456.468 314.515 452.32 319.539C448.474 324.195 445.946 332.276 444.384 339.427C443.612 342.962 443.092 346.196 442.765 348.545C442.601 349.72 442.486 350.671 442.412 351.326C442.387 351.545 442.367 351.73 442.352 351.88L455.167 380.679Z" fill="#3A5907" stroke="black" stroke-width="3"/>
<path d="M591.146 138.106C591.146 138.106 561.706 158.736 546.543 179.844C529.733 203.246 520.78 223.276 507.962 249.69C495.976 274.391 494.033 297.794 483.274 323.274C472.51 348.769 455.783 383.164 455.783 383.164" stroke="black" stroke-width="3"/>
<path d="M478.073 409.607L495.698 447.865C495.563 447.859 495.423 447.853 495.279 447.847C493.487 447.773 491.019 447.717 488.319 447.786C485.622 447.855 482.672 448.051 479.921 448.486C477.195 448.917 474.558 449.6 472.55 450.702C469.047 452.624 466 453.63 462.847 454.669L462.818 454.678C459.678 455.713 456.432 456.782 452.703 458.827C449.085 460.813 446.263 462.36 443.441 463.907L443.436 463.91C440.612 465.458 437.789 467.006 434.167 468.993C430.517 470.995 427.223 473.015 423.959 475.016L423.948 475.023C420.675 477.029 417.431 479.018 413.843 480.986C406.565 484.979 399.742 489.155 393.121 494.195C389.733 496.773 388.102 498.889 386.539 500.916L386.537 500.919C385.032 502.871 383.594 504.736 380.517 507.078C377.111 509.67 375.443 511.674 373.85 513.668C373.766 513.772 373.683 513.877 373.6 513.981C372.147 515.803 370.702 517.616 367.833 520.032C366.029 521.55 364.2 524.531 362.894 526.912C362.22 528.141 361.647 529.284 361.243 530.119C361.04 530.537 360.88 530.88 360.769 531.119C360.713 531.238 360.67 531.332 360.641 531.397L360.637 531.406L356.411 538.495L352.231 517.998C352.233 517.913 352.236 517.801 352.24 517.665C352.251 517.321 352.269 516.824 352.3 516.216C352.361 514.998 352.469 513.347 352.659 511.605C352.849 509.856 353.117 508.056 353.489 506.525C353.878 504.927 354.32 503.881 354.727 503.4C357.65 499.949 359.049 496.111 360.279 492.414C360.393 492.07 360.506 491.728 360.618 491.387C361.728 488.021 362.787 484.811 364.778 481.708C368.339 476.159 371.004 472.911 374.395 468.779C375.383 467.576 376.432 466.298 377.582 464.866C378.026 464.313 378.461 463.774 378.888 463.245C383.303 457.772 386.863 453.36 390.783 446.085C392.751 442.433 396.107 438.976 399.066 436.384C400.531 435.102 401.867 434.058 402.837 433.335C403.321 432.974 403.713 432.693 403.981 432.505C404.116 432.411 404.219 432.339 404.288 432.292C404.295 432.288 404.301 432.283 404.307 432.279L413.687 427.847L413.776 427.804L413.86 427.749L424.513 420.649L424.649 420.559L424.765 420.436L423.822 419.273C424.765 420.436 424.765 420.436 424.765 420.436L424.765 420.435L424.767 420.433L424.772 420.428L424.789 420.41L424.854 420.34C424.91 420.28 424.992 420.191 425.097 420.076C425.307 419.847 425.611 419.512 425.987 419.086C426.739 418.235 427.785 417.019 428.964 415.555C431.313 412.64 434.235 408.69 436.412 404.649C437.281 403.036 438.789 401.644 440.71 400.47C442.618 399.304 444.825 398.417 446.952 397.755C449.073 397.094 451.072 396.669 452.544 396.41C453.279 396.28 453.879 396.192 454.293 396.137C454.383 396.125 454.465 396.114 454.538 396.105L478.073 409.607Z" fill="#3A5907" stroke="black" stroke-width="3"/>
<path d="M355.795 537.265C355.795 537.265 360.81 508.737 370.475 494.312C381.19 478.321 392.009 470 405.97 458.028C419.025 446.832 434.247 445.516 448.201 435.552C462.162 425.583 480.33 409.957 480.33 409.957" stroke="black" stroke-width="3"/>
<path d="M526.307 545.938H503.328H455.512H407.697H385.087L361.615 384.11H549.414L526.307 545.938Z" fill="#0E0D0D" stroke="black" stroke-width="3"/>
<path d="M358.807 375.681C358.807 375.681 414.373 369.048 456.314 369.048C498.255 369.048 552.218 375.681 552.218 375.681L548.478 405.531C548.478 405.531 505.735 398.897 456.047 398.897C406.358 398.897 362.013 405.531 362.013 405.531L358.807 375.681Z" fill="black"/>
<path d="M496.421 205.832L496.327 206.13L496.36 206.441L498.225 224.166L492.625 241.904L492.531 242.201L492.564 242.512L494.429 260.237L488.829 277.975L488.735 278.272L488.768 278.583L490.633 296.308L485.033 314.046L484.939 314.343L484.971 314.654L486.853 332.533L485.041 349.747L456.095 370.748L427.148 349.747L425.337 332.533L427.218 314.654L427.251 314.343L427.157 314.046L421.557 296.308L423.422 278.583L423.455 278.272L423.361 277.975L417.761 260.237L419.626 242.512L419.659 242.201L419.565 241.904L413.965 224.166L415.83 206.441L415.863 206.13L415.769 205.832L410.169 188.095L412.034 170.37L412.067 170.059L411.973 169.761L406.373 152.024L408.238 134.299L408.271 133.988L408.177 133.69L402.577 115.953L404.442 98.228L404.475 97.9173L404.381 97.6194L398.817 79.9969L402.251 66.8966L425.834 63.5H456.095H486.363L511.698 66.8882L513.403 79.9009L507.809 97.6194L507.715 97.9173L507.748 98.228L509.613 115.953L504.013 133.69L503.919 133.988L503.952 134.299L505.817 152.024L500.217 169.761L500.123 170.059L500.156 170.37L502.021 188.095L496.421 205.832Z" fill="#F80202" stroke="black" stroke-width="3"/>
<path d="M488.966 402.566C488.966 420.19 474.048 434.584 455.512 434.584C436.976 434.584 422.059 420.19 422.059 402.566C422.059 384.942 436.976 370.548 455.512 370.548C474.048 370.548 488.966 384.942 488.966 402.566Z" fill="#FCFCFC" stroke="black" stroke-width="3"/>
<path d="M477.315 402.566C477.315 414.02 467.614 423.411 455.512 423.411C443.411 423.411 433.71 414.02 433.71 402.566C433.71 391.112 443.411 381.721 455.512 381.721C467.614 381.721 477.315 391.112 477.315 402.566Z" fill="#F80202" stroke="black" stroke-width="3"/>
<path d="M465.664 402.566C465.664 407.849 461.179 412.239 455.512 412.239C449.846 412.239 445.361 407.849 445.361 402.566C445.361 397.283 449.846 392.893 455.512 392.893C461.179 392.893 465.664 397.283 465.664 402.566Z" fill="#0042A6" stroke="black" stroke-width="3"/>
<path d="M470.889 487.837L483.966 490.757L486.803 497.794L456.26 492.111L455.985 492.06L455.711 492.111L424.931 497.838L427.154 490.75L440.903 487.841L441.8 487.651L442.04 486.765L444.971 475.946L445.086 475.521L444.954 475.101L442.023 465.827L441.538 464.294L440.042 464.884L429.588 469.006L429.309 469.116L429.094 469.325L411.278 486.619L417.304 455.228L417.314 455.172L417.321 455.116L419.528 435.895L432.463 430.481L439.438 438.879L440.603 440.28L441.755 438.868L449.301 429.617L449.762 429.052L449.603 428.341L446.041 412.437L450.155 405.548L455.985 402.077L461.872 405.582L466.726 412.355L465.232 415.69L464.656 416.976L465.903 417.631L471.08 420.35L465.04 423.189L464.338 423.519L464.201 424.282L463.278 429.434L463.177 429.999L463.478 430.487L468.555 438.708L469.338 439.975L470.61 439.202L485.159 430.365L497.204 435.929L502.889 454.966L494.416 486.493L486.46 468.307L483.248 459.088L482.524 457.01L480.855 458.444L474.855 463.596L474.589 463.824L474.452 464.145L469.837 474.965L469.716 475.247V475.553V486.373V487.575L470.889 487.837Z" fill="#F1AA1F" stroke="black" stroke-width="3"/>
<path d="M554.793 397.363C554.74 413.906 553.755 430.111 548.856 445.211C543.783 460.85 536.352 475.039 527.002 486.977C517.653 498.914 506.573 508.358 494.408 514.791C482.245 521.224 469.227 524.525 456.095 524.525C442.962 524.525 429.945 521.224 417.782 514.791C405.617 508.358 394.537 498.914 385.187 486.977C375.837 475.039 368.407 460.849 363.334 445.211C358.441 430.129 357.999 413.951 357.978 397.363H368.985C369.216 403.998 370.923 411.616 373.032 419.006C374.652 424.682 376.536 430.313 378.212 435.321C378.885 437.333 379.525 439.244 380.1 441.017C383.568 451.705 388.53 457.84 394.378 465.069C395.533 466.498 396.723 467.969 397.943 469.526C398.148 469.787 398.354 470.05 398.56 470.314C402.112 474.852 405.906 479.699 409.966 484.058C414.259 488.667 418.921 492.812 424.022 495.509C433.204 500.365 443.436 500.302 452.999 500.243C454.04 500.236 455.072 500.23 456.095 500.23C457.125 500.23 458.155 500.236 459.185 500.243C468.58 500.302 477.916 500.36 487.089 495.509C497.183 490.171 506.779 479.06 514.247 469.526C515.3 468.181 516.326 466.901 517.321 465.658C523.333 458.151 528.266 451.992 531.827 441.017C532.258 439.688 532.721 438.284 533.203 436.82C534.975 431.444 537.016 425.254 538.739 418.992C540.774 411.601 542.403 403.989 542.623 397.363L554.793 397.363Z" fill="#FEF9F9" stroke="black" stroke-width="3"/>
<path d="M371.289 519.321C371.289 528.55 369.431 536.832 366.496 542.751C363.516 548.763 359.679 551.898 355.894 551.898C352.11 551.898 348.273 548.763 345.292 542.751C342.358 536.832 340.5 528.55 340.5 519.321C340.5 510.092 342.358 501.81 345.292 495.891C348.273 489.879 352.11 486.744 355.894 486.744C359.679 486.744 363.516 489.879 366.496 495.891C369.431 501.81 371.289 510.092 371.289 519.321Z" fill="white" stroke="black" stroke-width="3"/>
<line y1="-1.5" x2="52.5253" y2="-1.5" transform="matrix(-0.022182 -0.999754 0.999792 -0.0203989 359.972 448.374)" stroke="black" stroke-width="3"/>
<line x1="556.543" y1="448.374" x2="556.543" y2="395.862" stroke="black" stroke-width="3"/>
<path d="M379.4 473.766C379.4 473.766 376.378 473.718 376.655 465.398C376.932 457.078 378.154 456.635 378.154 456.635C378.154 456.635 378.248 458.983 386.166 462.395C394.084 465.807 393.99 463.459 393.99 463.459" stroke="black" stroke-width="3"/>
<path d="M546.282 448.197C546.282 448.197 547.832 450.685 540.315 454.848C532.798 459.011 531.761 458.249 531.761 458.249C531.761 458.249 533.792 456.933 532.638 448.683C531.484 440.433 529.453 441.748 529.453 441.748" stroke="black" stroke-width="3"/>
<path d="M529.772 483.087C529.772 483.087 530.426 486.112 521.414 487.474C512.402 488.836 511.64 487.703 511.64 487.703C511.64 487.703 514.143 487.147 515.963 478.575C517.783 470.002 515.28 470.558 515.28 470.558" stroke="black" stroke-width="3"/>
<path d="M496.624 510.322C496.624 510.322 496.015 513.161 487.54 511.362C479.064 509.563 478.836 508.329 478.836 508.329C478.836 508.329 481.259 508.675 486.22 501.843C491.18 495.012 488.757 494.667 488.757 494.667" stroke="black" stroke-width="3"/>
<path d="M395.711 494.995C395.711 494.995 392.689 494.946 392.966 486.626C393.243 478.306 394.466 477.863 394.466 477.863C394.466 477.863 394.56 480.211 402.478 483.623C410.396 487.035 410.302 484.687 410.302 484.687" stroke="black" stroke-width="3"/>
<path d="M422.43 513.661C422.43 513.661 419.655 514.808 416.338 507.116C413.021 499.423 413.945 498.537 413.945 498.537C413.945 498.537 415.038 500.64 423.719 500.627C432.399 500.613 431.306 498.51 431.306 498.51" stroke="black" stroke-width="3"/>
<path d="M461.667 521.708C461.667 521.708 459.789 524.434 451.724 519.135C443.658 513.836 443.96 512.453 443.96 512.453C443.96 512.453 446.34 513.791 454.509 508.641C462.679 503.49 460.298 502.152 460.298 502.152" stroke="black" stroke-width="3"/>
<path d="M368.294 448.38C368.294 448.38 365.764 447.636 367.001 439.922C368.237 432.208 369.317 432.076 369.317 432.076C369.317 432.076 369.112 434.293 375.345 439.312C381.577 444.332 381.782 442.115 381.782 442.115" stroke="black" stroke-width="3"/>
<line y1="-1.5" x2="40.643" y2="-1.5" transform="matrix(-0.350633 -0.935036 0.771111 -0.639675 363.155 536.666)" stroke="black" stroke-width="3"/>
<line y1="-1.5" x2="39.2192" y2="-1.5" transform="matrix(-0.450972 0.894128 -0.690897 -0.720315 364.854 500.901)" stroke="black" stroke-width="3"/>
<line y1="-1.5" x2="20.3227" y2="-1.5" transform="matrix(-0.436965 0.901012 -0.706089 -0.705437 364.041 518.006)" stroke="black" stroke-width="3"/>
<line y1="-1.5" x2="19.6097" y2="-1.5" transform="matrix(-0.450972 0.894128 -0.690898 -0.720314 356.86 500.552)" stroke="black" stroke-width="3"/>
<path d="M365.103 568.041L373.307 591.225H356.153H339L348.209 568.041" stroke="black" stroke-width="3"/>
<path d="M366.369 571.688C367.459 570.011 368.066 568.088 368.127 566.115C368.188 564.141 367.701 562.188 366.716 560.454C365.732 558.72 364.284 557.267 362.521 556.244C360.759 555.221 358.744 554.665 356.682 554.631C354.621 554.597 352.586 555.087 350.787 556.051C348.987 557.015 347.486 558.419 346.437 560.119C345.388 561.82 344.828 563.756 344.815 565.73C344.803 567.704 345.337 569.646 346.363 571.358" stroke="black" stroke-width="3"/>
<path d="M365.103 568.041L373.307 591.225H356.153H339L348.209 568.041" stroke="black" stroke-width="3"/>
<path d="M366.369 571.688C367.459 570.011 368.066 568.088 368.127 566.115C368.188 564.141 367.701 562.188 366.716 560.454C365.732 558.72 364.284 557.267 362.521 556.244C360.759 555.221 358.744 554.665 356.682 554.631C354.621 554.597 352.586 555.087 350.787 556.051C348.987 557.015 347.486 558.419 346.437 560.119C345.388 561.82 344.828 563.756 344.815 565.73C344.803 567.704 345.337 569.646 346.363 571.358" stroke="black" stroke-width="3"/>
<path d="M356.295 558.605L365.774 571.621L372.093 590.095H356.295H340.891L347.605 571.621L356.295 558.605Z" fill="white"/>
<ellipse cx="356.69" cy="566.162" rx="9.87408" ry="10.0769" fill="white"/>
<line y1="-1.5" x2="20.6439" y2="-1.5" transform="matrix(-0.225758 0.974183 -0.978041 -0.208415 351.225 572.146)" stroke="black" stroke-width="3"/>
<line y1="-1.5" x2="20.3445" y2="-1.5" transform="matrix(0.155005 0.987914 -0.987953 0.154752 358.215 572.146)" stroke="black" stroke-width="3"/>
<path d="M366.049 463.178L374.252 486.361H357.099H339.946L349.155 463.178" stroke="black" stroke-width="3"/>
<path d="M367.315 466.824C368.405 465.148 369.011 463.225 369.072 461.251C369.133 459.278 368.647 457.325 367.662 455.591C366.677 453.857 365.23 452.404 363.467 451.381C361.704 450.358 359.689 449.801 357.628 449.767C355.566 449.733 353.532 450.223 351.732 451.188C349.932 452.152 348.431 453.556 347.382 455.256C346.333 456.957 345.774 458.893 345.761 460.867C345.748 462.841 346.282 464.783 347.309 466.494" stroke="black" stroke-width="3"/>
<path d="M366.049 463.178L374.252 486.361H357.099H339.946L349.155 463.178" stroke="black" stroke-width="3"/>
<path d="M367.315 466.824C368.405 465.148 369.011 463.225 369.072 461.251C369.133 459.278 368.647 457.325 367.662 455.591C366.677 453.857 365.23 452.404 363.467 451.381C361.704 450.358 359.689 449.801 357.628 449.767C355.566 449.733 353.532 450.223 351.732 451.188C349.932 452.152 348.431 453.556 347.382 455.256C346.333 456.957 345.774 458.893 345.761 460.867C345.748 462.841 346.282 464.783 347.309 466.494" stroke="black" stroke-width="3"/>
<path d="M357.24 453.741L366.719 466.757L373.039 485.232H357.24H341.837L348.551 466.757L357.24 453.741Z" fill="white"/>
<ellipse cx="357.635" cy="461.299" rx="9.87409" ry="10.0769" fill="white"/>
<line y1="-1.5" x2="20.6438" y2="-1.5" transform="matrix(-0.225757 0.974184 -0.97804 -0.208416 352.17 467.282)" stroke="black" stroke-width="3"/>
<line y1="-1.5" x2="20.3445" y2="-1.5" transform="matrix(0.155009 0.987913 -0.987954 0.154749 359.161 467.282)" stroke="black" stroke-width="3"/>
<path d="M565.553 460.344L573.757 483.527H556.603H539.45L548.659 460.344" stroke="black" stroke-width="3"/>
<path d="M566.819 463.99C567.909 462.314 568.516 460.391 568.577 458.417C568.638 456.444 568.151 454.49 567.166 452.757C566.182 451.023 564.734 449.57 562.971 448.547C561.209 447.524 559.194 446.967 557.132 446.933C555.071 446.899 553.036 447.389 551.236 448.354C549.437 449.318 547.936 450.722 546.887 452.422C545.838 454.123 545.278 456.059 545.265 458.033C545.253 460.007 545.787 461.949 546.813 463.66" stroke="black" stroke-width="3"/>
<path d="M565.553 460.344L573.757 483.527H556.603H539.45L548.659 460.344" stroke="black" stroke-width="3"/>
<path d="M566.819 463.99C567.909 462.314 568.516 460.391 568.577 458.417C568.638 456.444 568.151 454.49 567.166 452.757C566.182 451.023 564.734 449.57 562.971 448.547C561.209 447.524 559.194 446.967 557.132 446.933C555.071 446.899 553.036 447.389 551.236 448.354C549.437 449.318 547.936 450.722 546.887 452.422C545.838 454.123 545.278 456.059 545.265 458.033C545.253 460.007 545.787 461.949 546.813 463.66" stroke="black" stroke-width="3"/>
<path d="M556.745 450.907L566.224 463.923L572.543 482.398H556.745H541.341L548.055 463.923L556.745 450.907Z" fill="white"/>
<ellipse cx="557.139" cy="458.465" rx="9.87408" ry="10.0769" fill="white"/>
<line y1="-1.5" x2="20.6439" y2="-1.5" transform="matrix(-0.225756 0.974184 -0.97804 -0.208417 551.675 464.448)" stroke="black" stroke-width="3"/>
<line y1="-1.5" x2="20.3446" y2="-1.5" transform="matrix(0.15501 0.987913 -0.987954 0.154747 558.665 464.448)" stroke="black" stroke-width="3"/>
</svg>
