<svg width="254" height="562" viewBox="0 0 254 562" fill="none" xmlns="http://www.w3.org/2000/svg">
<path d="M201.175 512.346H176.797H126.226H75.6555H51.6685L26.818 340.872H225.638L201.175 512.346Z" fill="#0E0D0D" stroke="black" stroke-width="3"/>
<path d="M23.9485 332.038C23.9485 332.038 82.7156 325.017 127.074 325.017C171.431 325.017 228.504 332.038 228.504 332.038L224.548 363.635C224.548 363.635 179.342 356.613 126.791 356.613C74.2396 356.613 27.3389 363.635 27.3389 363.635L23.9485 332.038Z" fill="black"/>
<path d="M181.619 37.7307L181.525 38.0284L181.557 38.3388L183.532 57.1193L177.604 75.9126L177.51 76.2103L177.542 76.5207L179.517 95.3013L173.589 114.095L173.495 114.392L173.528 114.703L175.502 133.483L169.574 152.276L169.48 152.574L169.513 152.885L171.488 171.665L165.559 190.458L165.466 190.756L165.498 191.067L167.473 209.847L161.545 228.64L161.451 228.938L161.483 229.248L163.458 248.029L157.53 266.822L157.436 267.12L157.469 267.43L159.459 286.365L157.538 304.634L126.842 326.925L96.1458 304.634L94.2248 286.365L96.2157 267.43L96.2483 267.12L96.1544 266.822L90.2261 248.029L92.2009 229.248L92.2335 228.938L92.1396 228.64L86.2114 209.847L88.1861 191.067L88.2187 190.756L88.1248 190.458L82.1966 171.665L84.1713 152.885L84.204 152.574L84.1101 152.276L78.1818 133.483L80.1565 114.703L80.1892 114.392L80.0953 114.095L74.167 95.3013L76.1418 76.5207L76.1744 76.2103L76.0805 75.9126L70.1522 57.1193L72.127 38.3388L72.1596 38.0284L72.0657 37.7307L66.1737 19.0524L69.8268 5.10443L94.8314 1.49999H126.842H158.86L185.726 5.09603L187.541 18.9564L181.619 37.7307Z" fill="#F80202" stroke="black" stroke-width="3"/>
<path d="M161.694 360.496C161.694 379.205 145.873 394.476 126.226 394.476C106.579 394.476 90.7581 379.205 90.7581 360.496C90.7581 341.787 106.579 326.517 126.226 326.517C145.873 326.517 161.694 341.787 161.694 360.496Z" fill="#FCFCFC" stroke="black" stroke-width="3"/>
<path d="M149.371 360.496C149.371 372.674 139.067 382.65 126.226 382.65C113.384 382.65 103.081 372.674 103.081 360.496C103.081 348.319 113.384 338.343 126.226 338.343C139.067 338.343 149.371 348.319 149.371 360.496Z" fill="#F80202" stroke="black" stroke-width="3"/>
<path d="M137.049 360.496C137.049 366.142 132.262 370.823 126.226 370.823C120.19 370.823 115.403 366.142 115.403 360.496C115.403 354.851 120.19 350.17 126.226 350.17C132.262 350.17 137.049 354.851 137.049 360.496Z" fill="#0042A6" stroke="black" stroke-width="3"/>
<path d="M137.255 376.365L142.886 379.326L136.338 382.406L135.637 382.736L135.5 383.499L134.524 388.953L134.423 389.517L134.724 390.005L140.094 398.707L140.876 399.975L142.149 399.201L157.575 389.823L170.391 395.748L176.422 415.962L167.391 449.595L158.876 430.118L155.479 420.356L154.755 418.276L153.084 419.711L146.738 425.165L146.473 425.393L146.336 425.714L141.455 437.167L141.335 437.449V437.755V449.208V450.41L142.508 450.672L156.382 453.772L159.46 461.412L127.001 455.368L126.726 455.317L126.451 455.368L93.7566 461.456L96.1659 453.766L110.757 450.675L111.654 450.485L111.894 449.6L114.994 438.147L115.109 437.723L114.977 437.303L111.877 427.487L111.392 425.953L109.896 426.543L98.8394 430.906L98.5602 431.016L98.3448 431.226L79.3056 449.722L85.7308 416.223L85.7415 416.167L85.7479 416.111L88.0884 395.715L101.874 389.939L109.292 398.877L110.457 400.281L111.609 398.867L119.59 389.074L120.05 388.51L119.891 387.799L116.117 370.93L120.498 363.588L126.726 359.877L133.011 363.622L138.185 370.848L136.584 374.425L136.009 375.71L137.255 376.365Z" fill="#F1AA1F" stroke="black" stroke-width="3"/>
<path d="M231.314 354.9C231.261 372.445 230.225 389.64 225.03 405.664C219.661 422.227 211.798 437.256 201.903 449.901C192.008 462.545 180.28 472.55 167.402 479.367C154.527 486.182 140.746 489.68 126.842 489.68C112.938 489.68 99.1573 486.182 86.2817 479.367C73.4038 472.55 61.6762 462.545 51.7811 449.901C41.8856 437.256 34.0226 422.227 28.6537 405.664C23.4653 389.658 23.0061 372.489 22.9847 354.9H34.7963C35.0288 361.932 36.8372 370.021 39.0758 377.873C40.7883 383.88 42.7805 389.837 44.5527 395.137C45.265 397.267 45.9418 399.291 46.5506 401.169C50.2124 412.466 55.4502 418.947 61.6339 426.599C62.8562 428.111 64.1154 429.669 65.4067 431.32C65.6234 431.596 65.8409 431.875 66.0593 432.154C69.8164 436.958 73.8269 442.086 78.1174 446.696C82.6553 451.573 87.5787 455.951 92.9606 458.8C102.652 463.93 113.451 463.863 123.569 463.801C124.669 463.794 125.76 463.787 126.842 463.787C127.932 463.787 129.021 463.794 130.11 463.801C140.048 463.863 149.901 463.925 159.582 458.8C170.239 453.16 180.379 441.413 188.277 431.32C189.392 429.895 190.477 428.539 191.53 427.223C197.888 419.278 203.095 412.77 206.856 401.17C207.312 399.763 207.801 398.276 208.312 396.726C210.186 391.035 212.343 384.486 214.165 377.86C216.325 370.006 218.051 361.923 218.273 354.9L231.314 354.9Z" fill="#FEF9F9" stroke="black" stroke-width="3"/>
<path d="M37.2355 484.084C37.2355 493.864 35.2686 502.645 32.158 508.924C29.001 515.298 24.9202 518.655 20.8678 518.655C16.8153 518.655 12.7345 515.298 9.57748 508.924C6.46687 502.645 4.5 493.864 4.5 484.084C4.5 474.304 6.46687 465.523 9.57748 459.244C12.7345 452.87 16.8153 449.513 20.8678 449.513C24.9202 449.513 29.001 452.87 32.158 459.244C35.2686 465.523 37.2355 474.304 37.2355 484.084Z" fill="white" stroke="black" stroke-width="3"/>
<line y1="-1.5" x2="55.5991" y2="-1.5" transform="matrix(-0.0221635 -0.999754 0.999792 -0.0204159 25.1807 408.985)" stroke="black" stroke-width="3"/>
<line x1="233.165" y1="408.985" x2="233.165" y2="353.4" stroke="black" stroke-width="3"/>
<path d="M45.7272 435.864C45.7272 435.864 42.5312 435.812 42.8242 427.005C43.1173 418.198 44.4101 417.729 44.4101 417.729C44.4101 417.729 44.5094 420.215 52.8836 423.826C61.2578 427.438 61.1584 424.953 61.1584 424.953" stroke="black" stroke-width="3"/>
<path d="M222.225 408.798C222.225 408.798 223.865 411.431 215.915 415.838C207.965 420.244 206.868 419.438 206.868 419.438C206.868 419.438 209.015 418.046 207.795 409.312C206.575 400.579 204.427 401.971 204.427 401.971" stroke="black" stroke-width="3"/>
<path d="M204.765 445.73C204.765 445.73 205.456 448.931 195.925 450.373C186.394 451.815 185.588 450.616 185.588 450.616C185.588 450.616 188.235 450.028 190.16 440.953C192.084 431.879 189.437 432.468 189.437 432.468" stroke="black" stroke-width="3"/>
<path d="M169.706 474.558C169.706 474.558 169.062 477.563 160.098 475.659C151.134 473.755 150.893 472.449 150.893 472.449C150.893 472.449 153.456 472.815 158.703 465.584C163.949 458.353 161.385 457.987 161.385 457.987" stroke="black" stroke-width="3"/>
<path d="M62.979 458.334C62.979 458.334 59.7829 458.282 60.076 449.476C60.369 440.669 61.6618 440.2 61.6618 440.2C61.6618 440.2 61.7612 442.685 70.1353 446.297C78.5095 449.909 78.4101 447.423 78.4101 447.423" stroke="black" stroke-width="3"/>
<path d="M91.2373 478.093C91.2373 478.093 88.3021 479.307 84.7941 471.165C81.2861 463.022 82.2634 462.084 82.2634 462.084C82.2634 462.084 83.4193 464.31 92.6002 464.296C101.781 464.281 100.625 462.055 100.625 462.055" stroke="black" stroke-width="3"/>
<path d="M132.735 486.611C132.735 486.611 130.749 489.496 122.219 483.887C113.689 478.278 114.008 476.814 114.008 476.814C114.008 476.814 116.525 478.231 125.165 472.779C133.805 467.327 131.288 465.91 131.288 465.91" stroke="black" stroke-width="3"/>
<path d="M33.9816 408.992C33.9816 408.992 31.3058 408.204 32.6139 400.039C33.9221 391.873 35.0635 391.734 35.0635 391.734C35.0635 391.734 34.8471 394.08 41.4388 399.393C48.0305 404.707 48.2468 402.36 48.2468 402.36" stroke="black" stroke-width="3"/>
<line y1="-1.5" x2="43.0158" y2="-1.5" transform="matrix(-0.350381 -0.935161 0.770672 -0.640144 28.5469 502.444)" stroke="black" stroke-width="3"/>
<line y1="-1.5" x2="41.5084" y2="-1.5" transform="matrix(-0.450653 0.894256 -0.690739 -0.720519 30.3435 464.586)" stroke="black" stroke-width="3"/>
<line y1="-1.5" x2="21.5092" y2="-1.5" transform="matrix(-0.436651 0.901132 -0.705936 -0.705645 29.4841 482.692)" stroke="black" stroke-width="3"/>
<line y1="-1.5" x2="20.7542" y2="-1.5" transform="matrix(-0.450653 0.894256 -0.690739 -0.720519 21.8887 464.216)" stroke="black" stroke-width="3"/>
<path d="M30.6073 535.655L39.2837 560.195H21.1419H3L12.7396 535.655" stroke="black" stroke-width="3"/>
<path d="M31.9459 539.515C33.0989 537.741 33.7404 535.705 33.8049 533.616C33.8694 531.527 33.3547 529.46 32.3133 527.624C31.2719 525.789 29.741 524.251 27.8767 523.168C26.0124 522.085 23.8815 521.496 21.7012 521.46C19.5209 521.424 17.3692 521.943 15.4656 522.964C13.562 523.984 11.9745 525.47 10.8651 527.27C9.75572 529.07 9.16404 531.119 9.15044 533.209C9.13683 535.299 9.70179 537.354 10.7877 539.166" stroke="black" stroke-width="3"/>
<path d="M30.6073 535.655L39.2837 560.195H21.1419H3L12.7396 535.655" stroke="black" stroke-width="3"/>
<path d="M31.9459 539.515C33.0989 537.741 33.7404 535.705 33.8049 533.616C33.8694 531.527 33.3547 529.46 32.3133 527.624C31.2719 525.789 29.741 524.251 27.8767 523.168C26.0124 522.085 23.8815 521.496 21.7012 521.46C19.5209 521.424 17.3692 521.943 15.4656 522.964C13.562 523.984 11.9745 525.47 10.8651 527.27C9.75572 529.07 9.16404 531.119 9.15044 533.209C9.13683 535.299 9.70179 537.354 10.7877 539.166" stroke="black" stroke-width="3"/>
<path d="M21.2911 525.667L31.3165 539.444L38 559H21.2911H5L12.1013 539.444L21.2911 525.667Z" fill="white"/>
<ellipse cx="21.7089" cy="533.667" rx="10.443" ry="10.6667" fill="white"/>
<line y1="-1.5" x2="21.851" y2="-1.5" transform="matrix(-0.225575 0.974226 -0.978004 -0.208586 15.929 540)" stroke="black" stroke-width="3"/>
<line x1="24.8044" y1="539.768" x2="28.1397" y2="561.043" stroke="black" stroke-width="3"/>
<path d="M31.6073 424.655L40.2837 449.195H22.1419H4L13.7396 424.655" stroke="black" stroke-width="3"/>
<path d="M32.9459 428.515C34.0989 426.741 34.7404 424.705 34.8049 422.616C34.8694 420.527 34.3547 418.46 33.3133 416.624C32.2719 414.789 30.741 413.251 28.8767 412.168C27.0124 411.085 24.8815 410.496 22.7012 410.46C20.5209 410.424 18.3692 410.943 16.4656 411.964C14.562 412.984 12.9745 414.47 11.8651 416.27C10.7557 418.07 10.164 420.119 10.1504 422.209C10.1368 424.299 10.7018 426.354 11.7877 428.166" stroke="black" stroke-width="3"/>
<path d="M31.6073 424.655L40.2837 449.195H22.1419H4L13.7396 424.655" stroke="black" stroke-width="3"/>
<path d="M32.9459 428.515C34.0989 426.741 34.7404 424.705 34.8049 422.616C34.8694 420.527 34.3547 418.46 33.3133 416.624C32.2719 414.789 30.741 413.251 28.8767 412.168C27.0124 411.085 24.8815 410.496 22.7012 410.46C20.5209 410.424 18.3692 410.943 16.4656 411.964C14.562 412.984 12.9745 414.47 11.8651 416.27C10.7557 418.07 10.164 420.119 10.1504 422.209C10.1368 424.299 10.7018 426.354 11.7877 428.166" stroke="black" stroke-width="3"/>
<path d="M22.2911 414.667L32.3165 428.444L39 448H22.2911H6L13.1013 428.444L22.2911 414.667Z" fill="white"/>
<ellipse cx="22.7089" cy="422.667" rx="10.443" ry="10.6667" fill="white"/>
<line y1="-1.5" x2="21.851" y2="-1.5" transform="matrix(-0.225575 0.974226 -0.978004 -0.208586 16.929 429)" stroke="black" stroke-width="3"/>
<line x1="25.8044" y1="428.768" x2="29.1397" y2="450.043" stroke="black" stroke-width="3"/>
<path d="M242.607 421.655L251.284 446.195H233.142H215L224.74 421.655" stroke="black" stroke-width="3"/>
<path d="M243.946 425.515C245.099 423.741 245.74 421.705 245.805 419.616C245.869 417.527 245.355 415.46 244.313 413.624C243.272 411.789 241.741 410.251 239.877 409.168C238.012 408.085 235.881 407.496 233.701 407.46C231.521 407.424 229.369 407.943 227.466 408.964C225.562 409.984 223.975 411.47 222.865 413.27C221.756 415.07 221.164 417.119 221.15 419.209C221.137 421.299 221.702 423.354 222.788 425.166" stroke="black" stroke-width="3"/>
<path d="M242.607 421.655L251.284 446.195H233.142H215L224.74 421.655" stroke="black" stroke-width="3"/>
<path d="M243.946 425.515C245.099 423.741 245.74 421.705 245.805 419.616C245.869 417.527 245.355 415.46 244.313 413.624C243.272 411.789 241.741 410.251 239.877 409.168C238.012 408.085 235.881 407.496 233.701 407.46C231.521 407.424 229.369 407.943 227.466 408.964C225.562 409.984 223.975 411.47 222.865 413.27C221.756 415.07 221.164 417.119 221.15 419.209C221.137 421.299 221.702 423.354 222.788 425.166" stroke="black" stroke-width="3"/>
<path d="M233.291 411.667L243.316 425.444L250 445H233.291H217L224.101 425.444L233.291 411.667Z" fill="white"/>
<ellipse cx="233.709" cy="419.667" rx="10.443" ry="10.6667" fill="white"/>
<line y1="-1.5" x2="21.851" y2="-1.5" transform="matrix(-0.225575 0.974226 -0.978004 -0.208586 227.929 426)" stroke="black" stroke-width="3"/>
<line x1="236.804" y1="425.768" x2="240.14" y2="447.043" stroke="black" stroke-width="3"/>
</svg>
